<?xml version="1.0" encoding="UTF-8"?>
<!DOCTYPE svg PUBLIC "-//W3C//DTD SVG 1.1//EN" "http://www.w3.org/Graphics/SVG/1.1/DTD/svg11.dtd">
<svg xmlns="http://www.w3.org/2000/svg" version="1.1" width="331px" height="1052px" style="shape-rendering:geometricPrecision; text-rendering:geometricPrecision; image-rendering:optimizeQuality; fill-rule:evenodd; clip-rule:evenodd" xmlns:xlink="http://www.w3.org/1999/xlink">
<g><path style="opacity:1" fill="#fefefe" d="M 0.5,-0.5 C 110.5,-0.5 220.5,-0.5 330.5,-0.5C 330.5,202.167 330.5,404.833 330.5,607.5C 329.506,588.955 328.173,570.289 326.5,551.5C 325.666,541.959 324.333,532.626 322.5,523.5C 320.021,498.926 315.021,474.926 307.5,451.5C 301.517,430.888 296.184,410.222 291.5,389.5C 280.3,344.77 263.8,302.103 242,261.5C 238.333,252.5 234.667,243.5 231,234.5C 217.427,209.69 204.094,184.69 191,159.5C 176.103,137.935 160.437,116.935 144,96.5C 115.497,64.9786 82.6641,39.1453 45.5,19C 30.6051,11.9893 15.6051,5.48925 0.5,-0.5 Z"/></g>
<g><path style="opacity:1" fill="#5db47c" d="M -0.5,-0.5 C -0.166667,-0.5 0.166667,-0.5 0.5,-0.5C 15.6051,5.48925 30.6051,11.9893 45.5,19C 82.6641,39.1453 115.497,64.9786 144,96.5C 160.437,116.935 176.103,137.935 191,159.5C 204.094,184.69 217.427,209.69 231,234.5C 234.667,243.5 238.333,252.5 242,261.5C 263.8,302.103 280.3,344.77 291.5,389.5C 292.481,396.881 292.814,404.214 292.5,411.5C 293.5,411.5 294.5,411.5 295.5,411.5C 295.334,415.514 295.501,419.514 296,423.5C 296.333,422.5 296.667,421.5 297,420.5C 298.24,426.353 299.74,432.186 301.5,438C 300.978,438.561 300.645,439.228 300.5,440C 302.973,443.785 305.306,447.618 307.5,451.5C 315.021,474.926 320.021,498.926 322.5,523.5C 322.735,529.849 323.235,536.183 324,542.5C 324.204,545.797 325.037,548.797 326.5,551.5C 328.173,570.289 329.506,588.955 330.5,607.5C 330.5,618.167 330.5,628.833 330.5,639.5C 326.729,681.688 317.229,722.688 302,762.5C 292.161,806.017 277.161,847.683 257,887.5C 252.065,895.701 246.399,903.368 240,910.5C 209.886,940.296 177.719,967.463 143.5,992C 126.593,1002.62 108.926,1011.96 90.5,1020C 60.7731,1030.63 31.1064,1041.13 1.5,1051.5C 0.833333,1051.5 0.166667,1051.5 -0.5,1051.5C -0.5,700.833 -0.5,350.167 -0.5,-0.5 Z"/></g>
<g><path style="opacity:1" fill="#70b67b" d="M 291.5,389.5 C 296.184,410.222 301.517,430.888 307.5,451.5C 305.306,447.618 302.973,443.785 300.5,440C 300.645,439.228 300.978,438.561 301.5,438C 299.74,432.186 298.24,426.353 297,420.5C 296.667,421.5 296.333,422.5 296,423.5C 295.501,419.514 295.334,415.514 295.5,411.5C 294.5,411.5 293.5,411.5 292.5,411.5C 292.814,404.214 292.481,396.881 291.5,389.5 Z"/></g>
<g><path style="opacity:1" fill="#83b97a" d="M 322.5,523.5 C 324.333,532.626 325.666,541.959 326.5,551.5C 325.037,548.797 324.204,545.797 324,542.5C 323.235,536.183 322.735,529.849 322.5,523.5 Z"/></g>
<g><path style="opacity:1" fill="#fefefe" d="M 330.5,639.5 C 330.5,776.833 330.5,914.167 330.5,1051.5C 220.833,1051.5 111.167,1051.5 1.5,1051.5C 31.1064,1041.13 60.7731,1030.63 90.5,1020C 108.926,1011.96 126.593,1002.62 143.5,992C 177.719,967.463 209.886,940.296 240,910.5C 246.399,903.368 252.065,895.701 257,887.5C 277.161,847.683 292.161,806.017 302,762.5C 317.229,722.688 326.729,681.688 330.5,639.5 Z"/></g>
</svg>
