<?xml version="1.0" encoding="UTF-8"?>
<!DOCTYPE svg PUBLIC "-//W3C//DTD SVG 1.1//EN" "http://www.w3.org/Graphics/SVG/1.1/DTD/svg11.dtd">
<svg xmlns="http://www.w3.org/2000/svg" version="1.1" width="348px" height="800px" style="shape-rendering:geometricPrecision; text-rendering:geometricPrecision; image-rendering:optimizeQuality; fill-rule:evenodd; clip-rule:evenodd" xmlns:xlink="http://www.w3.org/1999/xlink">
<g><path style="opacity:0.247" fill="#999391" d="M 218.5,1.5 C 223.27,1.69175 227.937,2.52508 232.5,4C 233.056,4.38258 233.389,4.88258 233.5,5.5C 228.192,4.91188 223.192,3.57855 218.5,1.5 Z"/></g>
<g><path style="opacity:0.61" fill="#a29c98" d="M 170.5,1.5 C 169.71,2.40128 168.71,3.06795 167.5,3.5C 154.845,4.2109 142.179,4.87756 129.5,5.5C 130.263,4.73209 131.263,4.23209 132.5,4C 145.165,3.01539 157.832,2.18206 170.5,1.5 Z"/></g>
<g><path style="opacity:0.997" fill="#603117" d="M 176.5,2.5 C 198.937,0.783012 220.603,3.94968 241.5,12C 247.021,14.9243 252.355,18.091 257.5,21.5C 257.631,22.3764 257.298,23.0431 256.5,23.5C 243.519,17.2144 230.353,13.2144 217,11.5C 222.591,15.0863 227.591,19.4196 232,24.5C 232.982,25.7589 233.315,27.0922 233,28.5C 215.962,13.7053 196.128,5.53861 173.5,4C 174.737,3.76791 175.737,3.26791 176.5,2.5 Z"/></g>
<g><path style="opacity:0.2" fill="#bbb6b4" d="M 129.5,5.5 C 124.444,7.7691 119.111,9.43576 113.5,10.5C 113.881,9.06888 114.881,8.23555 116.5,8C 120.703,6.43093 125.036,5.59759 129.5,5.5 Z"/></g>
<g><path style="opacity:1" fill="#643318" d="M 69.5,51.5 C 72.7419,45.5888 77.0753,40.5888 82.5,36.5C 113.776,9.27226 149.442,1.77226 189.5,14C 175.833,14.3333 162.167,14.6667 148.5,15C 112.851,20.8004 112.851,22.8004 148.5,21C 166.209,22.5207 182.875,27.5207 198.5,36C 201.488,37.9897 204.155,40.3231 206.5,43C 196.571,40.2505 186.571,37.2505 176.5,34C 152.147,29.6554 128.147,30.9887 104.5,38C 92.4951,42.7109 80.8284,47.2109 69.5,51.5 Z"/></g>
<g><path style="opacity:1" fill="#442410" d="M 176.5,2.5 C 175.737,3.26791 174.737,3.76791 173.5,4C 196.128,5.53861 215.962,13.7053 233,28.5C 233.315,27.0922 232.982,25.7589 232,24.5C 227.591,19.4196 222.591,15.0863 217,11.5C 230.353,13.2144 243.519,17.2144 256.5,23.5C 257.298,23.0431 257.631,22.3764 257.5,21.5C 275.933,33.1002 290.433,48.4336 301,67.5C 302.136,70.0964 302.969,72.763 303.5,75.5C 307.738,73.3809 312.071,71.2143 316.5,69C 330.418,66.4136 339.418,71.9136 343.5,85.5C 343.631,86.2389 343.464,86.9056 343,87.5C 331.998,78.3451 320.831,78.1784 309.5,87C 306.462,89.7026 303.795,92.7026 301.5,96C 309.868,99.6986 316.368,105.532 321,113.5C 324.974,120.42 327.974,127.753 330,135.5C 330.667,139.167 330.667,142.833 330,146.5C 326.074,139.073 320.574,133.073 313.5,128.5C 313.167,128.833 312.833,129.167 312.5,129.5C 318.419,142.561 318.919,155.894 314,169.5C 312.382,172.943 310.215,175.943 307.5,178.5C 305.977,171.74 304.144,165.073 302,158.5C 301.667,158.167 301.333,157.833 301,157.5C 287.96,179.451 280.46,203.118 278.5,228.5C 277.166,223.332 275.332,218.332 273,213.5C 267.667,206.167 262.333,198.833 257,191.5C 254.214,183.737 253.047,175.737 253.5,167.5C 262.863,158.307 269.363,147.307 273,134.5C 276.338,119.84 274.671,105.84 268,92.5C 264.1,131.339 245.767,161.005 213,181.5C 212.536,180.906 212.369,180.239 212.5,179.5C 216.132,165.608 216.466,151.608 213.5,137.5C 215.029,132.75 216.863,128.084 219,123.5C 221.015,117.623 222.515,111.623 223.5,105.5C 223.141,96.1098 219.141,88.7765 211.5,83.5C 210.092,107.266 201.426,127.766 185.5,145C 184.833,145.667 184.167,145.667 183.5,145C 189.371,135.685 192.538,125.518 193,114.5C 181.213,129.288 168.379,143.121 154.5,156C 152.33,157.586 149.996,158.92 147.5,160C 129.526,164.32 113.526,172.32 99.5,184C 98.6634,185.011 98.33,186.178 98.5,187.5C 97.5041,187.586 96.6708,187.252 96,186.5C 88.6455,159.459 91.9788,133.792 106,109.5C 108.809,105.39 111.975,101.557 115.5,98C 114.833,97.3333 114.167,97.3333 113.5,98C 105.28,105.719 99.2802,114.885 95.5,125.5C 73.1314,137.362 58.298,155.362 51,179.5C 50.5014,183.152 50.3347,186.818 50.5,190.5C 50.8076,192.924 50.4742,195.257 49.5,197.5C 43.0455,188.988 39.2121,179.321 38,168.5C 37.2763,157.291 38.4429,146.291 41.5,135.5C 45.9183,121.139 53.9183,109.305 65.5,100C 59.716,101.843 54.8827,105.343 51,110.5C 46.237,117.526 42.4037,125.026 39.5,133C 28.0978,134.603 17.0978,133.27 6.5,129C 4.07714,127.429 2.74381,125.263 2.5,122.5C 14.7014,121.318 24.2014,115.651 31,105.5C 36.8247,94.1846 44.3247,84.1846 53.5,75.5C 74.0041,54.5889 99.0041,44.0889 128.5,44C 102.189,41.3816 79.1886,48.8816 59.5,66.5C 59.1667,66.3333 58.8333,66.1667 58.5,66C 61.2157,62.7294 63.549,59.2294 65.5,55.5C 66.3382,55.1583 66.6716,54.4916 66.5,53.5C 67.5,52.8333 68.5,52.1667 69.5,51.5C 80.8284,47.2109 92.4951,42.7109 104.5,38C 128.147,30.9887 152.147,29.6554 176.5,34C 186.571,37.2505 196.571,40.2505 206.5,43C 204.155,40.3231 201.488,37.9897 198.5,36C 182.875,27.5207 166.209,22.5207 148.5,21C 112.851,22.8004 112.851,20.8004 148.5,15C 162.167,14.6667 175.833,14.3333 189.5,14C 149.442,1.77226 113.776,9.27226 82.5,36.5C 98.2823,18.4432 118.282,8.60984 142.5,7C 168.575,5.33852 193.242,10.3385 216.5,22C 219.333,24.1667 222.167,26.3333 225,28.5C 225.667,27.8333 225.667,27.1667 225,26.5C 209.527,13.9445 191.694,6.94454 171.5,5.5C 171.082,4.77842 170.416,4.27842 169.5,4C 171.74,3.02304 174.073,2.52304 176.5,2.5 Z"/></g>
<g><path style="opacity:0.9" fill="#726762" d="M 236.5,6.5 C 242.335,8.31165 248.002,10.645 253.5,13.5C 254.298,13.9569 254.631,14.6236 254.5,15.5C 251.664,13.5423 248.664,12.8756 245.5,13.5C 242.787,10.6965 239.787,8.36312 236.5,6.5 Z"/></g>
<g><path style="opacity:0.584" fill="#8c837f" d="M 110.5,11.5 C 107.532,14.6147 103.866,16.6147 99.5,17.5C 102.4,14.2145 106.067,12.2145 110.5,11.5 Z"/></g>
<g><path style="opacity:0.188" fill="#c1b9b5" d="M 99.5,17.5 C 96.4029,20.8884 92.7363,23.5551 88.5,25.5C 90.3044,22.9021 92.6377,20.7354 95.5,19C 96.745,18.2086 98.0783,17.7086 99.5,17.5 Z"/></g>
<g><path style="opacity:0.92" fill="#25160e" d="M 167.5,3.5 C 168.183,5.17649 169.517,5.84316 171.5,5.5C 191.694,6.94454 209.527,13.9445 225,26.5C 225.667,27.1667 225.667,27.8333 225,28.5C 222.167,26.3333 219.333,24.1667 216.5,22C 193.242,10.3385 168.575,5.33852 142.5,7C 118.282,8.60984 98.2823,18.4432 82.5,36.5C 77.0753,40.5888 72.7419,45.5888 69.5,51.5C 68.5,52.1667 67.5,52.8333 66.5,53.5C 66.5721,50.4475 67.5721,47.7808 69.5,45.5C 69.7376,43.5956 70.7376,42.2623 72.5,41.5C 78.1186,36.5481 83.4519,31.2148 88.5,25.5C 92.7363,23.5551 96.4029,20.8884 99.5,17.5C 103.866,16.6147 107.532,14.6147 110.5,11.5C 111.209,10.596 112.209,10.2627 113.5,10.5C 119.111,9.43576 124.444,7.7691 129.5,5.5C 142.179,4.87756 154.845,4.2109 167.5,3.5 Z"/></g>
<g><path style="opacity:0.012" fill="#afada9" d="M 264.5,21.5 C 267.089,22.4194 269.089,24.086 270.5,26.5C 267.911,25.5806 265.911,23.914 264.5,21.5 Z"/></g>
<g><path style="opacity:0.008" fill="#a5a19f" d="M 270.5,26.5 C 272.749,27.0798 274.415,28.4131 275.5,30.5C 273.251,29.9202 271.585,28.5869 270.5,26.5 Z"/></g>
<g><path style="opacity:0.106" fill="#aaa4a1" d="M 88.5,25.5 C 83.4519,31.2148 78.1186,36.5481 72.5,41.5C 76.8545,35.1455 82.1878,29.8122 88.5,25.5 Z"/></g>
<g><path style="opacity:0.89" fill="#594d49" d="M 69.5,45.5 C 67.5721,47.7808 66.5721,50.4475 66.5,53.5C 66.6716,54.4916 66.3382,55.1583 65.5,55.5C 65.6309,54.6236 65.2975,53.9569 64.5,53.5C 63.6459,56.9093 61.6459,59.2426 58.5,60.5C 61.015,54.6522 64.6817,49.6522 69.5,45.5 Z"/></g>
<g><path style="opacity:1" fill="#231309" d="M 53.5,75.5 C 54.9074,70.3661 56.5741,65.3661 58.5,60.5C 61.6459,59.2426 63.6459,56.9093 64.5,53.5C 65.2975,53.9569 65.6309,54.6236 65.5,55.5C 63.549,59.2294 61.2157,62.7294 58.5,66C 58.8333,66.1667 59.1667,66.3333 59.5,66.5C 79.1886,48.8816 102.189,41.3816 128.5,44C 99.0041,44.0889 74.0041,54.5889 53.5,75.5 Z"/></g>
<g><path style="opacity:1" fill="#633318" d="M 117.5,47.5 C 121.182,47.3347 124.848,47.5014 128.5,48C 99.3581,53.153 74.5247,66.3196 54,87.5C 46.5534,101.578 36.0534,112.744 22.5,121C 19.6487,122.608 16.6487,123.274 13.5,123C 19.2721,120.366 24.4388,116.866 29,112.5C 36.0569,103.108 42.7236,93.4418 49,83.5C 61.2316,70.3024 75.7316,60.4691 92.5,54C 101.076,52.259 109.409,50.0923 117.5,47.5 Z"/></g>
<g><path style="opacity:0.959" fill="#352620" d="M 185.5,-0.5 C 193.5,-0.5 201.5,-0.5 209.5,-0.5C 212.5,0.166667 215.5,0.833333 218.5,1.5C 223.192,3.57855 228.192,4.91188 233.5,5.5C 234.791,5.26269 235.791,5.59603 236.5,6.5C 239.787,8.36312 242.787,10.6965 245.5,13.5C 248.664,12.8756 251.664,13.5423 254.5,15.5C 258.505,16.4977 261.839,18.4977 264.5,21.5C 265.911,23.914 267.911,25.5806 270.5,26.5C 271.585,28.5869 273.251,29.9202 275.5,30.5C 283.45,37.288 290.616,44.9547 297,53.5C 299.377,56.9209 301.21,60.5876 302.5,64.5C 302.427,66.0269 303.094,67.0269 304.5,67.5C 305.315,68.4293 306.148,69.4293 307,70.5C 307.5,69.3333 308.333,68.5 309.5,68C 316.9,64.8534 324.234,64.3534 331.5,66.5C 333.322,68.0101 335.322,69.3434 337.5,70.5C 339.529,72.8585 341.529,75.1918 343.5,77.5C 345.074,78.9842 346.407,80.6508 347.5,82.5C 347.5,88.1667 347.5,93.8333 347.5,99.5C 346.504,99.4142 345.671,99.7476 345,100.5C 344.051,98.9069 342.885,97.5736 341.5,96.5C 340.167,95.8333 339.167,94.8333 338.5,93.5C 336.948,90.8881 334.614,89.5548 331.5,89.5C 327.5,89.5 323.5,89.5 319.5,89.5C 317.847,89.6596 316.514,90.3263 315.5,91.5C 315.5,92.1667 315.167,92.5 314.5,92.5C 312.019,93.8596 312.352,94.8596 315.5,95.5C 316.922,95.7086 318.255,96.2086 319.5,97C 321.623,99.2452 323.956,101.245 326.5,103C 329.146,105.802 331.146,108.968 332.5,112.5C 332.427,114.027 333.094,115.027 334.5,115.5C 345,133.864 347,153.198 340.5,173.5C 339.069,174.78 338.402,176.447 338.5,178.5C 337,186.67 334.334,194.336 330.5,201.5C 330.62,199.266 330.287,197.099 329.5,195C 334.311,182.928 337.811,170.428 340,157.5C 341.986,130.397 331.819,109.397 309.5,94.5C 312.691,87.8999 318.024,84.8999 325.5,85.5C 332.632,85.6538 338.632,88.3205 343.5,93.5C 344.8,90.6908 344.8,88.0241 343.5,85.5C 339.418,71.9136 330.418,66.4136 316.5,69C 312.071,71.2143 307.738,73.3809 303.5,75.5C 302.969,72.763 302.136,70.0964 301,67.5C 290.433,48.4336 275.933,33.1002 257.5,21.5C 252.355,18.091 247.021,14.9243 241.5,12C 220.603,3.94968 198.937,0.783012 176.5,2.5C 174.073,2.52304 171.74,3.02304 169.5,4C 170.416,4.27842 171.082,4.77842 171.5,5.5C 169.517,5.84316 168.183,5.17649 167.5,3.5C 168.71,3.06795 169.71,2.40128 170.5,1.5C 175.5,0.833333 180.5,0.166667 185.5,-0.5 Z"/></g>
<g><path style="opacity:0.031" fill="#bfbbbb" d="M 302.5,64.5 C 303.906,64.9731 304.573,65.9731 304.5,67.5C 303.094,67.0269 302.427,66.0269 302.5,64.5 Z"/></g>
<g><path style="opacity:0.012" fill="#a69f9e" d="M 331.5,66.5 C 334.513,66.5809 336.513,67.9142 337.5,70.5C 335.322,69.3434 333.322,68.0101 331.5,66.5 Z"/></g>
<g><path style="opacity:0.016" fill="#aeaaa4" d="M 337.5,70.5 C 340.908,71.5778 342.908,73.9111 343.5,77.5C 341.529,75.1918 339.529,72.8585 337.5,70.5 Z"/></g>
<g><path style="opacity:1" fill="#361c0d" d="M 213.5,137.5 C 212.034,134.941 211.034,132.108 210.5,129C 211.931,124.639 213.765,120.472 216,116.5C 217.956,111.31 218.623,105.976 218,100.5C 210.915,126.465 196.082,146.965 173.5,162C 169.277,163.944 164.944,165.611 160.5,167C 146.316,168.854 132.316,171.521 118.5,175C 111.151,178.204 104.484,182.371 98.5,187.5C 98.33,186.178 98.6634,185.011 99.5,184C 113.526,172.32 129.526,164.32 147.5,160C 149.996,158.92 152.33,157.586 154.5,156C 168.379,143.121 181.213,129.288 193,114.5C 192.538,125.518 189.371,135.685 183.5,145C 184.167,145.667 184.833,145.667 185.5,145C 201.426,127.766 210.092,107.266 211.5,83.5C 219.141,88.7765 223.141,96.1098 223.5,105.5C 222.515,111.623 221.015,117.623 219,123.5C 216.863,128.084 215.029,132.75 213.5,137.5 Z"/></g>
<g><path style="opacity:1" fill="#643318" d="M 187.5,79.5 C 184.772,111.373 168.439,133.54 138.5,146C 131.365,148.654 124.198,151.154 117,153.5C 116.167,153.167 115.333,152.833 114.5,152.5C 117.748,143.922 120.081,135.088 121.5,126C 121.167,124.5 120.833,123 120.5,121.5C 114.139,128.88 109.306,137.213 106,146.5C 102.884,155.683 99.8843,165.016 97,174.5C 94.7053,155.269 97.7053,136.935 106,119.5C 111.964,106.868 120.797,96.7011 132.5,89C 135.971,87.1747 139.638,86.1747 143.5,86C 128.77,95.3921 117.604,107.892 110,123.5C 109.333,124.833 109.333,126.167 110,127.5C 119.528,115.132 131.028,105.132 144.5,97.5C 143.879,111.533 139.713,124.533 132,136.5C 130.167,138.333 128.333,140.167 126.5,142C 138.546,137.377 149.38,130.544 159,121.5C 170.737,109.029 180.237,95.0289 187.5,79.5 Z"/></g>
<g><path style="opacity:1" fill="#361c0d" d="M 343.5,85.5 C 344.8,88.0241 344.8,90.6908 343.5,93.5C 338.632,88.3205 332.632,85.6538 325.5,85.5C 318.024,84.8999 312.691,87.8999 309.5,94.5C 331.819,109.397 341.986,130.397 340,157.5C 337.811,170.428 334.311,182.928 329.5,195C 330.287,197.099 330.62,199.266 330.5,201.5C 330.25,203.674 329.25,205.341 327.5,206.5C 326.833,206.5 326.5,206.833 326.5,207.5C 321.763,197.764 314.097,191.764 303.5,189.5C 303.083,188.876 302.416,188.543 301.5,188.5C 295.831,190.67 291.998,194.67 290,200.5C 284.9,213.668 282.233,227.335 282,241.5C 280.643,237.216 279.477,232.883 278.5,228.5C 280.46,203.118 287.96,179.451 301,157.5C 301.333,157.833 301.667,158.167 302,158.5C 304.144,165.073 305.977,171.74 307.5,178.5C 310.215,175.943 312.382,172.943 314,169.5C 318.919,155.894 318.419,142.561 312.5,129.5C 312.833,129.167 313.167,128.833 313.5,128.5C 320.574,133.073 326.074,139.073 330,146.5C 330.667,142.833 330.667,139.167 330,135.5C 327.974,127.753 324.974,120.42 321,113.5C 316.368,105.532 309.868,99.6986 301.5,96C 303.795,92.7026 306.462,89.7026 309.5,87C 320.831,78.1784 331.998,78.3451 343,87.5C 343.464,86.9056 343.631,86.2389 343.5,85.5 Z"/></g>
<g><path style="opacity:0.006" fill="#d9d6d6" d="M 319.5,89.5 C 318.713,91.1042 317.38,91.7709 315.5,91.5C 316.514,90.3263 317.847,89.6596 319.5,89.5 Z"/></g>
<g><path style="opacity:0.043" fill="#cecdc9" d="M 331.5,89.5 C 334.614,89.5548 336.948,90.8881 338.5,93.5C 335.9,92.5324 333.566,91.1991 331.5,89.5 Z"/></g>
<g><path style="opacity:0.014" fill="#eadddd" d="M 314.5,92.5 C 315.11,93.391 315.443,94.391 315.5,95.5C 312.352,94.8596 312.019,93.8596 314.5,92.5 Z"/></g>
<g><path style="opacity:1" fill="#351c0d" d="M 253.5,167.5 C 253.378,162.768 253.878,158.102 255,153.5C 261.297,145.242 266.297,136.242 270,126.5C 271.406,120.558 271.739,114.558 271,108.5C 264.939,143.457 245.773,168.29 213.5,183C 214.094,183.464 214.761,183.631 215.5,183.5C 214.71,184.401 213.71,185.068 212.5,185.5C 211.709,183.309 211.709,181.309 212.5,179.5C 212.369,180.239 212.536,180.906 213,181.5C 245.767,161.005 264.1,131.339 268,92.5C 274.671,105.84 276.338,119.84 273,134.5C 269.363,147.307 262.863,158.307 253.5,167.5 Z"/></g>
<g><path style="opacity:0.133" fill="#a8a39f" d="M 341.5,96.5 C 342.885,97.5736 344.051,98.9069 345,100.5C 345.671,99.7476 346.504,99.4142 347.5,99.5C 347.5,100.167 347.5,100.833 347.5,101.5C 346.844,102.278 346.011,102.944 345,103.5C 342.985,101.639 341.818,99.3054 341.5,96.5 Z"/></g>
<g><path style="opacity:0.067" fill="#8e8c85" d="M 27.5,104.5 C 26.5806,107.089 24.914,109.089 22.5,110.5C 23.4194,107.911 25.086,105.911 27.5,104.5 Z"/></g>
<g><path style="opacity:1" fill="#623218" d="M 80.5,96.5 C 82.3786,96.3932 82.7119,96.8932 81.5,98C 62.327,109.861 51.1603,127.028 48,149.5C 46.8897,162.807 46.223,176.141 46,189.5C 42.6258,179.519 41.1258,169.186 41.5,158.5C 40.8914,129.01 53.8914,108.344 80.5,96.5 Z"/></g>
<g><path style="opacity:0.027" fill="#d6d4d4" d="M 332.5,112.5 C 333.906,112.973 334.573,113.973 334.5,115.5C 333.094,115.027 332.427,114.027 332.5,112.5 Z"/></g>
<g><path style="opacity:0.09" fill="#ada6a2" d="M 10.5,117.5 C 7.85388,119.253 4.85388,120.253 1.5,120.5C 1.61071,119.883 1.94404,119.383 2.5,119C 5.16772,118.433 7.83438,117.933 10.5,117.5 Z"/></g>
<g><path style="opacity:1" fill="#351c0c" d="M 95.5,125.5 C 94.0207,131.439 91.8541,137.106 89,142.5C 80.7038,149.127 72.7038,156.127 65,163.5C 58.3689,171.582 53.5355,180.582 50.5,190.5C 50.3347,186.818 50.5014,183.152 51,179.5C 58.298,155.362 73.1314,137.362 95.5,125.5 Z"/></g>
<g><path style="opacity:0.998" fill="#2f2019" d="M 58.5,60.5 C 56.5741,65.3661 54.9074,70.3661 53.5,75.5C 44.3247,84.1846 36.8247,94.1846 31,105.5C 24.2014,115.651 14.7014,121.318 2.5,122.5C 2.74381,125.263 4.07714,127.429 6.5,129C 17.0978,133.27 28.0978,134.603 39.5,133C 42.4037,125.026 46.237,117.526 51,110.5C 54.8827,105.343 59.716,101.843 65.5,100C 53.9183,109.305 45.9183,121.139 41.5,135.5C 40.5,136.833 39.5,136.833 38.5,135.5C 33.8592,136.127 29.1925,136.46 24.5,136.5C 23.0949,140.385 22.0949,144.385 21.5,148.5C 21.5,148.833 21.5,149.167 21.5,149.5C 17.1072,174.219 22.6072,196.552 38,216.5C 38.4643,215.906 38.631,215.239 38.5,214.5C 40.1563,216.46 41.823,218.46 43.5,220.5C 43.3433,221.873 43.51,223.207 44,224.5C 51.8733,234.926 58.7066,245.926 64.5,257.5C 65.4731,259.948 65.8064,262.615 65.5,265.5C 64.5,264.167 63.5,262.833 62.5,261.5C 60.651,256.304 58.3177,251.304 55.5,246.5C 54.1535,244.463 52.8202,242.463 51.5,240.5C 49.8333,237.833 48.1667,235.167 46.5,232.5C 45.713,230.896 44.3797,230.229 42.5,230.5C 36.914,221.733 31.0806,213.066 25,204.5C 14.3719,183.116 12.8719,161.116 20.5,138.5C 21.2674,137.828 21.9341,136.995 22.5,136C 20.5273,135.505 18.5273,135.338 16.5,135.5C 9.47008,135.462 3.80341,132.795 -0.5,127.5C -0.5,125.167 -0.5,122.833 -0.5,120.5C 0.166667,120.5 0.833333,120.5 1.5,120.5C 4.85388,120.253 7.85388,119.253 10.5,117.5C 14.4749,115.207 18.4749,112.874 22.5,110.5C 24.914,109.089 26.5806,107.089 27.5,104.5C 33.9147,92.2445 42.0814,81.2445 52,71.5C 53.6891,67.4401 55.8558,63.7734 58.5,60.5 Z"/></g>
<g><path style="opacity:1" fill="#f7ad8c" d="M 211.5,143.5 C 210.732,142.737 210.232,141.737 210,140.5C 200.039,154.13 187.872,165.297 173.5,174C 158.226,177.261 142.892,180.261 127.5,183C 120.435,184.8 113.435,186.8 106.5,189C 105.058,189.377 104.058,190.21 103.5,191.5C 102.29,191.068 101.29,190.401 100.5,189.5C 108.301,182.597 117.301,177.764 127.5,175C 143.383,174.021 158.716,170.688 173.5,165C 187.289,156.211 198.789,145.044 208,131.5C 210.232,135.143 211.399,139.143 211.5,143.5 Z"/></g>
<g><path style="opacity:0.012" fill="#b6b4b0" d="M 16.5,135.5 C 18.5273,135.338 20.5273,135.505 22.5,136C 21.9341,136.995 21.2674,137.828 20.5,138.5C 19.5525,137.022 18.2191,136.022 16.5,135.5 Z"/></g>
<g><path style="opacity:1" fill="#452510" d="M 38.5,135.5 C 34.0676,152.985 34.5676,170.318 40,187.5C 41.9331,191.917 44.4331,195.917 47.5,199.5C 46.4265,200.251 46.2599,201.251 47,202.5C 52,214.5 57,226.5 62,238.5C 63.8863,244.697 64.7196,251.03 64.5,257.5C 58.7066,245.926 51.8733,234.926 44,224.5C 43.51,223.207 43.3433,221.873 43.5,220.5C 44.3635,221.463 45.0302,221.463 45.5,220.5C 30.895,197.006 24.0617,171.339 25,143.5C 23.8111,145.233 22.6444,146.9 21.5,148.5C 22.0949,144.385 23.0949,140.385 24.5,136.5C 29.1925,136.46 33.8592,136.127 38.5,135.5 Z"/></g>
<g><path style="opacity:1" fill="#fccfa5" d="M 211.5,143.5 C 212.812,151.265 212.812,158.932 211.5,166.5C 201.397,165.608 193.397,169.275 187.5,177.5C 187.833,177.833 188.167,178.167 188.5,178.5C 193.188,175.233 198.355,173.567 204,173.5C 206.61,173.533 208.777,174.2 210.5,175.5C 209.694,179.946 207.694,183.779 204.5,187C 205.448,187.483 206.448,187.649 207.5,187.5C 216.253,187.136 224.586,185.136 232.5,181.5C 235.056,182.543 237.223,184.21 239,186.5C 238.549,184.48 237.716,182.48 236.5,180.5C 240.432,177.521 244.432,174.521 248.5,171.5C 249.17,173.291 249.837,174.958 250.5,176.5C 251.359,183.578 253.526,190.245 257,196.5C 261.664,201.841 265.831,207.507 269.5,213.5C 272.459,225.007 274.626,236.673 276,248.5C 280.263,276.454 271.763,299.62 250.5,318C 215.405,343.74 176.072,353.907 132.5,348.5C 110.787,342.275 92.6207,330.608 78,313.5C 75.9344,308.637 74.2678,303.637 73,298.5C 70.1743,279.895 67.841,261.228 66,242.5C 60.5903,229.687 55.757,216.687 51.5,203.5C 52.5832,203.539 53.5832,203.873 54.5,204.5C 59.9484,182.764 71.6151,165.431 89.5,152.5C 89.0557,164.719 90.389,176.719 93.5,188.5C 78.0382,194.095 70.5382,205.095 71,221.5C 73.1789,208.32 80.6789,199.82 93.5,196C 97.819,195.24 102.152,194.573 106.5,194C 105.627,192.955 104.627,192.122 103.5,191.5C 104.058,190.21 105.058,189.377 106.5,189C 113.435,186.8 120.435,184.8 127.5,183C 142.892,180.261 158.226,177.261 173.5,174C 187.872,165.297 200.039,154.13 210,140.5C 210.232,141.737 210.732,142.737 211.5,143.5 Z"/></g>
<g><path style="opacity:1" fill="#f3aa8a" d="M 89.5,152.5 C 71.6151,165.431 59.9484,182.764 54.5,204.5C 53.5832,203.873 52.5832,203.539 51.5,203.5C 50.8333,203.5 50.5,203.167 50.5,202.5C 52.6349,189.283 57.8016,177.283 66,166.5C 73.6844,159.315 81.5177,152.315 89.5,145.5C 90.5751,147.811 90.5751,150.144 89.5,152.5 Z"/></g>
<g><path style="opacity:1" fill="#26160d" d="M 98.5,187.5 C 104.484,182.371 111.151,178.204 118.5,175C 132.316,171.521 146.316,168.854 160.5,167C 164.944,165.611 169.277,163.944 173.5,162C 196.082,146.965 210.915,126.465 218,100.5C 218.623,105.976 217.956,111.31 216,116.5C 213.765,120.472 211.931,124.639 210.5,129C 211.034,132.108 212.034,134.941 213.5,137.5C 216.466,151.608 216.132,165.608 212.5,179.5C 211.709,181.309 211.709,183.309 212.5,185.5C 210.597,185.796 208.93,186.463 207.5,187.5C 206.448,187.649 205.448,187.483 204.5,187C 207.694,183.779 209.694,179.946 210.5,175.5C 211.477,172.713 211.81,169.713 211.5,166.5C 212.812,158.932 212.812,151.265 211.5,143.5C 211.399,139.143 210.232,135.143 208,131.5C 198.789,145.044 187.289,156.211 173.5,165C 158.716,170.688 143.383,174.021 127.5,175C 117.301,177.764 108.301,182.597 100.5,189.5C 98.8712,190.625 97.3712,191.959 96,193.5C 95.2432,191.685 94.4098,190.019 93.5,188.5C 90.389,176.719 89.0557,164.719 89.5,152.5C 90.5751,150.144 90.5751,147.811 89.5,145.5C 81.5177,152.315 73.6844,159.315 66,166.5C 57.8016,177.283 52.6349,189.283 50.5,202.5C 49.1667,201.833 48.1667,200.833 47.5,199.5C 44.4331,195.917 41.9331,191.917 40,187.5C 34.5676,170.318 34.0676,152.985 38.5,135.5C 39.5,136.833 40.5,136.833 41.5,135.5C 38.4429,146.291 37.2763,157.291 38,168.5C 39.2121,179.321 43.0455,188.988 49.5,197.5C 50.4742,195.257 50.8076,192.924 50.5,190.5C 53.5355,180.582 58.3689,171.582 65,163.5C 72.7038,156.127 80.7038,149.127 89,142.5C 91.8541,137.106 94.0207,131.439 95.5,125.5C 99.2802,114.885 105.28,105.719 113.5,98C 114.167,97.3333 114.833,97.3333 115.5,98C 111.975,101.557 108.809,105.39 106,109.5C 91.9788,133.792 88.6455,159.459 96,186.5C 96.6708,187.252 97.5041,187.586 98.5,187.5 Z"/></g>
<g><path style="opacity:1" fill="#52311a" d="M 211.5,166.5 C 211.81,169.713 211.477,172.713 210.5,175.5C 208.777,174.2 206.61,173.533 204,173.5C 198.355,173.567 193.188,175.233 188.5,178.5C 188.167,178.167 187.833,177.833 187.5,177.5C 193.397,169.275 201.397,165.608 211.5,166.5 Z"/></g>
<g><path style="opacity:0.024" fill="#d6d6d4" d="M 340.5,173.5 C 340.598,175.553 339.931,177.22 338.5,178.5C 338.402,176.447 339.069,174.78 340.5,173.5 Z"/></g>
<g><path style="opacity:1" fill="#efa888" d="M 232.5,181.5 C 224.586,185.136 216.253,187.136 207.5,187.5C 208.93,186.463 210.597,185.796 212.5,185.5C 213.71,185.068 214.71,184.401 215.5,183.5C 219.743,182.377 223.743,180.711 227.5,178.5C 229.692,178.757 231.359,179.757 232.5,181.5 Z"/></g>
<g><path style="opacity:1" fill="#442410" d="M 21.5,149.5 C 19.7063,173.228 25.3729,194.895 38.5,214.5C 38.631,215.239 38.4643,215.906 38,216.5C 22.6072,196.552 17.1072,174.219 21.5,149.5 Z"/></g>
<g><path style="opacity:1" fill="#623218" d="M 43.5,220.5 C 41.823,218.46 40.1563,216.46 38.5,214.5C 25.3729,194.895 19.7063,173.228 21.5,149.5C 21.5,149.167 21.5,148.833 21.5,148.5C 22.6444,146.9 23.8111,145.233 25,143.5C 24.0617,171.339 30.895,197.006 45.5,220.5C 45.0302,221.463 44.3635,221.463 43.5,220.5 Z"/></g>
<g><path style="opacity:1" fill="#513019" d="M 93.5,188.5 C 94.4098,190.019 95.2432,191.685 96,193.5C 97.3712,191.959 98.8712,190.625 100.5,189.5C 101.29,190.401 102.29,191.068 103.5,191.5C 104.627,192.122 105.627,192.955 106.5,194C 102.152,194.573 97.819,195.24 93.5,196C 80.6789,199.82 73.1789,208.32 71,221.5C 70.5382,205.095 78.0382,194.095 93.5,188.5 Z"/></g>
<g><path style="opacity:1" fill="#faad8c" d="M 299.5,192.5 C 315.011,193.01 323.344,201.01 324.5,216.5C 323.895,228.543 318.895,238.376 309.5,246C 305.664,248.084 301.997,250.417 298.5,253C 300.134,253.494 301.801,253.66 303.5,253.5C 303.158,254.338 302.492,254.672 301.5,254.5C 300.167,254.5 298.833,254.5 297.5,254.5C 294.006,253.665 290.34,253.665 286.5,254.5C 285.635,246.534 285.302,238.534 285.5,230.5C 287.257,223.844 290.924,218.344 296.5,214C 299.77,212.34 303.103,212.006 306.5,213C 303.002,209.871 299.335,209.704 295.5,212.5C 294.479,211.998 294.312,211.332 295,210.5C 303.388,201.777 310.055,203.11 315,214.5C 313.755,204.957 308.255,201.123 298.5,203C 293.291,208.206 289.791,214.373 288,221.5C 287.536,220.906 287.369,220.239 287.5,219.5C 288.309,211.296 290.809,203.629 295,196.5C 296.371,194.959 297.871,193.625 299.5,192.5 Z"/></g>
<g><path style="opacity:1" fill="#b6613b" d="M 208.5,192.5 C 217.317,191.718 225.317,193.884 232.5,199C 214.957,190.624 201.124,194.791 191,211.5C 191.446,208.261 192.779,205.261 195,202.5C 199.12,198.532 203.62,195.199 208.5,192.5 Z"/></g>
<g><path style="opacity:1" fill="#613321" d="M 228.5,247.5 C 225.128,249.186 221.795,250.853 218.5,252.5C 209.234,253.996 199.901,254.663 190.5,254.5C 185.306,237.003 188.472,221.336 200,207.5C 214.517,195.223 226.184,197.556 235,214.5C 239.676,226.954 237.509,237.954 228.5,247.5 Z"/></g>
<g><path style="opacity:1" fill="#dddbda" d="M 233.5,234.5 C 235.545,214.691 227.211,207.524 208.5,213C 206.937,213.759 205.937,214.926 205.5,216.5C 203.518,216.995 201.518,217.495 199.5,218C 197.63,220.04 195.63,221.873 193.5,223.5C 196.024,215.137 201.024,208.637 208.5,204C 220.38,200.524 228.547,204.691 233,216.5C 234.712,222.595 234.878,228.595 233.5,234.5 Z"/></g>
<g><path style="opacity:1" fill="#faf9f9" d="M 233.5,234.5 C 231.27,242.646 225.937,247.646 217.5,249.5C 225.766,239.386 225.432,229.553 216.5,220C 212.991,218.241 209.325,217.074 205.5,216.5C 205.937,214.926 206.937,213.759 208.5,213C 227.211,207.524 235.545,214.691 233.5,234.5 Z"/></g>
<g><path style="opacity:0.979" fill="#a9502e" d="M 303.5,189.5 C 314.097,191.764 321.763,197.764 326.5,207.5C 326.827,215.612 326.16,223.612 324.5,231.5C 323.793,235.637 321.793,238.97 318.5,241.5C 316.5,242.833 314.833,244.5 313.5,246.5C 309.608,248.062 306.275,250.395 303.5,253.5C 301.801,253.66 300.134,253.494 298.5,253C 301.997,250.417 305.664,248.084 309.5,246C 318.895,238.376 323.895,228.543 324.5,216.5C 323.344,201.01 315.011,193.01 299.5,192.5C 300.262,190.738 301.596,189.738 303.5,189.5 Z"/></g>
<g><path style="opacity:1" fill="#ad5331" d="M 285.5,230.5 C 285.251,226.542 285.918,222.876 287.5,219.5C 287.369,220.239 287.536,220.906 288,221.5C 289.791,214.373 293.291,208.206 298.5,203C 308.255,201.123 313.755,204.957 315,214.5C 310.055,203.11 303.388,201.777 295,210.5C 294.312,211.332 294.479,211.998 295.5,212.5C 299.335,209.704 303.002,209.871 306.5,213C 303.103,212.006 299.77,212.34 296.5,214C 290.924,218.344 287.257,223.844 285.5,230.5 Z"/></g>
<g><path style="opacity:0.357" fill="#c38a74" d="M 327.5,206.5 C 327.666,213.175 327.5,219.842 327,226.5C 326.901,228.653 326.067,230.319 324.5,231.5C 326.16,223.612 326.827,215.612 326.5,207.5C 326.5,206.833 326.833,206.5 327.5,206.5 Z"/></g>
<g><path style="opacity:1" fill="#41342a" d="M 205.5,216.5 C 209.325,217.074 212.991,218.241 216.5,220C 225.432,229.553 225.766,239.386 217.5,249.5C 211.573,250.938 205.573,251.938 199.5,252.5C 197.167,249.997 195.001,247.331 193,244.5C 192.31,243.262 191.81,243.262 191.5,244.5C 190.903,244.265 190.57,243.765 190.5,243C 191.019,236.293 192.019,229.793 193.5,223.5C 195.63,221.873 197.63,220.04 199.5,218C 201.518,217.495 203.518,216.995 205.5,216.5 Z"/></g>
<g><path style="opacity:1" fill="#b45e39" d="M 92.5,216.5 C 97.2318,216.378 101.898,216.878 106.5,218C 109.29,218.561 111.623,219.894 113.5,222C 108.72,220.39 103.72,219.223 98.5,218.5C 88.9644,219.35 82.7977,224.35 80,233.5C 79.8823,229.384 81.2157,225.717 84,222.5C 86.7361,220.248 89.5695,218.248 92.5,216.5 Z"/></g>
<g><path style="opacity:1" fill="#29180f" d="M 253.5,167.5 C 253.047,175.737 254.214,183.737 257,191.5C 262.333,198.833 267.667,206.167 273,213.5C 275.332,218.332 277.166,223.332 278.5,228.5C 279.477,232.883 280.643,237.216 282,241.5C 282.233,227.335 284.9,213.668 290,200.5C 291.998,194.67 295.831,190.67 301.5,188.5C 302.416,188.543 303.083,188.876 303.5,189.5C 301.596,189.738 300.262,190.738 299.5,192.5C 297.871,193.625 296.371,194.959 295,196.5C 290.809,203.629 288.309,211.296 287.5,219.5C 285.918,222.876 285.251,226.542 285.5,230.5C 285.302,238.534 285.635,246.534 286.5,254.5C 280.254,245.595 276.421,235.595 275,224.5C 273.435,220.598 271.602,216.931 269.5,213.5C 265.831,207.507 261.664,201.841 257,196.5C 253.526,190.245 251.359,183.578 250.5,176.5C 250.828,171.125 250.495,165.792 249.5,160.5C 244.44,165.73 238.94,170.396 233,174.5C 233.447,176.812 234.613,178.812 236.5,180.5C 237.716,182.48 238.549,184.48 239,186.5C 237.223,184.21 235.056,182.543 232.5,181.5C 231.359,179.757 229.692,178.757 227.5,178.5C 223.743,180.711 219.743,182.377 215.5,183.5C 214.761,183.631 214.094,183.464 213.5,183C 245.773,168.29 264.939,143.457 271,108.5C 271.739,114.558 271.406,120.558 270,126.5C 266.297,136.242 261.297,145.242 255,153.5C 253.878,158.102 253.378,162.768 253.5,167.5 Z"/></g>
<g><path style="opacity:1" fill="#f1aa89" d="M 250.5,176.5 C 249.837,174.958 249.17,173.291 248.5,171.5C 244.432,174.521 240.432,177.521 236.5,180.5C 234.613,178.812 233.447,176.812 233,174.5C 238.94,170.396 244.44,165.73 249.5,160.5C 250.495,165.792 250.828,171.125 250.5,176.5 Z"/></g>
<g><path style="opacity:1" fill="#5f4b3b" d="M 218.5,243.5 C 218.88,241.302 218.213,239.635 216.5,238.5C 216.625,231.627 213.291,227.96 206.5,227.5C 206.784,229.415 206.451,231.081 205.5,232.5C 206.058,226.445 203.891,225.112 199,228.5C 198.36,230.265 198.527,231.932 199.5,233.5C 198.549,234.919 198.216,236.585 198.5,238.5C 196.623,239.659 196.123,241.326 197,243.5C 198.332,245.66 199.832,247.66 201.5,249.5C 195.734,246.322 192.734,241.322 192.5,234.5C 192.327,229.504 194.66,226.337 199.5,225C 206.132,223.829 212.465,224.662 218.5,227.5C 219.741,230.539 220.408,233.706 220.5,237C 220.664,239.544 219.997,241.71 218.5,243.5 Z"/></g>
<g><path style="opacity:1" fill="#eeedec" d="M 205.5,232.5 C 203.901,234.729 201.901,235.062 199.5,233.5C 198.527,231.932 198.36,230.265 199,228.5C 203.891,225.112 206.058,226.445 205.5,232.5 Z"/></g>
<g><path style="opacity:1" fill="#20201f" d="M 216.5,238.5 C 216.5,239.5 216.5,240.5 216.5,241.5C 214.833,241.5 213.167,241.5 211.5,241.5C 211.5,243.5 211.5,245.5 211.5,247.5C 203.568,249.556 199.234,246.556 198.5,238.5C 198.216,236.585 198.549,234.919 199.5,233.5C 201.901,235.062 203.901,234.729 205.5,232.5C 206.451,231.081 206.784,229.415 206.5,227.5C 213.291,227.96 216.625,231.627 216.5,238.5 Z"/></g>
<g><path style="opacity:1" fill="#633623" d="M 95.5,224.5 C 105.929,223.63 114.429,227.297 121,235.5C 125.481,242.259 128.814,249.593 131,257.5C 131.789,261.091 131.622,264.591 130.5,268C 103.854,280.343 87.854,272.009 82.5,243C 82.8026,233.883 87.1359,227.716 95.5,224.5 Z"/></g>
<g><path style="opacity:1" fill="#f1efee" d="M 120.5,239.5 C 120.44,240.043 120.107,240.376 119.5,240.5C 105.128,232.854 96.7949,237.187 94.5,253.5C 94.6448,258.767 96.3115,263.433 99.5,267.5C 99.0954,268.55 98.4288,268.55 97.5,267.5C 88.0367,259.242 84.2033,248.909 86,236.5C 87.4421,232.725 89.9421,229.892 93.5,228C 105.407,225.293 114.407,229.126 120.5,239.5 Z"/></g>
<g><path style="opacity:1" fill="#fcaf8e" d="M 269.5,213.5 C 271.602,216.931 273.435,220.598 275,224.5C 276.421,235.595 280.254,245.595 286.5,254.5C 292,285.986 281.333,310.153 254.5,327C 221.693,347.379 186.026,356.046 147.5,353C 142.176,352.18 137.176,350.68 132.5,348.5C 176.072,353.907 215.405,343.74 250.5,318C 271.763,299.62 280.263,276.454 276,248.5C 274.626,236.673 272.459,225.007 269.5,213.5 Z"/></g>
<g><path style="opacity:0.008" fill="#f5ebe6" d="M 318.5,241.5 C 317.833,244.167 316.167,245.833 313.5,246.5C 314.833,244.5 316.5,242.833 318.5,241.5 Z"/></g>
<g><path style="opacity:1" fill="#dfdbd8" d="M 199.5,252.5 C 197.167,252.5 194.833,252.5 192.5,252.5C 192.167,249.833 191.833,247.167 191.5,244.5C 191.81,243.262 192.31,243.262 193,244.5C 195.001,247.331 197.167,249.997 199.5,252.5 Z"/></g>
<g><path style="opacity:1" fill="#b6afaa" d="M 198.5,238.5 C 199.234,246.556 203.568,249.556 211.5,247.5C 211.5,245.5 211.5,243.5 211.5,241.5C 213.167,241.5 214.833,241.5 216.5,241.5C 216.5,240.5 216.5,239.5 216.5,238.5C 218.213,239.635 218.88,241.302 218.5,243.5C 214.596,250.211 208.93,252.211 201.5,249.5C 199.832,247.66 198.332,245.66 197,243.5C 196.123,241.326 196.623,239.659 198.5,238.5 Z"/></g>
<g><path style="opacity:0.012" fill="#efdcd5" d="M 313.5,246.5 C 310.943,249.792 307.609,252.126 303.5,253.5C 306.275,250.395 309.608,248.062 313.5,246.5 Z"/></g>
<g><path style="opacity:0.012" fill="#f3f1f1" d="M 297.5,254.5 C 298.833,254.5 300.167,254.5 301.5,254.5C 297.173,255.39 293.84,257.724 291.5,261.5C 292.029,257.967 294.029,255.633 297.5,254.5 Z"/></g>
<g><path style="opacity:1" fill="#fac09a" d="M 228.5,247.5 C 228.389,248.117 228.056,248.617 227.5,249C 233.5,249.333 239.5,249.667 245.5,250C 256.225,252.617 259.725,259.117 256,269.5C 253.69,271.137 252.19,273.304 251.5,276C 243.934,281.777 235.267,284.277 225.5,283.5C 222.248,283.479 219.081,283.146 216,282.5C 214.73,284.578 213.23,284.912 211.5,283.5C 212.239,283.631 212.906,283.464 213.5,283C 211.04,281.542 208.873,279.709 207,277.5C 206.601,277.728 206.435,278.062 206.5,278.5C 202.795,265.914 207.462,257.414 220.5,253C 219.906,252.536 219.239,252.369 218.5,252.5C 221.795,250.853 225.128,249.186 228.5,247.5 Z"/></g>
<g><path style="opacity:1" fill="#483a2f" d="M 120.5,239.5 C 123.216,244.641 125.549,249.975 127.5,255.5C 127.083,259.855 125.75,264.022 123.5,268C 123.728,268.399 124.062,268.565 124.5,268.5C 122.095,269.768 119.428,270.435 116.5,270.5C 122.222,266.828 124.055,261.828 122,255.5C 121.814,258.036 121.314,260.369 120.5,262.5C 121.711,252.71 117.378,248.044 107.5,248.5C 107.802,251.059 107.468,253.393 106.5,255.5C 107.921,249.887 105.921,247.72 100.5,249C 98.3497,254.019 100.016,256.519 105.5,256.5C 104.791,257.404 103.791,257.737 102.5,257.5C 102.366,259.292 102.699,260.958 103.5,262.5C 102.031,265.102 102.698,267.269 105.5,269C 108.351,270.289 111.351,270.789 114.5,270.5C 108.963,272.327 103.963,271.327 99.5,267.5C 96.3115,263.433 94.6448,258.767 94.5,253.5C 96.7949,237.187 105.128,232.854 119.5,240.5C 120.107,240.376 120.44,240.043 120.5,239.5 Z"/></g>
<g><path style="opacity:1" fill="#1e1d1d" d="M 120.5,262.5 C 118.621,261.659 116.621,261.325 114.5,261.5C 114.247,263.827 114.914,265.827 116.5,267.5C 110.573,269.889 106.24,268.223 103.5,262.5C 102.699,260.958 102.366,259.292 102.5,257.5C 103.791,257.737 104.791,257.404 105.5,256.5C 106.167,256.5 106.5,256.167 106.5,255.5C 107.468,253.393 107.802,251.059 107.5,248.5C 117.378,248.044 121.711,252.71 120.5,262.5 Z"/></g>
<g><path style="opacity:1" fill="#f2f2f1" d="M 106.5,255.5 C 106.5,256.167 106.167,256.5 105.5,256.5C 100.016,256.519 98.3497,254.019 100.5,249C 105.921,247.72 107.921,249.887 106.5,255.5 Z"/></g>
<g><path style="opacity:0.02" fill="#f4e7e3" d="M 290.5,280.5 C 290.58,283.781 289.913,286.781 288.5,289.5C 288.42,286.219 289.087,283.219 290.5,280.5 Z"/></g>
<g><path style="opacity:0.145" fill="#e6c5ba" d="M 60.5,286.5 C 63.0545,287.388 65.7212,287.721 68.5,287.5C 68.5,289.167 68.5,290.833 68.5,292.5C 67.596,291.791 67.2627,290.791 67.5,289.5C 64.539,289.536 62.2057,288.536 60.5,286.5 Z"/></g>
<g><path style="opacity:0.098" fill="#efe1da" d="M 79.5,320.5 C 84.1927,324.861 88.8594,329.195 93.5,333.5C 87.5517,330.552 82.885,326.219 79.5,320.5 Z"/></g>
<g><path style="opacity:0.045" fill="#f4e7e2" d="M 288.5,289.5 C 287.679,296.478 285.179,302.811 281,308.5C 265.569,327.431 246.069,340.098 222.5,346.5C 239.858,339.32 255.858,329.82 270.5,318C 278.942,309.928 284.942,300.428 288.5,289.5 Z"/></g>
<g><path style="opacity:0.996" fill="#a9502e" d="M 47.5,199.5 C 48.1667,200.833 49.1667,201.833 50.5,202.5C 50.5,203.167 50.8333,203.5 51.5,203.5C 55.757,216.687 60.5903,229.687 66,242.5C 67.841,261.228 70.1743,279.895 73,298.5C 74.2678,303.637 75.9344,308.637 78,313.5C 92.6207,330.608 110.787,342.275 132.5,348.5C 137.176,350.68 142.176,352.18 147.5,353C 186.026,356.046 221.693,347.379 254.5,327C 281.333,310.153 292,285.986 286.5,254.5C 290.34,253.665 294.006,253.665 297.5,254.5C 294.029,255.633 292.029,257.967 291.5,261.5C 291.751,267.892 291.418,274.225 290.5,280.5C 289.087,283.219 288.42,286.219 288.5,289.5C 284.942,300.428 278.942,309.928 270.5,318C 255.858,329.82 239.858,339.32 222.5,346.5C 219.933,346.721 217.599,347.388 215.5,348.5C 214.173,350.987 212.506,353.32 210.5,355.5C 210.5,353.833 210.5,352.167 210.5,350.5C 205.621,350.791 201.288,352.124 197.5,354.5C 196.833,354.833 196.167,355.167 195.5,355.5C 191.352,354.876 187.018,354.876 182.5,355.5C 182.5,357.167 182.5,358.833 182.5,360.5C 180.896,359.713 180.229,358.38 180.5,356.5C 176.958,356.187 173.625,356.521 170.5,357.5C 170.5,358.167 170.5,358.833 170.5,359.5C 169.739,358.609 168.739,357.942 167.5,357.5C 162.889,358.602 158.222,359.269 153.5,359.5C 153.881,358.069 154.881,357.236 156.5,357C 154.134,356.56 151.801,356.06 149.5,355.5C 144.486,354.831 139.486,353.997 134.5,353C 122.045,349.439 110.712,343.772 100.5,336C 98.1457,335.153 95.8123,334.32 93.5,333.5C 88.8594,329.195 84.1927,324.861 79.5,320.5C 77.8073,319.525 76.3073,318.192 75,316.5C 70.9692,309.047 68.8025,301.047 68.5,292.5C 68.5,290.833 68.5,289.167 68.5,287.5C 65.7212,287.721 63.0545,287.388 60.5,286.5C 57.646,286.076 54.9793,285.076 52.5,283.5C 36.7621,270.119 31.5954,253.452 37,233.5C 38.2635,231.393 40.0968,230.393 42.5,230.5C 44.3797,230.229 45.713,230.896 46.5,232.5C 42.8296,232.327 40.3296,233.993 39,237.5C 36.4828,250.297 39.1494,261.963 47,272.5C 49.7663,275.777 52.933,278.443 56.5,280.5C 59.4809,283.488 63.1476,285.154 67.5,285.5C 67.6126,278.736 66.9459,272.07 65.5,265.5C 65.8064,262.615 65.4731,259.948 64.5,257.5C 64.7196,251.03 63.8863,244.697 62,238.5C 57,226.5 52,214.5 47,202.5C 46.2599,201.251 46.4265,200.251 47.5,199.5 Z"/></g>
<g><path style="opacity:1" fill="#ae532f" d="M 184.5,336.5 C 186.337,336.639 186.67,337.306 185.5,338.5C 180.15,343.404 174.15,344.571 167.5,342C 174.104,342.632 179.771,340.799 184.5,336.5 Z"/></g>
<g><path style="opacity:1" fill="#a74a28" d="M 211.5,283.5 C 210.178,283.33 209.011,283.663 208,284.5C 207,286.5 206,288.5 205,290.5C 202.411,301.855 198.744,312.855 194,323.5C 185.264,335.444 173.764,339.277 159.5,335C 156.675,332.876 154.175,330.376 152,327.5C 148.452,320.901 144.286,314.735 139.5,309C 137.26,307.193 134.927,307.026 132.5,308.5C 134.456,306.478 135.956,304.145 137,301.5C 137.464,302.094 137.631,302.761 137.5,303.5C 163.589,307.26 186.756,300.26 207,282.5C 207.579,281.072 207.412,279.738 206.5,278.5C 206.435,278.062 206.601,277.728 207,277.5C 208.873,279.709 211.04,281.542 213.5,283C 212.906,283.464 212.239,283.631 211.5,283.5 Z"/></g>
<g><path style="opacity:1" fill="#f86362" d="M 192.5,319.5 C 190.72,325.78 186.72,329.947 180.5,332C 174.627,333.976 168.627,334.643 162.5,334C 160.004,332.669 158.004,330.836 156.5,328.5C 159.892,321.288 165.392,318.955 173,321.5C 175.752,320.414 178.252,318.914 180.5,317C 183.5,316.333 186.5,316.333 189.5,317C 190.942,317.377 191.942,318.21 192.5,319.5 Z"/></g>
<g><path style="opacity:1" fill="#4d0c10" d="M 192.5,319.5 C 191.942,318.21 190.942,317.377 189.5,317C 186.5,316.333 183.5,316.333 180.5,317C 178.252,318.914 175.752,320.414 173,321.5C 165.392,318.955 159.892,321.288 156.5,328.5C 152.468,321.626 147.801,315.126 142.5,309C 144.134,308.506 145.801,308.34 147.5,308.5C 148.673,310.504 150.34,312.004 152.5,313C 167.164,314.21 180.331,310.377 192,301.5C 193.879,299.473 195.046,297.14 195.5,294.5C 197.435,293.19 199.435,291.857 201.5,290.5C 201.833,290.833 202.167,291.167 202.5,291.5C 199.731,301.148 196.397,310.482 192.5,319.5 Z"/></g>
<g><path style="opacity:1" fill="#e8e2e1" d="M 195.5,294.5 C 195.046,297.14 193.879,299.473 192,301.5C 180.331,310.377 167.164,314.21 152.5,313C 150.34,312.004 148.673,310.504 147.5,308.5C 164.482,307.584 180.482,302.917 195.5,294.5 Z"/></g>
<g><path style="opacity:1" fill="#f9be99" d="M 137.5,303.5 C 137.631,302.761 137.464,302.094 137,301.5C 135.956,304.145 134.456,306.478 132.5,308.5C 132.44,309.043 132.107,309.376 131.5,309.5C 130.833,308.833 130.167,308.167 129.5,307.5C 122.882,310.95 115.715,312.95 108,313.5C 103.232,312.799 98.7316,311.299 94.5,309C 89.6945,304.321 88.8611,299.154 92,293.5C 102.031,282.95 114.198,279.116 128.5,282C 132.681,283.513 136.348,285.846 139.5,289C 139.698,294.109 139.032,298.942 137.5,303.5 Z"/></g>
<g><path style="opacity:1" fill="#b05531" d="M 149.5,263.5 C 155.319,262.307 159.986,263.974 163.5,268.5C 163.333,268.833 163.167,269.167 163,269.5C 155.589,263.568 149.256,264.568 144,272.5C 142.272,286.743 148.439,291.576 162.5,287C 164.305,286.028 165.972,284.861 167.5,283.5C 167.833,283.667 168.167,283.833 168.5,284C 163.392,289.713 157.059,291.713 149.5,290C 141.48,286.793 138.647,280.959 141,272.5C 143.362,268.973 146.196,265.973 149.5,263.5 Z"/></g>
<g><path style="opacity:1" fill="#f1a284" d="M 111.5,288.5 C 117.572,288.937 123.572,288.937 129.5,288.5C 128.703,299.63 122.703,305.297 111.5,305.5C 101.521,305.429 98.6878,300.762 103,291.5C 106.025,290.806 108.858,289.806 111.5,288.5 Z"/></g>
<g><path style="opacity:0.999" fill="#f7ab89" d="M 62.5,261.5 C 63.5,262.833 64.5,264.167 65.5,265.5C 66.9459,272.07 67.6126,278.736 67.5,285.5C 63.1476,285.154 59.4809,283.488 56.5,280.5C 58.1288,279.375 59.6288,278.041 61,276.5C 62.2503,271.58 62.7503,266.58 62.5,261.5 Z"/></g>
<g><path style="opacity:1" fill="#d0ccca" d="M 127.5,255.5 C 129,259.126 129.333,262.792 128.5,266.5C 127.14,267.18 125.807,267.847 124.5,268.5C 124.062,268.565 123.728,268.399 123.5,268C 125.75,264.022 127.083,259.855 127.5,255.5 Z"/></g>
<g><path style="opacity:1" fill="#f1a184" d="M 228.5,256.5 C 232.514,256.334 236.514,256.501 240.5,257C 247.339,266.879 244.673,272.879 232.5,275C 227.928,275.887 223.595,275.22 219.5,273C 218.477,269.788 216.81,266.954 214.5,264.5C 216.347,263.17 217.847,263.503 219,265.5C 220.981,262.255 223.814,260.089 227.5,259C 228.252,258.329 228.586,257.496 228.5,256.5 Z"/></g>
<g><path style="opacity:1" fill="#b3aca7" d="M 116.5,270.5 C 115.833,270.5 115.167,270.5 114.5,270.5C 111.351,270.789 108.351,270.289 105.5,269C 102.698,267.269 102.031,265.102 103.5,262.5C 106.24,268.223 110.573,269.889 116.5,267.5C 114.914,265.827 114.247,263.827 114.5,261.5C 116.621,261.325 118.621,261.659 120.5,262.5C 121.314,260.369 121.814,258.036 122,255.5C 124.055,261.828 122.222,266.828 116.5,270.5 Z"/></g>
<g><path style="opacity:0.998" fill="#aa532f" d="M 51.5,240.5 C 52.8202,242.463 54.1535,244.463 55.5,246.5C 51.9302,246.901 49.7636,248.901 49,252.5C 48.3421,248.975 49.5088,246.141 52.5,244C 48.6142,241.648 45.4476,242.481 43,246.5C 43.3166,241.385 46.15,239.385 51.5,240.5 Z"/></g>
<g><path style="opacity:1" fill="#f9caa0" d="M 46.5,232.5 C 48.1667,235.167 49.8333,237.833 51.5,240.5C 46.15,239.385 43.3166,241.385 43,246.5C 45.4476,242.481 48.6142,241.648 52.5,244C 49.5088,246.141 48.3421,248.975 49,252.5C 49.7636,248.901 51.9302,246.901 55.5,246.5C 58.3177,251.304 60.651,256.304 62.5,261.5C 62.7503,266.58 62.2503,271.58 61,276.5C 59.6288,278.041 58.1288,279.375 56.5,280.5C 52.933,278.443 49.7663,275.777 47,272.5C 39.1494,261.963 36.4828,250.297 39,237.5C 40.3296,233.993 42.8296,232.327 46.5,232.5 Z"/></g>
<g><path style="opacity:0.02" fill="#dfcfca" d="M 222.5,346.5 C 222.423,347.75 221.756,348.583 220.5,349C 222.431,349.902 224.097,351.069 225.5,352.5C 224.833,352.5 224.167,352.5 223.5,352.5C 220.899,351.199 218.232,349.866 215.5,348.5C 217.599,347.388 219.933,346.721 222.5,346.5 Z"/></g>
<g><path style="opacity:0.072" fill="#f5ece7" d="M 93.5,333.5 C 95.8123,334.32 98.1457,335.153 100.5,336C 110.712,343.772 122.045,349.439 134.5,353C 139.486,353.997 144.486,354.831 149.5,355.5C 149.611,356.117 149.944,356.617 150.5,357C 148.975,358.009 147.308,358.509 145.5,358.5C 132.364,354.3 119.364,349.133 106.5,343C 101.744,340.301 97.4109,337.134 93.5,333.5 Z"/></g>
<g><path style="opacity:0.994" fill="#f7b591" d="M 210.5,355.5 C 209.027,357.395 207.36,359.061 205.5,360.5C 201.67,362 197.67,362.667 193.5,362.5C 194.287,360.896 195.62,360.229 197.5,360.5C 197.5,358.5 197.5,356.5 197.5,354.5C 201.288,352.124 205.621,350.791 210.5,350.5C 210.5,352.167 210.5,353.833 210.5,355.5 Z"/></g>
<g><path style="opacity:0.204" fill="#cebaa8" d="M 225.5,352.5 C 232.37,354.312 239.37,355.478 246.5,356C 247.056,356.383 247.389,356.883 247.5,357.5C 242.549,356.772 237.549,356.272 232.5,356C 229.826,355.33 227.493,354.163 225.5,352.5 Z"/></g>
<g><path style="opacity:0.086" fill="#f2bb9a" d="M 195.5,355.5 C 191.299,356.104 187.299,357.27 183.5,359C 186.311,359.983 188.977,361.149 191.5,362.5C 188.273,362.324 185.273,361.657 182.5,360.5C 182.5,358.833 182.5,357.167 182.5,355.5C 187.018,354.876 191.352,354.876 195.5,355.5 Z"/></g>
<g><path style="opacity:0.882" fill="#733910" d="M 223.5,352.5 C 224.167,352.5 224.833,352.5 225.5,352.5C 227.493,354.163 229.826,355.33 232.5,356C 237.549,356.272 242.549,356.772 247.5,357.5C 247.833,357.5 248.167,357.5 248.5,357.5C 253.341,359.336 258.341,361.003 263.5,362.5C 263.833,362.5 264.167,362.5 264.5,362.5C 266.5,365.167 268.833,367.5 271.5,369.5C 271.427,371.027 272.094,372.027 273.5,372.5C 275.262,373.262 276.262,374.596 276.5,376.5C 276.5,377.167 276.5,377.833 276.5,378.5C 276.5,379.833 276.5,381.167 276.5,382.5C 273.355,378.234 270.188,373.901 267,369.5C 265.568,367.561 263.735,366.228 261.5,365.5C 252.553,361.949 243.219,359.783 233.5,359C 229.712,358.126 226.046,356.959 222.5,355.5C 222.557,354.391 222.89,353.391 223.5,352.5 Z"/></g>
<g><path style="opacity:0.018" fill="#e1d5cb" d="M 248.5,357.5 C 254.282,357.427 259.282,359.093 263.5,362.5C 258.341,361.003 253.341,359.336 248.5,357.5 Z"/></g>
<g><path style="opacity:0.901" fill="#814c28" d="M 149.5,355.5 C 151.801,356.06 154.134,356.56 156.5,357C 154.881,357.236 153.881,358.069 153.5,359.5C 144.229,361.928 137.063,367.262 132,375.5C 124.839,387.819 119.339,400.819 115.5,414.5C 113.81,414.144 112.81,413.144 112.5,411.5C 116.494,397.347 122.327,384.014 130,371.5C 133.947,365.624 139.113,361.291 145.5,358.5C 147.308,358.509 148.975,358.009 150.5,357C 149.944,356.617 149.611,356.117 149.5,355.5 Z"/></g>
<g><path style="opacity:1" fill="#c45d09" d="M 222.5,355.5 C 226.046,356.959 229.712,358.126 233.5,359C 243.219,359.783 252.553,361.949 261.5,365.5C 271.194,380.095 276.86,396.262 278.5,414C 277.877,420.571 274.877,425.904 269.5,430C 265.285,433.066 260.618,434.899 255.5,435.5C 255.25,433.326 254.25,431.659 252.5,430.5C 252.723,425.72 251.056,421.72 247.5,418.5C 245.779,412.166 243.946,405.833 242,399.5C 241.251,393.009 241.584,386.676 243,380.5C 239.943,384.112 238.443,388.279 238.5,393C 239.422,401.78 241.422,410.28 244.5,418.5C 243.833,418.5 243.167,418.5 242.5,418.5C 238.191,416.096 233.691,414.096 229,412.5C 202.023,417.812 179.689,430.812 162,451.5C 154.64,440.307 145.473,430.974 134.5,423.5C 136.144,408.922 139.644,394.922 145,381.5C 143.824,383.196 142.657,384.862 141.5,386.5C 137.866,390.411 134.699,394.744 132,399.5C 129.37,405.753 126.537,411.753 123.5,417.5C 120.62,417.06 117.954,416.06 115.5,414.5C 119.339,400.819 124.839,387.819 132,375.5C 137.063,367.262 144.229,361.928 153.5,359.5C 158.222,359.269 162.889,358.602 167.5,357.5C 168.739,357.942 169.739,358.609 170.5,359.5C 172.152,365.326 175.819,369.493 181.5,372C 191.841,374.416 201.841,373.416 211.5,369C 216.893,365.787 220.559,361.287 222.5,355.5 Z"/></g>
<g><path style="opacity:1" fill="#322114" d="M 215.5,348.5 C 218.232,349.866 220.899,351.199 223.5,352.5C 222.89,353.391 222.557,354.391 222.5,355.5C 220.559,361.287 216.893,365.787 211.5,369C 201.841,373.416 191.841,374.416 181.5,372C 175.819,369.493 172.152,365.326 170.5,359.5C 170.5,358.833 170.5,358.167 170.5,357.5C 171.496,357.414 172.329,357.748 173,358.5C 174.833,364.333 178.667,368.167 184.5,370C 197.748,372.736 208.915,369.236 218,359.5C 219.301,357.635 219.635,355.635 219,353.5C 218.282,352.549 217.449,352.383 216.5,353C 214.539,355.963 212.206,358.629 209.5,361C 207.934,361.765 206.601,361.598 205.5,360.5C 207.36,359.061 209.027,357.395 210.5,355.5C 212.506,353.32 214.173,350.987 215.5,348.5 Z"/></g>
<g><path style="opacity:0.008" fill="#f2edec" d="M 264.5,362.5 C 267.833,363.833 270.167,366.167 271.5,369.5C 268.833,367.5 266.5,365.167 264.5,362.5 Z"/></g>
<g><path style="opacity:0.999" fill="#493424" d="M 170.5,357.5 C 173.625,356.521 176.958,356.187 180.5,356.5C 180.229,358.38 180.896,359.713 182.5,360.5C 185.273,361.657 188.273,362.324 191.5,362.5C 192.167,362.5 192.833,362.5 193.5,362.5C 197.67,362.667 201.67,362 205.5,360.5C 206.601,361.598 207.934,361.765 209.5,361C 212.206,358.629 214.539,355.963 216.5,353C 217.449,352.383 218.282,352.549 219,353.5C 219.635,355.635 219.301,357.635 218,359.5C 208.915,369.236 197.748,372.736 184.5,370C 178.667,368.167 174.833,364.333 173,358.5C 172.329,357.748 171.496,357.414 170.5,357.5 Z"/></g>
<g><path style="opacity:0.075" fill="#ece6e3" d="M 271.5,369.5 C 272.906,369.973 273.573,370.973 273.5,372.5C 272.094,372.027 271.427,371.027 271.5,369.5 Z"/></g>
<g><path style="opacity:0.961" fill="#8a5735" d="M 276.5,378.5 C 277.473,380.139 278.806,381.473 280.5,382.5C 286.251,390.328 291.251,398.661 295.5,407.5C 294.365,408.103 293.365,408.436 292.5,408.5C 287.181,399.869 281.848,391.203 276.5,382.5C 276.5,381.167 276.5,379.833 276.5,378.5 Z"/></g>
<g><path style="opacity:0.063" fill="#ddd6ce" d="M 276.5,376.5 C 278.326,378.147 279.66,380.147 280.5,382.5C 278.806,381.473 277.473,380.139 276.5,378.5C 276.5,377.833 276.5,377.167 276.5,376.5 Z"/></g>
<g><path style="opacity:1" fill="#9e4706" d="M 261.5,365.5 C 263.735,366.228 265.568,367.561 267,369.5C 270.188,373.901 273.355,378.234 276.5,382.5C 281.848,391.203 287.181,399.869 292.5,408.5C 292.856,411.564 292.023,414.231 290,416.5C 284.802,422.033 279.302,427.2 273.5,432C 268.982,435.23 263.982,437.397 258.5,438.5C 256.825,438.132 255.825,437.132 255.5,435.5C 260.618,434.899 265.285,433.066 269.5,430C 274.877,425.904 277.877,420.571 278.5,414C 276.86,396.262 271.194,380.095 261.5,365.5 Z"/></g>
<g><path style="opacity:1" fill="#733506" d="M 247.5,418.5 C 246.5,418.5 245.5,418.5 244.5,418.5C 241.422,410.28 239.422,401.78 238.5,393C 238.443,388.279 239.943,384.112 243,380.5C 241.584,386.676 241.251,393.009 242,399.5C 243.946,405.833 245.779,412.166 247.5,418.5 Z"/></g>
<g><path style="opacity:1" fill="#723405" d="M 134.5,423.5 C 133.508,423.672 132.842,423.338 132.5,422.5C 132.971,409.792 135.971,397.792 141.5,386.5C 142.657,384.862 143.824,383.196 145,381.5C 139.644,394.922 136.144,408.922 134.5,423.5 Z"/></g>
<g><path style="opacity:1" fill="#9f4809" d="M 141.5,386.5 C 135.971,397.792 132.971,409.792 132.5,422.5C 129.008,421.59 126.008,419.924 123.5,417.5C 126.537,411.753 129.37,405.753 132,399.5C 134.699,394.744 137.866,390.411 141.5,386.5 Z"/></g>
<g><path style="opacity:0.384" fill="#d2baaa" d="M 295.5,407.5 C 295.609,412.28 296.942,416.947 299.5,421.5C 296.593,419.685 295.259,417.019 295.5,413.5C 295.5,411.5 295.5,409.5 295.5,407.5 Z"/></g>
<g><path style="opacity:1" fill="#f0ddd0" d="M 219.5,428.5 C 207.767,434.366 196.1,440.533 184.5,447C 180.008,449.998 175.675,453.165 171.5,456.5C 168.679,456.461 166.012,455.795 163.5,454.5C 172.14,443.694 182.473,434.861 194.5,428C 199.167,425.667 203.833,423.333 208.5,421C 210.833,420.333 213.167,420.333 215.5,421C 216.428,421.388 217.095,422.055 217.5,423C 207.236,428.134 197.236,433.801 187.5,440C 186.304,440.654 186.304,441.154 187.5,441.5C 195.514,436.491 203.848,431.991 212.5,428C 215.039,427.204 217.372,427.371 219.5,428.5 Z"/></g>
<g><path style="opacity:1" fill="#fbae8d" d="M 292.5,417.5 C 298.689,427.177 303.856,437.51 308,448.5C 308.667,451.5 308.667,454.5 308,457.5C 298.505,468.658 287.005,476.992 273.5,482.5C 273.453,479.031 272.787,475.698 271.5,472.5C 288.947,472.552 298.114,463.885 299,446.5C 297.231,444.383 295.398,442.383 293.5,440.5C 293.5,439.833 293.5,439.167 293.5,438.5C 290.751,433.445 286.418,430.779 280.5,430.5C 284.528,426.141 288.528,421.807 292.5,417.5 Z"/></g>
<g><path style="opacity:0.098" fill="#cbd1e4" d="M 92.5,422.5 C 91.0413,422.433 89.7079,422.766 88.5,423.5C 88.4176,421.748 89.2509,420.748 91,420.5C 92.0299,420.836 92.5299,421.503 92.5,422.5 Z"/></g>
<g><path style="opacity:1" fill="#71360c" d="M 295.5,407.5 C 295.5,409.5 295.5,411.5 295.5,413.5C 294.512,414.795 293.512,416.128 292.5,417.5C 288.528,421.807 284.528,426.141 280.5,430.5C 275.797,433.514 271.13,436.514 266.5,439.5C 265.391,439.557 264.391,439.89 263.5,440.5C 260.366,440.707 259.366,442.04 260.5,444.5C 260.5,444.833 260.5,445.167 260.5,445.5C 260.5,448.167 260.5,450.833 260.5,453.5C 259.85,453.196 259.183,452.863 258.5,452.5C 257.682,449.893 257.182,447.226 257,444.5C 256.8,442.68 255.966,441.347 254.5,440.5C 253.566,437.344 252.899,434.011 252.5,430.5C 254.25,431.659 255.25,433.326 255.5,435.5C 255.825,437.132 256.825,438.132 258.5,438.5C 263.982,437.397 268.982,435.23 273.5,432C 279.302,427.2 284.802,422.033 290,416.5C 292.023,414.231 292.856,411.564 292.5,408.5C 293.365,408.436 294.365,408.103 295.5,407.5 Z"/></g>
<g><path style="opacity:1" fill="#0b37ac" d="M 251.5,465.5 C 250.657,467.173 249.324,468.34 247.5,469C 243.916,470.073 240.25,470.74 236.5,471C 235.135,473.852 235.469,476.518 237.5,479C 235.768,482.568 236.601,485.401 240,487.5C 240.333,489.5 240.667,491.5 241,493.5C 244.68,495.743 248.18,498.076 251.5,500.5C 252.568,501.434 253.901,501.768 255.5,501.5C 255.911,505.463 255.078,509.13 253,512.5C 237.736,526.216 219.903,534.049 199.5,536C 196.213,532.707 193.713,528.873 192,524.5C 184.537,500.364 182.037,475.697 184.5,450.5C 203.236,439.129 222.902,429.963 243.5,423C 245.049,424.214 246.215,425.714 247,427.5C 249.046,440.109 250.546,452.776 251.5,465.5 Z"/></g>
<g><path style="opacity:0.036" fill="#f4e5e1" d="M 299.5,421.5 C 302.194,425.557 304.527,429.89 306.5,434.5C 302.936,430.909 300.602,426.575 299.5,421.5 Z"/></g>
<g><path style="opacity:1" fill="#123ecb" d="M 127.5,446.5 C 138.31,462.732 146.143,480.398 151,499.5C 151.999,506.15 152.333,512.817 152,519.5C 151.55,521.519 150.717,523.352 149.5,525C 136.925,530.364 124.925,529.53 113.5,522.5C 112.141,516.921 110.474,511.421 108.5,506C 110.382,505.802 112.048,505.302 113.5,504.5C 116.188,503.976 117.688,502.309 118,499.5C 119.955,498.547 121.622,497.213 123,495.5C 122.837,491.494 122.67,487.494 122.5,483.5C 121.5,482.833 120.5,482.167 119.5,481.5C 118.961,478.834 117.628,476.667 115.5,475C 109.869,474.954 104.536,473.787 99.5,471.5C 97.2179,456.869 94.2179,442.369 90.5,428C 90.8333,427.167 91.1667,426.333 91.5,425.5C 103.528,432.512 115.528,439.512 127.5,446.5 Z"/></g>
<g><path style="opacity:1" fill="#d1b9a9" d="M 112.5,411.5 C 112.81,413.144 113.81,414.144 115.5,414.5C 117.954,416.06 120.62,417.06 123.5,417.5C 126.008,419.924 129.008,421.59 132.5,422.5C 132.842,423.338 133.508,423.672 134.5,423.5C 145.473,430.974 154.64,440.307 162,451.5C 179.689,430.812 202.023,417.812 229,412.5C 233.691,414.096 238.191,416.096 242.5,418.5C 235.059,422.047 227.392,425.38 219.5,428.5C 217.372,427.371 215.039,427.204 212.5,428C 203.848,431.991 195.514,436.491 187.5,441.5C 186.304,441.154 186.304,440.654 187.5,440C 197.236,433.801 207.236,428.134 217.5,423C 217.095,422.055 216.428,421.388 215.5,421C 213.167,420.333 210.833,420.333 208.5,421C 203.833,423.333 199.167,425.667 194.5,428C 182.473,434.861 172.14,443.694 163.5,454.5C 166.012,455.795 168.679,456.461 171.5,456.5C 170.878,457.627 170.045,458.627 169,459.5C 163.953,456.898 158.953,456.898 154,459.5C 146.883,454.696 139.716,450.029 132.5,445.5C 133.5,445.5 134.5,445.5 135.5,445.5C 135.67,444.178 135.337,443.011 134.5,442C 123.624,434.728 112.29,428.228 100.5,422.5C 98.739,423.035 97.4057,424.035 96.5,425.5C 95.1283,424.488 93.795,423.488 92.5,422.5C 98.4932,417.733 105.16,414.066 112.5,411.5 Z"/></g>
<g><path style="opacity:1" fill="#eedacc" d="M 108.5,416.5 C 127.486,421.257 143.319,431.257 156,446.5C 157.953,449.255 159.12,452.255 159.5,455.5C 158.127,455.657 156.793,455.49 155.5,455C 140.095,441.606 123.095,430.606 104.5,422C 103.549,421.282 103.383,420.449 104,419.5C 105.652,418.601 107.152,417.601 108.5,416.5 Z"/></g>
<g><path style="opacity:0.944" fill="#f5c79c" d="M 280.5,430.5 C 286.418,430.779 290.751,433.445 293.5,438.5C 283.682,433.378 275.515,435.378 269,444.5C 267.628,443.09 266.795,441.423 266.5,439.5C 271.13,436.514 275.797,433.514 280.5,430.5 Z"/></g>
<g><path style="opacity:0.149" fill="#6b73ad" d="M 88.5,423.5 C 89.7278,433.197 91.0611,442.864 92.5,452.5C 90.185,443.866 88.185,435.033 86.5,426C 86.6842,424.624 87.3509,423.791 88.5,423.5 Z"/></g>
<g><path style="opacity:0.018" fill="#f3e4e0" d="M 306.5,434.5 C 308.352,437.551 309.686,440.884 310.5,444.5C 307.783,441.763 306.45,438.43 306.5,434.5 Z"/></g>
<g><path style="opacity:1" fill="#0b37ac" d="M 127.5,446.5 C 135.274,450.556 142.941,454.89 150.5,459.5C 157.349,488.906 164.016,518.406 170.5,548C 170.167,549.167 169.833,550.333 169.5,551.5C 152.698,541.345 134.698,534.345 115.5,530.5C 114.833,527.833 114.167,525.167 113.5,522.5C 124.925,529.53 136.925,530.364 149.5,525C 150.717,523.352 151.55,521.519 152,519.5C 152.333,512.817 151.999,506.15 151,499.5C 146.143,480.398 138.31,462.732 127.5,446.5 Z"/></g>
<g><path style="opacity:1" fill="#0f2d82" d="M 242.5,418.5 C 243.167,418.5 243.833,418.5 244.5,418.5C 245.5,418.5 246.5,418.5 247.5,418.5C 251.056,421.72 252.723,425.72 252.5,430.5C 252.899,434.011 253.566,437.344 254.5,440.5C 254.905,445.527 255.572,450.527 256.5,455.5C 256.719,459.879 255.052,463.213 251.5,465.5C 250.546,452.776 249.046,440.109 247,427.5C 246.215,425.714 245.049,424.214 243.5,423C 222.902,429.963 203.236,439.129 184.5,450.5C 182.037,475.697 184.537,500.364 192,524.5C 193.713,528.873 196.213,532.707 199.5,536C 219.903,534.049 237.736,526.216 253,512.5C 255.078,509.13 255.911,505.463 255.5,501.5C 253.901,501.768 252.568,501.434 251.5,500.5C 256.445,500.763 261.112,499.763 265.5,497.5C 266.386,498.325 266.719,499.325 266.5,500.5C 268.234,505.372 269.567,510.372 270.5,515.5C 268.073,515.523 265.74,516.023 263.5,517C 250.36,523.068 237.693,529.902 225.5,537.5C 224.5,538.167 223.5,538.833 222.5,539.5C 211.101,545.858 200.434,553.192 190.5,561.5C 186.204,562.463 181.871,562.629 177.5,562C 168.921,553.6 158.921,547.433 147.5,543.5C 146.791,542.596 145.791,542.263 144.5,542.5C 143.329,541.655 141.995,540.989 140.5,540.5C 135.432,538.033 130.099,536.367 124.5,535.5C 121.579,534.519 118.579,533.685 115.5,533C 113.65,532.31 112.316,531.144 111.5,529.5C 109.837,527.562 109.171,525.228 109.5,522.5C 109.346,517.711 108.013,513.378 105.5,509.5C 105.5,509.167 105.5,508.833 105.5,508.5C 105.5,507.167 105.5,505.833 105.5,504.5C 108.167,504.5 110.833,504.5 113.5,504.5C 112.048,505.302 110.382,505.802 108.5,506C 110.474,511.421 112.141,516.921 113.5,522.5C 114.167,525.167 114.833,527.833 115.5,530.5C 134.698,534.345 152.698,541.345 169.5,551.5C 169.833,550.333 170.167,549.167 170.5,548C 164.016,518.406 157.349,488.906 150.5,459.5C 142.941,454.89 135.274,450.556 127.5,446.5C 115.528,439.512 103.528,432.512 91.5,425.5C 91.1667,426.333 90.8333,427.167 90.5,428C 94.2179,442.369 97.2179,456.869 99.5,471.5C 98.8333,471.5 98.1667,471.5 97.5,471.5C 97.6716,470.508 97.3382,469.842 96.5,469.5C 96.7148,467.821 96.0481,466.821 94.5,466.5C 94.154,461.784 93.4873,457.117 92.5,452.5C 91.0611,442.864 89.7278,433.197 88.5,423.5C 89.7079,422.766 91.0413,422.433 92.5,422.5C 93.795,423.488 95.1283,424.488 96.5,425.5C 108.24,432.56 120.24,439.226 132.5,445.5C 139.716,450.029 146.883,454.696 154,459.5C 158.953,456.898 163.953,456.898 169,459.5C 170.045,458.627 170.878,457.627 171.5,456.5C 175.675,453.165 180.008,449.998 184.5,447C 196.1,440.533 207.767,434.366 219.5,428.5C 227.392,425.38 235.059,422.047 242.5,418.5 Z"/></g>
<g><path style="opacity:1" fill="#ebd9ce" d="M 132.5,445.5 C 120.24,439.226 108.24,432.56 96.5,425.5C 97.4057,424.035 98.739,423.035 100.5,422.5C 112.29,428.228 123.624,434.728 134.5,442C 135.337,443.011 135.67,444.178 135.5,445.5C 134.5,445.5 133.5,445.5 132.5,445.5 Z"/></g>
<g><path style="opacity:1" fill="#0b37ab" d="M 173.5,548.5 C 175.516,551.144 178.183,551.977 181.5,551C 182.848,549.426 183.514,547.593 183.5,545.5C 176.068,518.679 170.401,491.345 166.5,463.5C 168.416,461.884 169.916,462.218 171,464.5C 175.59,495.787 182.09,526.621 190.5,557C 190.095,557.945 189.428,558.612 188.5,559C 178.841,561.853 173.841,558.353 173.5,548.5 Z"/></g>
<g><path style="opacity:1" fill="#103dcb" d="M 166.5,463.5 C 170.401,491.345 176.068,518.679 183.5,545.5C 183.514,547.593 182.848,549.426 181.5,551C 178.183,551.977 175.516,551.144 173.5,548.5C 166.957,520.59 160.624,492.59 154.5,464.5C 158.387,464.786 162.387,464.453 166.5,463.5 Z"/></g>
<g><path style="opacity:0.998" fill="#f6bd96" d="M 96.5,469.5 C 97.3382,469.842 97.6716,470.508 97.5,471.5C 98.6728,473.504 100.34,475.004 102.5,476C 106.167,476.333 109.833,476.667 113.5,477C 115.037,478.11 115.703,479.61 115.5,481.5C 109.71,481.904 104.044,481.404 98.5,480C 94.8748,477.794 93.7081,474.627 95,470.5C 95.3826,469.944 95.8826,469.611 96.5,469.5 Z"/></g>
<g><path style="opacity:1" fill="#a84d2b" d="M 295.5,413.5 C 295.259,417.019 296.593,419.685 299.5,421.5C 300.602,426.575 302.936,430.909 306.5,434.5C 306.45,438.43 307.783,441.763 310.5,444.5C 310.766,447.666 311.099,450.833 311.5,454C 311.74,456.891 310.907,459.391 309,461.5C 299.164,471.5 287.998,479.666 275.5,486C 274.877,489.454 273.211,492.287 270.5,494.5C 268.31,495.975 266.977,497.975 266.5,500.5C 266.719,499.325 266.386,498.325 265.5,497.5C 261.112,499.763 256.445,500.763 251.5,500.5C 248.18,498.076 244.68,495.743 241,493.5C 240.667,491.5 240.333,489.5 240,487.5C 236.601,485.401 235.768,482.568 237.5,479C 235.469,476.518 235.135,473.852 236.5,471C 240.25,470.74 243.916,470.073 247.5,469C 249.324,468.34 250.657,467.173 251.5,465.5C 255.052,463.213 256.719,459.879 256.5,455.5C 255.572,450.527 254.905,445.527 254.5,440.5C 255.966,441.347 256.8,442.68 257,444.5C 257.182,447.226 257.682,449.893 258.5,452.5C 259.183,452.863 259.85,453.196 260.5,453.5C 260.56,454.043 260.893,454.376 261.5,454.5C 262.705,453.423 263.372,452.09 263.5,450.5C 263.511,448.983 264.177,447.816 265.5,447C 264.177,446.184 263.511,445.017 263.5,443.5C 263.5,442.5 263.5,441.5 263.5,440.5C 264.391,439.89 265.391,439.557 266.5,439.5C 266.795,441.423 267.628,443.09 269,444.5C 275.515,435.378 283.682,433.378 293.5,438.5C 293.5,439.167 293.5,439.833 293.5,440.5C 288.985,438.721 284.318,438.221 279.5,439C 273.057,443.44 268.057,449.107 264.5,456C 268.339,460.846 270.672,466.346 271.5,472.5C 272.787,475.698 273.453,479.031 273.5,482.5C 287.005,476.992 298.505,468.658 308,457.5C 308.667,454.5 308.667,451.5 308,448.5C 303.856,437.51 298.689,427.177 292.5,417.5C 293.512,416.128 294.512,414.795 295.5,413.5 Z M 263.5,443.5 C 263.511,445.017 264.177,446.184 265.5,447C 264.177,447.816 263.511,448.983 263.5,450.5C 262.883,450.611 262.383,450.944 262,451.5C 261.809,449.292 261.309,447.292 260.5,445.5C 260.5,445.167 260.5,444.833 260.5,444.5C 261.209,443.596 262.209,443.263 263.5,443.5 Z"/></g>
<g><path style="opacity:1" fill="#f8ab89" d="M 258.5,493.5 C 259.721,494.465 261.054,494.298 262.5,493C 265.956,490.395 267.289,486.895 266.5,482.5C 266.441,476.599 265.274,470.932 263,465.5C 262.065,462.405 260.231,460.071 257.5,458.5C 257.351,457.448 257.517,456.448 258,455.5C 264.133,459.086 267.799,464.42 269,471.5C 275.714,490.278 269.214,498.611 249.5,496.5C 252.647,495.815 255.647,494.815 258.5,493.5 Z"/></g>
<g><path style="opacity:1" fill="#fac69d" d="M 257.5,458.5 C 260.231,460.071 262.065,462.405 263,465.5C 265.274,470.932 266.441,476.599 266.5,482.5C 267.289,486.895 265.956,490.395 262.5,493C 261.054,494.298 259.721,494.465 258.5,493.5C 260.903,492.165 262.236,490.498 262.5,488.5C 257.232,492.753 251.232,494.253 244.5,493C 243.167,491.667 243.167,490.333 244.5,489C 249.096,488.536 253.429,487.203 257.5,485C 259.616,483.829 260.282,482.329 259.5,480.5C 253.977,485.117 247.644,486.617 240.5,485C 239.167,483.667 239.167,482.333 240.5,481C 245.925,481.178 250.925,479.845 255.5,477C 258.129,472.643 257.462,472.309 253.5,476C 249.239,477.363 244.905,477.696 240.5,477C 238.963,475.89 238.297,474.39 238.5,472.5C 249.396,473.896 255.729,469.229 257.5,458.5 Z"/></g>
<g><path style="opacity:0.329" fill="#d4beb2" d="M 260.5,445.5 C 261.309,447.292 261.809,449.292 262,451.5C 262.383,450.944 262.883,450.611 263.5,450.5C 263.372,452.09 262.705,453.423 261.5,454.5C 260.893,454.376 260.56,454.043 260.5,453.5C 260.5,450.833 260.5,448.167 260.5,445.5 Z"/></g>
<g><path style="opacity:0.173" fill="#e9e4df" d="M 263.5,440.5 C 263.5,441.5 263.5,442.5 263.5,443.5C 262.209,443.263 261.209,443.596 260.5,444.5C 259.366,442.04 260.366,440.707 263.5,440.5 Z"/></g>
<g><path style="opacity:1" fill="#fccfa5" d="M 293.5,440.5 C 295.398,442.383 297.231,444.383 299,446.5C 298.114,463.885 288.947,472.552 271.5,472.5C 270.672,466.346 268.339,460.846 264.5,456C 268.057,449.107 273.057,443.44 279.5,439C 284.318,438.221 288.985,438.721 293.5,440.5 Z"/></g>
<g><path style="opacity:0.03" fill="#f3e9e4" d="M 310.5,444.5 C 312.006,447.356 312.672,450.523 312.5,454C 312.557,456.96 312.057,459.793 311,462.5C 300.987,472.757 289.487,480.923 276.5,487C 274.591,491.074 272.924,495.24 271.5,499.5C 270.549,498.081 270.216,496.415 270.5,494.5C 273.211,492.287 274.877,489.454 275.5,486C 287.998,479.666 299.164,471.5 309,461.5C 310.907,459.391 311.74,456.891 311.5,454C 311.099,450.833 310.766,447.666 310.5,444.5 Z"/></g>
<g><path style="opacity:0.027" fill="#fbf9f8" d="M 91.5,478.5 C 93.5869,479.585 94.9202,481.251 95.5,483.5C 93.4131,482.415 92.0798,480.749 91.5,478.5 Z"/></g>
<g><path style="opacity:0.983" fill="#ab5130" d="M 94.5,466.5 C 96.0481,466.821 96.7148,467.821 96.5,469.5C 95.8826,469.611 95.3826,469.944 95,470.5C 93.7081,474.627 94.8748,477.794 98.5,480C 104.044,481.404 109.71,481.904 115.5,481.5C 115.703,479.61 115.037,478.11 113.5,477C 109.833,476.667 106.167,476.333 102.5,476C 100.34,475.004 98.6728,473.504 97.5,471.5C 98.1667,471.5 98.8333,471.5 99.5,471.5C 104.536,473.787 109.869,474.954 115.5,475C 117.628,476.667 118.961,478.834 119.5,481.5C 120.5,482.167 121.5,482.833 122.5,483.5C 122.67,487.494 122.837,491.494 123,495.5C 121.622,497.213 119.955,498.547 118,499.5C 117.688,502.309 116.188,503.976 113.5,504.5C 110.833,504.5 108.167,504.5 105.5,504.5C 104.5,502.833 103.167,501.5 101.5,500.5C 99.6871,496.789 98.5204,492.789 98,488.5C 97.2917,487.619 96.4584,486.953 95.5,486.5C 95.5,485.5 95.5,484.5 95.5,483.5C 94.9202,481.251 93.5869,479.585 91.5,478.5C 90.3659,476.034 90.1993,473.367 91,470.5C 91.66,468.676 92.8267,467.343 94.5,466.5 Z"/></g>
<g><path style="opacity:1" fill="#f8bf98" d="M 99.5,483.5 C 105.002,484.75 110.502,484.75 116,483.5C 118.264,483.854 120.098,484.854 121.5,486.5C 120.91,487.799 119.91,488.632 118.5,489C 113.833,489.667 109.167,489.667 104.5,489C 101.293,488.428 99.6263,486.595 99.5,483.5 Z"/></g>
<g><path style="opacity:1" fill="#f8bf97" d="M 101.5,491.5 C 107.797,492.32 114.131,492.653 120.5,492.5C 120.67,493.822 120.337,494.989 119.5,496C 114.5,496.667 109.5,496.667 104.5,496C 102.137,495.411 101.137,493.911 101.5,491.5 Z"/></g>
<g><path style="opacity:0.021" fill="#f6ece9" d="M 95.5,486.5 C 96.4584,486.953 97.2917,487.619 98,488.5C 98.5204,492.789 99.6871,496.789 101.5,500.5C 100.571,499.064 99.4048,497.731 98,496.5C 97.6972,493.001 96.8638,489.668 95.5,486.5 Z"/></g>
<g><path style="opacity:0.054" fill="#e5e0e3" d="M 101.5,500.5 C 103.167,501.5 104.5,502.833 105.5,504.5C 105.5,505.833 105.5,507.167 105.5,508.5C 103.759,506.076 102.425,503.41 101.5,500.5 Z"/></g>
<g><path style="opacity:0.102" fill="#cdd3e3" d="M 105.5,509.5 C 108.013,513.378 109.346,517.711 109.5,522.5C 107.796,518.383 106.463,514.049 105.5,509.5 Z"/></g>
<g><path style="opacity:1" fill="#bf5b0d" d="M 270.5,515.5 C 272.125,518.65 272.458,521.983 271.5,525.5C 257.625,535.468 242.292,539.468 225.5,537.5C 237.693,529.902 250.36,523.068 263.5,517C 265.74,516.023 268.073,515.523 270.5,515.5 Z"/></g>
<g><path style="opacity:0.135" fill="#ebe3dd" d="M 272.5,507.5 C 275.57,514.138 276.57,521.138 275.5,528.5C 273.572,530.05 271.739,531.717 270,533.5C 270.046,536.8 270.212,540.134 270.5,543.5C 269.213,539.687 268.213,535.687 267.5,531.5C 270.075,530.432 272.242,528.765 274,526.5C 274.081,520.139 273.581,513.806 272.5,507.5 Z"/></g>
<g><path style="opacity:0.177" fill="#eff0f4" d="M 111.5,529.5 C 112.316,531.144 113.65,532.31 115.5,533C 118.579,533.685 121.579,534.519 124.5,535.5C 124.5,536.167 124.167,536.5 123.5,536.5C 120.126,536.326 116.793,535.826 113.5,535C 112.139,533.416 111.472,531.582 111.5,529.5 Z"/></g>
<g><path style="opacity:1" fill="#71380f" d="M 270.5,494.5 C 270.216,496.415 270.549,498.081 271.5,499.5C 272.388,502.054 272.721,504.721 272.5,507.5C 273.581,513.806 274.081,520.139 274,526.5C 272.242,528.765 270.075,530.432 267.5,531.5C 266.5,531.833 265.833,532.5 265.5,533.5C 259.162,535.502 252.829,537.502 246.5,539.5C 245.209,539.263 244.209,539.596 243.5,540.5C 241.167,540.5 238.833,540.5 236.5,540.5C 235.5,540.5 234.5,540.5 233.5,540.5C 229.629,540.815 225.962,540.482 222.5,539.5C 223.5,538.833 224.5,538.167 225.5,537.5C 242.292,539.468 257.625,535.468 271.5,525.5C 272.458,521.983 272.125,518.65 270.5,515.5C 269.567,510.372 268.234,505.372 266.5,500.5C 266.977,497.975 268.31,495.975 270.5,494.5 Z"/></g>
<g><path style="opacity:1" fill="#775339" d="M 265.5,533.5 C 266.164,538.473 266.497,543.473 266.5,548.5C 258.345,548.569 251.679,545.569 246.5,539.5C 252.829,537.502 259.162,535.502 265.5,533.5 Z"/></g>
<g><path style="opacity:0.09" fill="#b3ada6" d="M 123.5,576.5 C 123.666,581.179 123.499,585.845 123,590.5C 122.79,592.058 122.29,593.391 121.5,594.5C 121.918,588.331 122.585,582.331 123.5,576.5 Z"/></g>
<g><path style="opacity:0.993" fill="#543d2b" d="M 267.5,531.5 C 268.213,535.687 269.213,539.687 270.5,543.5C 270.334,550.841 270.5,558.174 271,565.5C 276.219,583.573 277.552,601.906 275,620.5C 272.914,623.094 270.414,625.094 267.5,626.5C 266.29,626.932 265.29,627.599 264.5,628.5C 257.367,630.363 250.367,632.363 243.5,634.5C 236.191,635.248 228.858,635.582 221.5,635.5C 220.5,635.5 219.5,635.5 218.5,635.5C 213.367,635.511 208.867,633.845 205,630.5C 201.068,622.002 197.568,613.335 194.5,604.5C 193,611.5 191.5,618.5 190,625.5C 187.358,627.568 184.525,629.235 181.5,630.5C 180.005,630.989 178.671,631.655 177.5,632.5C 170.556,633.688 163.556,634.355 156.5,634.5C 148.654,633.622 140.987,631.955 133.5,629.5C 132.791,628.596 131.791,628.263 130.5,628.5C 126.733,626.443 123.067,624.109 119.5,621.5C 118.791,612.35 119.457,603.35 121.5,594.5C 122.29,593.391 122.79,592.058 123,590.5C 123.499,585.845 123.666,581.179 123.5,576.5C 123.5,563.167 123.5,549.833 123.5,536.5C 124.167,536.5 124.5,536.167 124.5,535.5C 130.099,536.367 135.432,538.033 140.5,540.5C 137.071,545.218 132.404,547.885 126.5,548.5C 126.5,549.833 126.5,551.167 126.5,552.5C 133.706,551.285 139.706,547.951 144.5,542.5C 145.791,542.263 146.791,542.596 147.5,543.5C 142.016,550.075 135.016,553.742 126.5,554.5C 127.339,571.993 126.173,589.327 123,606.5C 119.716,616.32 122.883,622.82 132.5,626C 136.447,627.484 140.447,628.65 144.5,629.5C 156.533,632.592 168.533,632.092 180.5,628C 183.249,626.877 185.749,625.377 188,623.5C 190.573,613.978 191.573,604.312 191,594.5C 187.24,584.474 182.074,575.307 175.5,567C 176.094,566.536 176.761,566.369 177.5,566.5C 180.168,568.336 182.334,570.669 184,573.5C 192.921,591.776 200.754,610.443 207.5,629.5C 209.22,630.934 211.22,631.767 213.5,632C 218.489,632.499 223.489,632.666 228.5,632.5C 242.593,632.418 255.927,629.251 268.5,623C 269.667,621.833 270.833,620.667 272,619.5C 273.609,610.602 273.942,601.602 273,592.5C 270.974,581.572 269.474,570.572 268.5,559.5C 265.391,559.736 262.391,559.403 259.5,558.5C 250.8,555.984 243.133,551.65 236.5,545.5C 235.752,543.668 234.752,542.001 233.5,540.5C 234.5,540.5 235.5,540.5 236.5,540.5C 244.507,550.337 254.84,555.67 267.5,556.5C 267.5,554.833 267.5,553.167 267.5,551.5C 257.941,551.051 249.941,547.385 243.5,540.5C 244.209,539.596 245.209,539.263 246.5,539.5C 251.679,545.569 258.345,548.569 266.5,548.5C 266.497,543.473 266.164,538.473 265.5,533.5C 265.833,532.5 266.5,531.833 267.5,531.5 Z"/></g>
<g><path style="opacity:1" fill="#79563c" d="M 177.5,566.5 C 176.761,566.369 176.094,566.536 175.5,567C 182.074,575.307 187.24,584.474 191,594.5C 191.573,604.312 190.573,613.978 188,623.5C 185.749,625.377 183.249,626.877 180.5,628C 168.533,632.092 156.533,632.592 144.5,629.5C 154.34,630.666 163.673,629.166 172.5,625C 178.219,620.349 179.885,614.516 177.5,607.5C 175.902,608.485 174.235,608.651 172.5,608C 177.589,603.99 180.089,598.824 180,592.5C 178.954,594.09 177.787,595.59 176.5,597C 175.517,597.591 174.85,597.257 174.5,596C 175.623,587.536 175.79,579.036 175,570.5C 174.167,568.833 173.333,567.167 172.5,565.5C 174.439,564.366 176.105,564.7 177.5,566.5 Z"/></g>
<g><path style="opacity:1" fill="#7a563c" d="M 259.5,558.5 C 262.391,559.403 265.391,559.736 268.5,559.5C 269.474,570.572 270.974,581.572 273,592.5C 273.942,601.602 273.609,610.602 272,619.5C 270.833,620.667 269.667,621.833 268.5,623C 255.927,629.251 242.593,632.418 228.5,632.5C 243.411,629.928 254.411,621.928 261.5,608.5C 258.901,607.969 256.235,607.802 253.5,608C 255.759,606.285 257.926,604.452 260,602.5C 259.538,595.399 256.705,589.232 251.5,584C 254.394,584.754 257.394,585.587 260.5,586.5C 260.65,577.143 260.317,567.809 259.5,558.5 Z"/></g>
<g><path style="opacity:1" fill="#896547" d="M 236.5,540.5 C 238.833,540.5 241.167,540.5 243.5,540.5C 249.941,547.385 257.941,551.051 267.5,551.5C 267.5,553.167 267.5,554.833 267.5,556.5C 254.84,555.67 244.507,550.337 236.5,540.5 Z"/></g>
<g><path style="opacity:1" fill="#9a7352" d="M 147.5,543.5 C 158.921,547.433 168.921,553.6 177.5,562C 181.871,562.629 186.204,562.463 190.5,561.5C 196.081,560.918 201.414,559.418 206.5,557C 213.48,553.367 220.48,549.7 227.5,546C 230.482,545.502 233.482,545.335 236.5,545.5C 243.133,551.65 250.8,555.984 259.5,558.5C 260.317,567.809 260.65,577.143 260.5,586.5C 257.394,585.587 254.394,584.754 251.5,584C 256.705,589.232 259.538,595.399 260,602.5C 257.926,604.452 255.759,606.285 253.5,608C 256.235,607.802 258.901,607.969 261.5,608.5C 254.411,621.928 243.411,629.928 228.5,632.5C 223.489,632.666 218.489,632.499 213.5,632C 211.22,631.767 209.22,630.934 207.5,629.5C 200.754,610.443 192.921,591.776 184,573.5C 182.334,570.669 180.168,568.336 177.5,566.5C 176.105,564.7 174.439,564.366 172.5,565.5C 173.333,567.167 174.167,568.833 175,570.5C 175.79,579.036 175.623,587.536 174.5,596C 174.85,597.257 175.517,597.591 176.5,597C 177.787,595.59 178.954,594.09 180,592.5C 180.089,598.824 177.589,603.99 172.5,608C 174.235,608.651 175.902,608.485 177.5,607.5C 179.885,614.516 178.219,620.349 172.5,625C 163.673,629.166 154.34,630.666 144.5,629.5C 140.447,628.65 136.447,627.484 132.5,626C 122.883,622.82 119.716,616.32 123,606.5C 126.173,589.327 127.339,571.993 126.5,554.5C 135.016,553.742 142.016,550.075 147.5,543.5 Z"/></g>
<g><path style="opacity:1" fill="#78553c" d="M 222.5,539.5 C 225.962,540.482 229.629,540.815 233.5,540.5C 234.752,542.001 235.752,543.668 236.5,545.5C 233.482,545.335 230.482,545.502 227.5,546C 220.48,549.7 213.48,553.367 206.5,557C 201.414,559.418 196.081,560.918 190.5,561.5C 200.434,553.192 211.101,545.858 222.5,539.5 Z"/></g>
<g><path style="opacity:1" fill="#906c4d" d="M 140.5,540.5 C 141.995,540.989 143.329,541.655 144.5,542.5C 139.706,547.951 133.706,551.285 126.5,552.5C 126.5,551.167 126.5,549.833 126.5,548.5C 132.404,547.885 137.071,545.218 140.5,540.5 Z"/></g>
<g><path style="opacity:0.034" fill="#edeae7" d="M 119.5,621.5 C 123.067,624.109 126.733,626.443 130.5,628.5C 130.5,628.833 130.5,629.167 130.5,629.5C 130.167,629.5 129.833,629.5 129.5,629.5C 127.193,628.347 124.86,627.18 122.5,626C 120.859,624.871 119.859,623.371 119.5,621.5 Z"/></g>
<g><path style="opacity:0.954" fill="#a54825" d="M 130.5,628.5 C 131.791,628.263 132.791,628.596 133.5,629.5C 133.5,633.5 133.5,637.5 133.5,641.5C 133.662,643.527 133.495,645.527 133,647.5C 131.622,641.568 130.789,635.568 130.5,629.5C 130.5,629.167 130.5,628.833 130.5,628.5 Z"/></g>
<g><path style="opacity:1" fill="#faad8c" d="M 264.5,628.5 C 265.331,639.659 265.831,650.993 266,662.5C 267.442,669.096 268.276,675.763 268.5,682.5C 265.416,684.537 262.083,686.203 258.5,687.5C 256.272,674.954 255.105,662.287 255,649.5C 253.071,642.946 249.238,637.946 243.5,634.5C 250.367,632.363 257.367,630.363 264.5,628.5 Z"/></g>
<g><path style="opacity:1" fill="#fccfa5" d="M 133.5,629.5 C 140.987,631.955 148.654,633.622 156.5,634.5C 159.713,638.259 161.879,642.592 163,647.5C 164.257,662.473 164.757,677.473 164.5,692.5C 155.361,692.928 146.361,692.261 137.5,690.5C 137.746,678.803 137.413,667.136 136.5,655.5C 135.491,650.717 134.491,646.05 133.5,641.5C 133.5,637.5 133.5,633.5 133.5,629.5 Z"/></g>
<g><path style="opacity:1" fill="#fcaf8e" d="M 177.5,632.5 C 179.257,651.486 179.591,670.486 178.5,689.5C 173.985,691.052 169.318,692.052 164.5,692.5C 164.757,677.473 164.257,662.473 163,647.5C 161.879,642.592 159.713,638.259 156.5,634.5C 163.556,634.355 170.556,633.688 177.5,632.5 Z"/></g>
<g><path style="opacity:1" fill="#fccfa5" d="M 243.5,634.5 C 249.238,637.946 253.071,642.946 255,649.5C 255.105,662.287 256.272,674.954 258.5,687.5C 248.123,690.107 237.79,690.107 227.5,687.5C 226.336,675.53 225.503,663.53 225,651.5C 223.932,646.134 222.766,640.801 221.5,635.5C 228.858,635.582 236.191,635.248 243.5,634.5 Z"/></g>
<g><path style="opacity:0.125" fill="#eee8e5" d="M 218.5,635.5 C 220.014,641.406 221.014,647.406 221.5,653.5C 220.036,648.702 218.869,643.702 218,638.5C 213.776,637.355 209.609,636.022 205.5,634.5C 201.447,627.062 197.947,619.395 195,611.5C 194.277,616.896 193.277,622.229 192,627.5C 189.711,630.062 186.877,631.729 183.5,632.5C 182.503,639.468 182.17,646.468 182.5,653.5C 182.167,653.5 181.833,653.5 181.5,653.5C 181.5,645.833 181.5,638.167 181.5,630.5C 184.525,629.235 187.358,627.568 190,625.5C 191.5,618.5 193,611.5 194.5,604.5C 197.568,613.335 201.068,622.002 205,630.5C 208.867,633.845 213.367,635.511 218.5,635.5 Z"/></g>
<g><path style="opacity:0.824" fill="#c57c60" d="M 129.5,629.5 C 129.833,629.5 130.167,629.5 130.5,629.5C 130.789,635.568 131.622,641.568 133,647.5C 133.495,645.527 133.662,643.527 133.5,641.5C 134.491,646.05 135.491,650.717 136.5,655.5C 135.59,653.981 134.757,652.315 134,650.5C 133.783,655.375 134.283,660.208 135.5,665C 135.088,668.027 134.421,670.86 133.5,673.5C 132.042,658.864 130.708,644.197 129.5,629.5 Z"/></g>
<g><path style="opacity:0.868" fill="#b05a38" d="M 218.5,635.5 C 219.5,635.5 220.5,635.5 221.5,635.5C 222.766,640.801 223.932,646.134 225,651.5C 225.503,663.53 226.336,675.53 227.5,687.5C 226.833,687.5 226.167,687.5 225.5,687.5C 225.208,679.925 224.208,672.592 222.5,665.5C 221.57,661.6 221.237,657.6 221.5,653.5C 221.014,647.406 220.014,641.406 218.5,635.5 Z"/></g>
<g><path style="opacity:0.061" fill="#e8e0db" d="M 270.5,543.5 C 271.561,559.172 273.727,574.838 277,590.5C 277.667,600.833 277.667,611.167 277,621.5C 275.333,624.5 273,626.833 270,628.5C 269.216,643.216 269.716,657.882 271.5,672.5C 270.316,668.539 269.316,664.539 268.5,660.5C 267.706,649.185 267.373,637.852 267.5,626.5C 270.414,625.094 272.914,623.094 275,620.5C 277.552,601.906 276.219,583.573 271,565.5C 270.5,558.174 270.334,550.841 270.5,543.5 Z"/></g>
<g><path style="opacity:0.882" fill="#af6f5d" d="M 268.5,660.5 C 269.316,664.539 270.316,668.539 271.5,672.5C 271.5,673.167 271.5,673.833 271.5,674.5C 271.5,681.833 271.5,689.167 271.5,696.5C 271.167,696.5 270.833,696.5 270.5,696.5C 270.5,691.5 270.5,686.5 270.5,681.5C 269.541,674.532 268.874,667.532 268.5,660.5 Z"/></g>
<g><path style="opacity:0.996" fill="#a84e2c" d="M 181.5,630.5 C 181.5,638.167 181.5,645.833 181.5,653.5C 181.695,665.19 181.361,676.856 180.5,688.5C 179.833,688.833 179.167,689.167 178.5,689.5C 179.591,670.486 179.257,651.486 177.5,632.5C 178.671,631.655 180.005,630.989 181.5,630.5 Z"/></g>
<g><path style="opacity:0.998" fill="#a54724" d="M 267.5,626.5 C 267.373,637.852 267.706,649.185 268.5,660.5C 268.874,667.532 269.541,674.532 270.5,681.5C 269.833,681.833 269.167,682.167 268.5,682.5C 268.276,675.763 267.442,669.096 266,662.5C 265.831,650.993 265.331,639.659 264.5,628.5C 265.29,627.599 266.29,626.932 267.5,626.5 Z"/></g>
<g><path style="opacity:0.418" fill="#c7907c" d="M 181.5,653.5 C 181.833,653.5 182.167,653.5 182.5,653.5C 182.5,654.833 182.5,656.167 182.5,657.5C 182.666,666.173 182.5,674.84 182,683.5C 181.814,686.036 181.314,688.369 180.5,690.5C 180.5,689.833 180.5,689.167 180.5,688.5C 181.361,676.856 181.695,665.19 181.5,653.5 Z"/></g>
<g><path style="opacity:0.736" fill="#a94a27" d="M 136.5,655.5 C 137.413,667.136 137.746,678.803 137.5,690.5C 136.5,690.5 135.5,690.5 134.5,690.5C 134.24,684.828 133.907,679.161 133.5,673.5C 134.421,670.86 135.088,668.027 135.5,665C 134.283,660.208 133.783,655.375 134,650.5C 134.757,652.315 135.59,653.981 136.5,655.5 Z"/></g>
<g><path style="opacity:0.392" fill="#c28672" d="M 222.5,665.5 C 224.208,672.592 225.208,679.925 225.5,687.5C 225.5,689.833 225.5,692.167 225.5,694.5C 223.839,685.049 222.839,675.382 222.5,665.5 Z"/></g>
<g><path style="opacity:0.986" fill="#5d0c0c" d="M 180.5,688.5 C 180.5,689.167 180.5,689.833 180.5,690.5C 179.878,694.946 178.878,699.279 177.5,703.5C 175.374,704.048 173.374,704.715 171.5,705.5C 170.833,705.5 170.167,705.5 169.5,705.5C 159.815,705.578 150.148,705.245 140.5,704.5C 140.167,704.5 139.833,704.5 139.5,704.5C 138.081,703.549 136.415,703.216 134.5,703.5C 134.5,699.167 134.5,694.833 134.5,690.5C 135.5,690.5 136.5,690.5 137.5,690.5C 146.361,692.261 155.361,692.928 164.5,692.5C 169.318,692.052 173.985,691.052 178.5,689.5C 179.167,689.167 179.833,688.833 180.5,688.5 Z"/></g>
<g><path style="opacity:1" fill="#8f0404" d="M 137.5,693.5 C 146.051,695.249 154.718,695.916 163.5,695.5C 163.5,698.167 163.5,700.833 163.5,703.5C 154.741,703.809 146.075,703.142 137.5,701.5C 137.5,698.833 137.5,696.167 137.5,693.5 Z"/></g>
<g><path style="opacity:0.078" fill="#f5f1f1" d="M 182.5,657.5 C 183.658,666.991 183.825,676.658 183,686.5C 180.51,698.129 178.176,709.796 176,721.5C 175.352,726.204 175.519,730.871 176.5,735.5C 176.167,735.5 175.833,735.5 175.5,735.5C 175.167,734.167 174.833,732.833 174.5,731.5C 174.557,729.116 174.223,726.782 173.5,724.5C 175.352,717.576 176.685,710.576 177.5,703.5C 178.878,699.279 179.878,694.946 180.5,690.5C 181.314,688.369 181.814,686.036 182,683.5C 182.5,674.84 182.666,666.173 182.5,657.5 Z"/></g>
<g><path style="opacity:1" fill="#d3caca" d="M 268.5,697.5 C 267.713,707.146 267.38,716.812 267.5,726.5C 266.086,728.811 264.253,730.811 262,732.5C 258.673,729.846 254.839,728.846 250.5,729.5C 253.287,728.523 256.287,728.19 259.5,728.5C 259.5,719.833 259.5,711.167 259.5,702.5C 258.167,702.5 256.833,702.5 255.5,702.5C 259.892,701.208 264.226,699.541 268.5,697.5 Z"/></g>
<g><path style="opacity:0.01" fill="#ede8e6" d="M 225.5,694.5 C 226.795,696.979 227.795,699.646 228.5,702.5C 228.5,703.833 228.5,705.167 228.5,706.5C 226.584,702.837 225.584,698.837 225.5,694.5 Z"/></g>
<g><path style="opacity:1" fill="#5b0b0b" d="M 270.5,681.5 C 270.5,686.5 270.5,691.5 270.5,696.5C 269.508,696.328 268.842,696.662 268.5,697.5C 264.226,699.541 259.892,701.208 255.5,702.5C 247.488,703.751 239.488,703.751 231.5,702.5C 230.5,702.5 229.5,702.5 228.5,702.5C 227.795,699.646 226.795,696.979 225.5,694.5C 225.5,692.167 225.5,689.833 225.5,687.5C 226.167,687.5 226.833,687.5 227.5,687.5C 237.79,690.107 248.123,690.107 258.5,687.5C 262.083,686.203 265.416,684.537 268.5,682.5C 269.167,682.167 269.833,681.833 270.5,681.5 Z"/></g>
<g><path style="opacity:1" fill="#8f0504" d="M 228.5,690.5 C 232.266,691.995 236.266,692.662 240.5,692.5C 246.868,692.092 253.202,691.426 259.5,690.5C 259.988,693.711 259.321,696.544 257.5,699C 248.559,700.346 239.559,700.846 230.5,700.5C 229.833,697.167 229.167,693.833 228.5,690.5 Z"/></g>
<g><path style="opacity:1" fill="#fbfbfb" d="M 231.5,702.5 C 239.488,703.751 247.488,703.751 255.5,702.5C 256.833,702.5 258.167,702.5 259.5,702.5C 259.5,711.167 259.5,719.833 259.5,728.5C 256.287,728.19 253.287,728.523 250.5,729.5C 248.166,731.176 247.166,733.509 247.5,736.5C 244.579,736.717 241.913,736.051 239.5,734.5C 238.833,733.5 238.167,732.5 237.5,731.5C 235.9,721.713 233.9,712.047 231.5,702.5 Z"/></g>
<g><path style="opacity:1" fill="#fcfcfc" d="M 139.5,704.5 C 139.833,704.5 140.167,704.5 140.5,704.5C 147.923,706.255 155.589,706.921 163.5,706.5C 162.74,716.532 161.74,726.532 160.5,736.5C 154.887,737.785 149.22,737.785 143.5,736.5C 145.27,731.575 144.603,727.075 141.5,723C 140.552,722.517 139.552,722.351 138.5,722.5C 138.177,716.31 138.51,710.31 139.5,704.5 Z"/></g>
<g><path style="opacity:1" fill="#a47d7d" d="M 140.5,704.5 C 150.148,705.245 159.815,705.578 169.5,705.5C 167.735,706.461 165.735,706.795 163.5,706.5C 155.589,706.921 147.923,706.255 140.5,704.5 Z"/></g>
<g><path style="opacity:1" fill="#d7cecf" d="M 169.5,705.5 C 170.167,705.5 170.833,705.5 171.5,705.5C 172.675,705.281 173.675,705.614 174.5,706.5C 171.479,714.563 170.146,722.896 170.5,731.5C 168.008,734.675 164.674,736.341 160.5,736.5C 161.74,726.532 162.74,716.532 163.5,706.5C 165.735,706.795 167.735,706.461 169.5,705.5 Z"/></g>
<g><path style="opacity:0.942" fill="#9c9999" d="M 228.5,702.5 C 229.5,702.5 230.5,702.5 231.5,702.5C 233.9,712.047 235.9,721.713 237.5,731.5C 236.292,730.766 234.959,730.433 233.5,730.5C 231.199,722.631 229.533,714.631 228.5,706.5C 228.5,705.167 228.5,703.833 228.5,702.5 Z"/></g>
<g><path style="opacity:0.471" fill="#8e8989" d="M 134.5,703.5 C 136.415,703.216 138.081,703.549 139.5,704.5C 138.51,710.31 138.177,716.31 138.5,722.5C 137.167,723.5 135.833,724.5 134.5,725.5C 134.5,718.167 134.5,710.833 134.5,703.5 Z"/></g>
<g><path style="opacity:0.978" fill="#908a8a" d="M 177.5,703.5 C 176.685,710.576 175.352,717.576 173.5,724.5C 174.223,726.782 174.557,729.116 174.5,731.5C 173.71,730.391 173.21,729.058 173,727.5C 172.392,729.066 171.558,730.4 170.5,731.5C 170.146,722.896 171.479,714.563 174.5,706.5C 173.675,705.614 172.675,705.281 171.5,705.5C 173.374,704.715 175.374,704.048 177.5,703.5 Z"/></g>
<g><path style="opacity:0.966" fill="#8b8786" d="M 270.5,696.5 C 270.833,696.5 271.167,696.5 271.5,696.5C 270.932,705.823 270.599,715.156 270.5,724.5C 269.5,725.167 268.5,725.833 267.5,726.5C 267.38,716.812 267.713,707.146 268.5,697.5C 268.842,696.662 269.508,696.328 270.5,696.5 Z"/></g>
<g><path style="opacity:1" fill="#322f2c" d="M 270.5,724.5 C 275.811,734.007 280.977,743.674 286,753.5C 287.576,758.229 288.743,763.063 289.5,768C 289.345,771.292 288.678,774.459 287.5,777.5C 286.197,779.142 284.864,780.809 283.5,782.5C 273.796,787.507 263.463,789.507 252.5,788.5C 244.815,787.656 238.148,784.656 232.5,779.5C 231.649,777.118 230.316,775.118 228.5,773.5C 227.559,764.869 228.226,756.202 230.5,747.5C 232.163,745.562 232.829,743.228 232.5,740.5C 233.887,738.123 234.721,735.457 235,732.5C 235.5,733.667 236.333,734.5 237.5,735C 232.936,747.757 231.436,760.924 233,774.5C 236.526,780.352 241.693,783.852 248.5,785C 272.514,788.069 281.347,777.903 275,754.5C 274,752.5 273,750.5 272,748.5C 269.791,748.011 267.958,747.011 266.5,745.5C 270.278,744.807 270.278,743.64 266.5,742C 260.51,740.347 254.51,740.181 248.5,741.5C 245.614,739.917 242.614,738.417 239.5,737C 238.226,736.023 238.226,735.189 239.5,734.5C 241.913,736.051 244.579,736.717 247.5,736.5C 247.166,733.509 248.166,731.176 250.5,729.5C 254.839,728.846 258.673,729.846 262,732.5C 264.253,730.811 266.086,728.811 267.5,726.5C 268.5,725.833 269.5,725.167 270.5,724.5 Z"/></g>
<g><path style="opacity:1" fill="#423e3b" d="M 233.5,730.5 C 234.959,730.433 236.292,730.766 237.5,731.5C 238.167,732.5 238.833,733.5 239.5,734.5C 238.226,735.189 238.226,736.023 239.5,737C 242.614,738.417 245.614,739.917 248.5,741.5C 247.122,742.234 245.622,742.901 244,743.5C 243.409,744.483 243.743,745.15 245,745.5C 252.189,742.866 259.355,742.866 266.5,745.5C 267.958,747.011 269.791,748.011 272,748.5C 273,750.5 274,752.5 275,754.5C 281.347,777.903 272.514,788.069 248.5,785C 241.693,783.852 236.526,780.352 233,774.5C 231.436,760.924 232.936,747.757 237.5,735C 236.333,734.5 235.5,733.667 235,732.5C 234.721,735.457 233.887,738.123 232.5,740.5C 232.833,737.167 233.167,733.833 233.5,730.5 Z"/></g>
<g><path style="opacity:1" fill="#403c39" d="M 138.5,722.5 C 139.552,722.351 140.552,722.517 141.5,723C 144.603,727.075 145.27,731.575 143.5,736.5C 149.22,737.785 154.887,737.785 160.5,736.5C 164.674,736.341 168.008,734.675 170.5,731.5C 171.558,730.4 172.392,729.066 173,727.5C 173.21,729.058 173.71,730.391 174.5,731.5C 174.833,732.833 175.167,734.167 175.5,735.5C 175.649,736.552 175.483,737.552 175,738.5C 165.669,745.496 160.835,754.829 160.5,766.5C 159.566,765.432 159.232,764.099 159.5,762.5C 150.032,762.817 142.366,766.651 136.5,774C 128.587,780.056 119.587,782.723 109.5,782C 114.309,783.442 119.309,783.942 124.5,783.5C 124.5,783.833 124.5,784.167 124.5,784.5C 113.442,786.276 103.442,783.943 94.5,777.5C 88.9827,770.193 87.9827,762.193 91.5,753.5C 92.9774,751.193 94.9774,749.36 97.5,748C 101.946,745.943 106.613,744.777 111.5,744.5C 113.786,744.405 115.786,743.738 117.5,742.5C 118.659,740.75 120.326,739.75 122.5,739.5C 123.552,739.351 124.552,739.517 125.5,740C 129.664,744.494 132.664,749.661 134.5,755.5C 134.74,748.955 132.407,743.288 127.5,738.5C 128.348,736.717 129.681,736.217 131.5,737C 135.654,740.152 138.654,744.152 140.5,749C 141.483,749.591 142.15,749.257 142.5,748C 140.79,743.464 138.123,739.63 134.5,736.5C 133.534,734.604 133.201,732.604 133.5,730.5C 133.216,728.585 133.549,726.919 134.5,725.5C 135.833,724.5 137.167,723.5 138.5,722.5 Z"/></g>
<g><path style="opacity:1" fill="#6e6966" d="M 266.5,745.5 C 259.355,742.866 252.189,742.866 245,745.5C 243.743,745.15 243.409,744.483 244,743.5C 245.622,742.901 247.122,742.234 248.5,741.5C 254.51,740.181 260.51,740.347 266.5,742C 270.278,743.64 270.278,744.807 266.5,745.5 Z"/></g>
<g><path style="opacity:0.082" fill="#a8a8a8" d="M 117.5,742.5 C 115.786,743.738 113.786,744.405 111.5,744.5C 112.99,742.72 114.99,742.054 117.5,742.5 Z"/></g>
<g><path style="opacity:1" fill="#736e6c" d="M 133.5,730.5 C 133.201,732.604 133.534,734.604 134.5,736.5C 138.123,739.63 140.79,743.464 142.5,748C 142.15,749.257 141.483,749.591 140.5,749C 138.654,744.152 135.654,740.152 131.5,737C 129.681,736.217 128.348,736.717 127.5,738.5C 132.407,743.288 134.74,748.955 134.5,755.5C 132.664,749.661 129.664,744.494 125.5,740C 124.552,739.517 123.552,739.351 122.5,739.5C 126.721,737.217 130.388,734.217 133.5,730.5 Z"/></g>
<g><path style="opacity:0.235" fill="#a7a7a7" d="M 232.5,740.5 C 232.829,743.228 232.163,745.562 230.5,747.5C 230.721,744.933 231.388,742.599 232.5,740.5 Z"/></g>
<g><path style="opacity:1" fill="#736e6b" d="M 249.5,755.5 C 253.514,755.334 257.514,755.501 261.5,756C 264.451,756.096 267.118,756.929 269.5,758.5C 268.5,758.833 267.5,759.167 266.5,759.5C 259.558,757.046 252.725,757.046 246,759.5C 245.167,759.167 244.333,758.833 243.5,758.5C 243.667,758.167 243.833,757.833 244,757.5C 245.948,756.891 247.782,756.224 249.5,755.5 Z"/></g>
<g><path style="opacity:0.109" fill="#efeeed" d="M 271.5,674.5 C 272.436,690.674 272.603,707.007 272,723.5C 279.537,735.447 285.537,748.114 290,761.5C 291.555,771.991 290.055,781.991 285.5,791.5C 282.335,794.91 278.668,797.577 274.5,799.5C 271.167,799.5 267.833,799.5 264.5,799.5C 269.588,798.306 274.588,796.473 279.5,794C 285.248,790.003 287.915,784.503 287.5,777.5C 288.678,774.459 289.345,771.292 289.5,768C 288.743,763.063 287.576,758.229 286,753.5C 280.977,743.674 275.811,734.007 270.5,724.5C 270.599,715.156 270.932,705.823 271.5,696.5C 271.5,689.167 271.5,681.833 271.5,674.5 Z"/></g>
<g><path style="opacity:0.922" fill="#8a8786" d="M 175.5,735.5 C 175.833,735.5 176.167,735.5 176.5,735.5C 179.189,744.77 180.856,754.27 181.5,764C 181.5,767.333 180.167,770 177.5,772C 163.492,776.89 149.825,782.557 136.5,789C 118.055,798.564 102.721,795.064 90.5,778.5C 88.571,772.085 88.071,765.418 89,758.5C 89.0995,756.347 89.9328,754.681 91.5,753.5C 87.9827,762.193 88.9827,770.193 94.5,777.5C 101.901,789.856 112.567,793.856 126.5,789.5C 137.203,785.876 147.536,781.376 157.5,776C 163.768,774.799 169.768,772.799 175.5,770C 177.576,768.116 177.91,765.949 176.5,763.5C 171.446,765.962 166.113,767.629 160.5,768.5C 160.5,767.833 160.5,767.167 160.5,766.5C 160.835,754.829 165.669,745.496 175,738.5C 175.483,737.552 175.649,736.552 175.5,735.5 Z"/></g>
<g><path style="opacity:1" fill="#2c2825" d="M 160.5,766.5 C 160.5,767.167 160.5,767.833 160.5,768.5C 152.859,769.982 145.859,773.149 139.5,778C 134.515,779.939 129.515,781.772 124.5,783.5C 119.309,783.942 114.309,783.442 109.5,782C 119.587,782.723 128.587,780.056 136.5,774C 142.366,766.651 150.032,762.817 159.5,762.5C 159.232,764.099 159.566,765.432 160.5,766.5 Z"/></g>
<g><path style="opacity:0.997" fill="#d0c8c9" d="M 126.5,789.5 C 126.608,787.486 125.942,785.82 124.5,784.5C 124.5,784.167 124.5,783.833 124.5,783.5C 129.515,781.772 134.515,779.939 139.5,778C 145.859,773.149 152.859,769.982 160.5,768.5C 166.113,767.629 171.446,765.962 176.5,763.5C 177.91,765.949 177.576,768.116 175.5,770C 169.768,772.799 163.768,774.799 157.5,776C 147.536,781.376 137.203,785.876 126.5,789.5 Z"/></g>
<g><path style="opacity:1" fill="#d8d1d1" d="M 173.5,742.5 C 174.79,743.058 175.623,744.058 176,745.5C 177.29,750.11 177.624,754.777 177,759.5C 173.296,762.435 169.129,764.435 164.5,765.5C 163.358,756.267 166.358,748.6 173.5,742.5 Z"/></g>
<g><path style="opacity:0.091" fill="#f4f4f4" d="M 176.5,735.5 C 181.341,746.225 183.174,757.558 182,769.5C 181.063,772.104 179.396,774.104 177,775.5C 164.029,778.935 151.695,783.935 140,790.5C 132.752,793.546 125.252,795.546 117.5,796.5C 104.557,796.209 95.5572,790.209 90.5,778.5C 102.721,795.064 118.055,798.564 136.5,789C 149.825,782.557 163.492,776.89 177.5,772C 180.167,770 181.5,767.333 181.5,764C 180.856,754.27 179.189,744.77 176.5,735.5 Z"/></g>
<g><path style="opacity:0.999" fill="#f1f1f1" d="M 94.5,777.5 C 103.442,783.943 113.442,786.276 124.5,784.5C 125.942,785.82 126.608,787.486 126.5,789.5C 112.567,793.856 101.901,789.856 94.5,777.5 Z"/></g>
<g><path style="opacity:0.107" fill="#f8f8f8" d="M 229.5,784.5 C 231.782,788.201 234.449,791.701 237.5,795C 241.571,796.63 245.571,798.13 249.5,799.5C 247.167,799.5 244.833,799.5 242.5,799.5C 235.158,797.174 230.825,792.174 229.5,784.5 Z"/></g>
<g><path style="opacity:0.978" fill="#8d8989" d="M 228.5,773.5 C 230.316,775.118 231.649,777.118 232.5,779.5C 233.559,789.226 238.893,794.559 248.5,795.5C 256.77,796.816 265.104,796.316 273.5,794C 278.853,791.82 282.187,787.987 283.5,782.5C 284.864,780.809 286.197,779.142 287.5,777.5C 287.915,784.503 285.248,790.003 279.5,794C 274.588,796.473 269.588,798.306 264.5,799.5C 259.5,799.5 254.5,799.5 249.5,799.5C 245.571,798.13 241.571,796.63 237.5,795C 234.449,791.701 231.782,788.201 229.5,784.5C 228.577,780.936 228.244,777.269 228.5,773.5 Z"/></g>
<g><path style="opacity:0.999" fill="#cec6c7" d="M 283.5,782.5 C 282.187,787.987 278.853,791.82 273.5,794C 265.104,796.316 256.77,796.816 248.5,795.5C 251.579,795.74 254.579,795.407 257.5,794.5C 258.614,793.277 258.781,791.944 258,790.5C 256.052,789.891 254.218,789.224 252.5,788.5C 263.463,789.507 273.796,787.507 283.5,782.5 Z"/></g>
<g><path style="opacity:0.998" fill="#f7f6f6" d="M 232.5,779.5 C 238.148,784.656 244.815,787.656 252.5,788.5C 254.218,789.224 256.052,789.891 258,790.5C 258.781,791.944 258.614,793.277 257.5,794.5C 254.579,795.407 251.579,795.74 248.5,795.5C 238.893,794.559 233.559,789.226 232.5,779.5 Z"/></g>
</svg>
