<?xml version="1.0" standalone="no"?>
<!DOCTYPE svg PUBLIC "-//W3C//DTD SVG 20010904//EN"
 "http://www.w3.org/TR/2001/REC-SVG-20010904/DTD/svg10.dtd">
<svg version="1.0" xmlns="http://www.w3.org/2000/svg"
 width="348.000000pt" height="800.000000pt" viewBox="0 0 348.000000 800.000000"
 preserveAspectRatio="xMidYMid meet">

<g transform="translate(0.000000,800.000000) scale(0.100000,-0.100000)"
fill="#000000" stroke="none">
<path d="M1695 7965 c-33 -8 -107 -14 -165 -14 -289 -2 -499 -88 -703 -289
-104 -103 -182 -202 -250 -321 -27 -47 -72 -111 -102 -141 -29 -30 -87 -107
-129 -172 -102 -157 -171 -214 -286 -239 -42 -9 -50 -14 -50 -33 0 -42 64 -84
163 -105 31 -7 57 -15 57 -19 0 -4 -9 -36 -21 -72 -27 -85 -36 -245 -20 -345
24 -149 74 -258 187 -407 41 -55 74 -103 74 -108 0 -6 16 -32 36 -60 l36 -50
-30 0 c-21 0 -36 -8 -46 -22 -22 -32 -20 -42 4 -18 19 19 60 27 73 14 3 -3 -3
-20 -14 -37 -10 -18 -19 -36 -19 -42 1 -5 8 2 16 18 29 54 50 37 109 -85 47
-98 55 -124 61 -195 8 -96 6 -97 -73 -58 -58 30 -141 113 -172 173 -55 108
-64 246 -21 305 20 27 21 28 2 18 -33 -17 -45 -64 -40 -154 5 -106 46 -198
121 -276 50 -51 133 -101 169 -101 23 0 28 -10 49 -107 10 -47 30 -110 44
-141 50 -108 230 -251 435 -344 105 -47 276 -98 331 -98 41 0 36 -15 -9 -28
-95 -29 -183 -116 -248 -245 -51 -101 -126 -287 -121 -301 2 -6 22 -17 43 -25
125 -44 343 -207 403 -300 18 -28 35 -51 37 -51 3 0 19 16 36 36 17 19 63 61
102 93 147 119 307 200 468 237 l78 18 50 -24 c78 -36 79 -44 13 -70 -95 -38
-382 -178 -468 -228 -88 -51 -173 -110 -194 -135 -10 -13 -17 -14 -34 -6 -26
15 -95 13 -113 -2 -12 -10 -19 -8 -37 8 -39 36 -577 334 -605 336 -26 2 -27 0
-25 -43 0 -25 18 -121 38 -214 l36 -168 -20 -22 c-30 -32 -28 -86 4 -114 14
-12 25 -33 25 -46 0 -14 5 -28 10 -31 6 -3 10 -21 10 -39 0 -19 7 -39 15 -46
8 -7 15 -18 15 -26 0 -7 6 -19 14 -26 7 -8 31 -75 51 -150 21 -75 40 -140 44
-145 3 -5 31 -16 61 -24 l55 -14 -3 -235 c-2 -129 -8 -266 -13 -305 -22 -169
-31 -285 -25 -308 4 -16 24 -36 54 -55 l49 -30 6 -93 c3 -52 14 -128 23 -169
12 -56 17 -129 18 -285 l1 -210 55 -8 c55 -8 282 -11 330 -5 22 3 27 12 42 72
24 94 30 237 21 441 -11 229 -12 224 47 257 44 25 49 31 60 80 6 29 14 75 17
101 3 26 10 50 14 53 5 3 9 0 9 -6 0 -12 63 -176 88 -229 17 -37 62 -61 111
-61 28 0 32 -4 45 -52 21 -74 24 -95 46 -338 11 -118 24 -231 30 -251 9 -34
14 -37 56 -43 113 -15 252 2 326 40 l30 16 -7 -149 c-6 -138 -9 -150 -31 -173
-21 -21 -27 -23 -44 -12 -45 28 -130 7 -130 -33 0 -8 -4 -16 -10 -20 -12 -8
-72 18 -89 38 -19 23 -31 21 -31 -5 0 -13 -11 -79 -25 -148 -26 -133 -32 -238
-15 -286 13 -37 73 -79 146 -104 104 -36 273 -22 359 29 39 22 43 16 20 -32
-13 -26 -13 -29 -1 -14 8 11 26 55 40 99 25 77 26 81 11 149 -15 76 -75 209
-149 333 l-47 79 12 196 c11 171 10 216 -4 351 -10 85 -17 211 -17 279 l0 124
39 36 c35 33 39 41 44 106 7 81 -3 207 -33 385 -11 69 -20 145 -20 169 0 24
-7 91 -16 150 l-16 106 36 28 c21 17 36 38 36 50 0 12 -12 82 -26 155 -25 123
-26 134 -11 150 9 10 22 32 28 50 8 24 30 43 97 83 140 85 237 160 258 201 33
63 7 160 -92 347 -41 77 -53 111 -49 130 4 20 -11 53 -65 143 -92 156 -162
259 -208 306 -47 49 -115 75 -257 97 -77 12 -135 29 -192 54 -46 20 -83 39
-83 42 0 4 35 19 78 34 200 70 369 172 494 297 126 126 177 260 178 459 0 91
1 96 28 120 15 14 50 35 79 46 165 67 274 229 260 387 -4 48 -1 68 14 99 78
151 151 413 150 537 0 207 -112 435 -261 530 -50 32 -50 33 -33 53 43 48 137
61 208 28 38 -17 74 -52 101 -97 10 -17 13 -14 23 23 28 102 -47 244 -151 287
-69 29 -143 17 -249 -41 -4 -2 -23 27 -44 64 -168 308 -496 560 -818 628 -90
20 -427 19 -512 0z m425 -1406 c5 -35 10 -98 10 -140 l0 -76 -57 -12 c-31 -6
-75 -20 -98 -31 -41 -20 -103 -76 -94 -85 3 -2 32 6 64 19 33 13 84 26 113 29
47 6 52 4 52 -14 0 -29 -28 -90 -52 -116 l-22 -23 45 14 c79 25 124 43 159 65
46 28 51 27 104 -14 26 -19 49 -35 52 -35 3 0 -11 23 -31 52 -32 44 -35 52
-21 60 30 17 156 130 158 141 0 7 4 -44 8 -113 9 -154 28 -207 111 -311 79
-98 113 -165 149 -299 30 -112 49 -157 79 -196 16 -20 17 -15 17 95 0 150 8
222 34 312 41 138 78 189 135 189 76 0 158 -58 195 -137 29 -62 25 -175 -9
-245 -51 -104 -163 -197 -276 -229 l-60 -16 -7 -144 c-9 -203 -29 -270 -114
-380 -167 -218 -560 -408 -952 -460 -322 -42 -707 84 -946 310 -106 101 -134
179 -166 466 -38 344 -36 335 -117 534 -41 101 -70 187 -65 190 5 3 12 29 16
57 9 70 48 181 81 235 57 90 73 106 275 275 14 12 15 0 12 -114 -3 -94 1 -146
13 -202 25 -112 26 -111 -21 -127 -90 -30 -167 -133 -180 -238 l-6 -50 36 72
c55 110 121 154 264 177 l77 12 -37 19 c-45 22 -41 31 40 82 82 53 174 83 321
104 237 34 305 57 416 139 58 43 199 188 235 243 l25 37 12 -29 c7 -16 17 -58
23 -92z m-7 -2091 c8 -30 -14 -52 -81 -84 -94 -45 -226 -23 -208 33 5 14 22
23 64 32 230 48 218 47 225 19z m887 -767 c60 -120 90 -201 90 -245 0 -42 -25
-77 -98 -135 -59 -48 -242 -166 -246 -159 -2 2 -13 46 -25 98 -13 52 -34 112
-48 132 -14 21 -23 44 -19 53 12 33 90 126 121 145 35 22 97 26 142 10 l28
-10 -24 20 c-16 14 -38 20 -73 20 -56 0 -97 -18 -126 -55 -25 -31 -36 -32 -50
0 -11 23 -8 26 46 57 31 18 93 67 137 109 44 43 83 75 87 71 3 -4 30 -54 58
-111z m-337 -149 l19 -32 -26 -35 c-15 -19 -31 -35 -35 -35 -12 0 -21 38 -21
93 0 44 2 48 22 45 12 -2 30 -18 41 -36z m-30 -151 c49 -54 99 -233 83 -296
-13 -50 -144 -107 -198 -86 -24 10 -19 14 33 25 26 6 83 45 76 52 -2 2 -25 -5
-51 -16 -60 -27 -131 -24 -131 4 0 15 11 22 52 31 53 12 103 38 103 55 0 5
-21 -1 -47 -12 -81 -36 -166 -26 -150 16 4 11 19 16 45 16 41 0 123 37 130 58
3 10 -3 9 -23 -4 -18 -12 -48 -18 -93 -18 -61 -1 -67 1 -70 20 -3 18 3 22 49
27 28 4 63 14 76 23 29 19 67 98 60 125 -8 31 18 22 56 -20z m-1650 -121 c6
-24 63 -50 111 -50 47 0 66 -9 66 -30 0 -24 -54 -34 -115 -20 -82 18 -118 56
-95 100 14 26 26 26 33 0z m142 -127 c46 5 67 2 81 -8 19 -15 19 -15 0 -30
-46 -35 -192 -15 -209 29 -8 21 2 25 35 14 17 -6 58 -8 93 -5z m5 -78 c66 -1
75 -4 75 -20 0 -42 -135 -45 -176 -4 -22 22 -16 44 10 33 9 -4 50 -8 91 -9z
m18 -87 c-7 -19 -50 -21 -73 -4 -19 14 -17 15 28 16 35 0 47 -4 45 -12z m1512
-1420 c0 -78 7 -200 16 -272 18 -146 23 -133 -66 -167 -62 -24 -232 -37 -290
-22 -42 11 -44 17 -60 233 -6 85 -18 183 -25 218 -8 35 -15 67 -15 71 0 5 49
11 109 15 104 7 255 36 290 56 39 23 41 15 41 -132z m-1241 113 c96 -27 203
-35 285 -21 38 6 70 9 71 8 10 -10 26 -470 18 -513 -12 -72 -33 -80 -203 -80
-74 0 -152 4 -172 8 l-38 8 0 132 c0 86 -7 172 -20 247 -19 108 -26 230 -15
230 3 0 36 -9 74 -19z"/>
<path d="M2035 6031 c-29 -17 -64 -49 -84 -77 l-35 -49 61 57 c93 87 167 103
298 64 11 -4 2 3 -20 14 -63 31 -157 27 -220 -9z"/>
<path d="M2120 5989 c-160 -48 -261 -270 -219 -482 l12 -57 86 0 c300 1 433
146 355 390 -35 112 -138 177 -234 149z m138 -47 c80 -58 120 -250 70 -337
-24 -40 -84 -88 -127 -100 l-23 -7 21 28 c71 99 35 244 -71 288 -58 24 -106
16 -153 -26 l-35 -30 10 28 c26 67 84 135 145 168 41 23 122 16 163 -12z
m-196 -237 c8 -19 8 -28 -2 -40 -23 -28 -70 -12 -70 25 0 42 54 54 72 15z
m128 -127 c0 -11 -15 -35 -34 -54 -27 -27 -42 -34 -74 -34 -45 0 -88 28 -103
67 -15 39 1 48 19 11 10 -18 30 -39 45 -46 35 -17 79 -8 76 16 -3 34 2 42 26
42 16 0 25 6 25 16 0 8 5 12 10 9 6 -3 10 -15 10 -27z m-222 -106 c-16 -2 -32
-2 -34 0 -1 2 -6 23 -10 47 l-7 43 41 -43 41 -44 -31 -3z"/>
<path d="M2978 5951 c-28 -23 -83 -125 -94 -176 l-6 -30 19 30 c11 17 37 45
58 63 31 28 44 33 76 30 43 -4 43 7 0 17 -19 4 -41 0 -61 -10 -30 -16 -31 -16
-21 3 17 32 71 72 96 72 30 0 83 -45 102 -85 l14 -30 -6 35 c-13 80 -118 128
-177 81z"/>
<path d="M947 5820 c-21 -4 -50 -16 -65 -27 -29 -22 -72 -79 -72 -97 0 -6 8 3
19 19 54 88 153 117 263 75 52 -19 52 -19 28 0 -37 28 -114 42 -173 30z"/>
<path d="M935 5733 c-75 -39 -112 -108 -102 -192 12 -105 112 -245 193 -271
58 -20 179 -8 247 23 54 24 57 28 51 54 -35 160 -72 249 -130 313 -71 79 -187
112 -259 73z m182 -39 c36 -21 74 -60 96 -100 3 -6 -16 0 -43 14 -39 19 -57
23 -90 17 -113 -19 -163 -156 -100 -276 18 -37 19 -41 4 -28 -71 56 -125 162
-125 243 0 84 27 126 98 152 48 17 105 9 160 -22z m-53 -190 c31 -31 6 -91
-32 -77 -35 13 -45 65 -14 82 23 14 28 14 46 -5z m171 -120 c-10 -55 -56 -94
-110 -94 -50 0 -95 30 -95 63 1 21 2 21 23 -6 26 -31 70 -47 106 -38 21 6 22
8 7 20 -35 29 -5 71 32 45 22 -15 22 -14 22 27 0 32 3 40 11 32 7 -7 9 -25 4
-49z m60 -16 c7 -34 5 -39 -20 -48 -36 -14 -36 -14 -19 25 7 19 14 47 14 62 1
36 15 13 25 -39z"/>
<path d="M1483 5340 c-46 -28 -67 -65 -67 -120 0 -81 53 -130 139 -130 36 0
108 30 120 51 4 6 -7 3 -24 -6 -89 -45 -185 -22 -210 51 -13 37 -12 44 5 80
12 24 33 47 56 59 32 17 42 18 80 8 l43 -11 -24 19 c-30 24 -77 24 -118 -1z"/>
<path d="M2085 5191 c4 -14 -7 -28 -47 -59 -164 -126 -356 -192 -558 -192 -82
0 -99 3 -102 16 -2 12 -9 8 -26 -16 -22 -29 -22 -31 -4 -21 30 16 61 -14 136
-128 67 -102 110 -147 153 -157 47 -12 147 2 200 29 86 44 128 113 178 293 15
54 39 125 53 157 21 49 28 57 46 51 20 -6 20 -5 -3 20 -29 31 -34 32 -26 7z
m-139 -175 c-27 -42 -59 -67 -122 -97 -77 -37 -195 -63 -253 -55 -44 6 -91 29
-91 45 0 4 39 11 88 14 96 6 238 47 332 96 30 16 57 27 59 25 2 -2 -4 -15 -13
-28z m-35 -206 c16 -9 17 -14 8 -33 -55 -107 -236 -159 -322 -93 -28 21 -13
50 37 77 37 19 48 21 69 12 22 -11 25 -17 21 -55 -4 -38 -3 -40 7 -18 27 63
37 76 68 97 36 25 80 29 112 13z"/>
<path d="M1815 4599 c-22 -10 -62 -19 -90 -20 -49 -1 -49 -1 -18 -11 42 -14
97 -3 130 27 33 29 31 29 -22 4z"/>
<path d="M1744 886 c-3 -8 -4 -23 -2 -33 3 -11 6 -6 9 15 6 34 2 42 -7 18z"/>
<path d="M1732 785 c0 -16 2 -22 5 -12 2 9 2 23 0 30 -3 6 -5 -1 -5 -18z"/>
<path d="M1350 700 c-13 -42 -28 -70 -36 -70 -8 0 -19 -9 -26 -20 -7 -11 -23
-20 -36 -20 -12 0 -25 -7 -28 -15 -4 -8 -13 -15 -21 -15 -32 0 -210 -64 -241
-87 -58 -44 -76 -109 -52 -195 18 -64 143 -128 251 -128 81 0 145 19 263 80
62 32 129 62 150 65 20 4 39 11 42 16 3 5 15 9 27 9 12 0 46 11 75 25 64 30
72 30 73 8 0 -11 2 -13 6 -5 3 7 2 19 -1 27 -4 12 -14 10 -58 -10 -29 -13 -66
-27 -82 -31 l-29 -7 7 54 c9 65 64 169 100 189 30 15 31 30 11 113 -16 67 -25
83 -25 43 0 -41 -17 -66 -56 -82 -54 -22 -135 -35 -180 -28 l-41 6 5 49 c5 58
-16 99 -52 99 -20 0 -27 -10 -46 -70z"/>
<path d="M1315 105 c-16 -8 -23 -14 -15 -14 8 0 26 6 40 14 32 18 15 18 -25 0z"/>
<path d="M1108 73 c7 -3 16 -2 19 1 4 3 -2 6 -13 5 -11 0 -14 -3 -6 -6z"/>
<path d="M1223 73 c9 -2 25 -2 35 0 9 3 1 5 -18 5 -19 0 -27 -2 -17 -5z"/>
<path d="M2785 70 c-3 -6 1 -7 9 -4 18 7 21 14 7 14 -6 0 -13 -4 -16 -10z"/>
<path d="M2573 13 c9 -2 25 -2 35 0 9 3 1 5 -18 5 -19 0 -27 -2 -17 -5z"/>
</g>
</svg>
