<?xml version="1.0" standalone="no"?>
<!DOCTYPE svg PUBLIC "-//W3C//DTD SVG 20010904//EN"
 "http://www.w3.org/TR/2001/REC-SVG-20010904/DTD/svg10.dtd">
<svg version="1.0" xmlns="http://www.w3.org/2000/svg"
 width="300.000000pt" height="300.000000pt" viewBox="0 0 300.000000 300.000000"
 preserveAspectRatio="xMidYMid meet">
<metadata>
Created by potrace 1.10, written by Peter Selinger 2001-2011
</metadata>
<g transform="translate(0.000000,300.000000) scale(0.100000,-0.100000)"
fill="#000000" stroke="none">
<path d="M1403 2821 c-23 -15 -30 -25 -28 -45 4 -32 13 -46 30 -46 7 0 15 -5
17 -10 5 -15 58 38 58 58 0 19 -29 64 -30 47 0 -5 -4 -5 -8 2 -6 9 -15 8 -39
-6z m57 -31 c0 -11 -4 -20 -9 -20 -11 0 -22 26 -14 34 12 12 23 5 23 -14z
m-27 -12 c8 -24 -4 -39 -19 -23 -8 7 -14 18 -14 24 0 15 27 14 33 -1z"/>
<path d="M838 2720 c-470 -5 -509 -6 -525 -23 -17 -16 -18 -55 -21 -570 l-2
-553 36 4 c29 4 35 2 29 -9 -5 -8 -5 -11 0 -7 4 4 17 3 29 -3 17 -8 16 -6 -4
10 -14 12 -34 24 -45 27 -20 5 -20 12 -20 539 0 465 2 536 15 550 13 13 83 15
507 17 377 2 495 6 505 16 6 6 10 11 8 10 -3 -2 -233 -5 -512 -8z"/>
<path d="M1360 2719 c0 -5 5 -7 10 -4 6 3 10 8 10 11 0 2 -4 4 -10 4 -5 0 -10
-5 -10 -11z"/>
<path d="M1483 2723 c-7 -3 -13 -8 -13 -12 0 -11 912 -12 947 -1 16 4 -183 8
-441 9 -258 1 -471 3 -475 5 -3 2 -12 1 -18 -1z"/>
<path d="M2454 2712 c4 -4 26 -7 49 -7 37 0 44 -4 58 -33 15 -28 17 -30 22
-12 3 11 1 20 -4 20 -5 0 -8 6 -6 13 1 6 -4 11 -10 10 -7 -2 -13 1 -13 6 0 4
-23 9 -52 10 -28 0 -48 -3 -44 -7z"/>
<path d="M1415 2690 c4 -7 -173 -10 -522 -10 -398 0 -532 -3 -541 -12 -9 -9
-12 -140 -12 -530 0 -285 4 -518 8 -518 4 0 12 4 18 9 18 19 107 20 139 2 17
-9 32 -19 33 -23 2 -5 10 -8 18 -8 23 0 83 -66 104 -114 19 -42 20 -42 75 -44
30 -1 55 3 55 7 0 13 -27 21 -69 21 -33 0 -38 4 -49 33 -15 39 -69 99 -109
119 -15 9 -41 22 -56 31 -18 9 -49 14 -86 12 l-58 -2 0 131 c-1 87 3 133 11
138 7 5 7 8 1 8 -8 0 -11 115 -10 358 l0 357 528 2 c468 2 527 1 527 -13 0 -9
-5 -12 -11 -8 -6 3 -14 2 -18 -4 -6 -10 -47 -22 -96 -27 -11 -1 -27 -5 -35 -8
-147 -51 -175 -64 -217 -104 -7 -6 -28 -21 -47 -32 -19 -12 -37 -28 -40 -37
-3 -8 -10 -12 -16 -9 -5 3 -10 2 -10 -3 0 -5 -16 -29 -35 -53 -19 -24 -35 -49
-35 -55 0 -6 -6 -17 -14 -24 -8 -6 -13 -17 -10 -24 3 -7 -2 -19 -11 -26 -12
-10 -13 -16 -4 -26 8 -10 8 -18 0 -27 -12 -15 -13 -29 -12 -200 0 -87 5 -125
17 -148 8 -17 14 -40 11 -50 -3 -11 -1 -17 3 -14 5 3 11 -4 15 -15 3 -11 11
-20 17 -20 6 0 9 -3 5 -6 -3 -3 2 -14 11 -24 10 -10 22 -25 28 -32 6 -7 30
-29 54 -48 23 -19 50 -42 59 -50 9 -8 33 -23 54 -32 20 -10 37 -21 37 -26 0
-16 -12 -21 -24 -9 -13 13 -195 15 -215 3 -14 -9 -42 -68 -35 -75 3 -3 9 0 13
7 8 14 152 14 187 1 39 -14 -30 -20 -188 -16 -87 2 -163 0 -170 -5 -7 -4 77
-8 188 -8 l201 0 -2 23 c-2 21 -6 22 -98 25 -77 2 -97 6 -97 17 0 12 19 15
104 15 l104 0 6 -35 c7 -35 19 -41 76 -36 10 1 7 -5 -7 -15 -13 -9 -23 -25
-23 -35 0 -29 13 -22 37 20 l22 38 128 -4 c70 -3 171 0 223 5 52 6 100 7 105
4 18 -11 37 -13 167 -12 127 1 127 1 157 30 30 31 51 38 51 19 0 -6 9 -22 20
-36 11 -14 20 -20 20 -13 0 8 -7 22 -17 32 -15 17 -12 22 61 93 43 41 87 77
97 80 11 4 17 10 14 15 -10 15 -33 0 -108 -71 -43 -41 -81 -69 -94 -69 -12 0
-36 -12 -54 -28 -32 -26 -36 -27 -153 -27 -104 0 -124 3 -139 18 -23 23 -19
26 60 60 75 32 143 73 143 88 0 6 7 8 17 5 10 -4 15 -4 11 -1 -3 4 16 35 42
70 27 35 51 73 55 84 3 12 11 21 16 21 20 0 25 2 42 17 9 9 22 35 29 57 6 23
15 46 18 51 17 24 -2 245 -21 245 -5 0 -9 5 -9 11 0 14 -20 33 -45 43 -14 6
-16 10 -7 13 10 4 9 8 -3 17 -9 6 -17 19 -18 27 -2 9 -10 28 -20 42 -9 15 -17
29 -17 33 0 12 -108 112 -151 141 -24 15 -46 30 -49 33 -18 21 -149 71 -220
84 -79 15 -106 29 -94 48 3 4 198 8 435 8 356 0 429 -2 429 -14 0 -7 -4 -37
-10 -65 -12 -62 -3 -76 54 -87 21 -3 39 -12 41 -18 11 -36 13 -76 5 -76 -6 0
-10 16 -10 36 0 35 -1 35 -37 33 -27 -2 -37 1 -35 10 1 7 -2 10 -9 5 -29 -17
-85 -21 -99 -6 -8 9 -15 11 -17 5 -2 -6 -19 -9 -37 -6 -24 3 -35 0 -39 -11 -4
-9 -13 -13 -22 -10 -12 5 -13 9 -4 20 9 11 6 14 -15 14 -33 0 -34 -22 -1 -44
14 -9 25 -23 25 -31 0 -20 -46 -30 -65 -15 -19 15 -20 50 -2 50 8 0 13 10 13
22 -1 14 8 27 24 35 l25 13 -32 0 c-23 0 -33 -5 -38 -20 -3 -11 -4 -24 -1 -29
3 -5 -1 -11 -9 -15 -23 -9 -18 -40 13 -69 26 -25 29 -25 55 -12 30 16 38 0 10
-20 -15 -11 -15 -15 -4 -29 8 -10 21 -14 33 -10 10 3 25 0 33 -6 8 -6 20 -8
27 -4 17 11 108 13 108 3 0 -5 6 -6 14 -3 20 8 30 -14 15 -32 -10 -12 -9 -13
5 -8 11 4 16 14 13 25 -3 10 2 20 10 23 16 7 36 -2 29 -12 -2 -4 16 -5 40 -3
27 2 44 -1 44 -8 0 -6 -17 -11 -37 -12 l-38 -1 30 -9 c37 -11 49 0 51 49 0 20
-1 31 -3 25 -4 -10 -51 -13 -189 -13 -121 0 -183 3 -179 10 4 6 75 10 181 10
96 0 174 3 174 8 0 4 -61 6 -134 5 -100 -1 -138 2 -146 12 -8 9 -6 14 5 19 11
4 14 2 9 -6 -5 -7 -3 -8 6 -3 17 10 92 17 86 7 -6 -10 176 -9 192 1 8 5 9 14
3 25 -4 9 -7 25 -6 35 2 9 -1 15 -6 11 -5 -3 -9 -1 -9 5 0 5 9 13 20 16 11 3
20 12 21 18 0 7 2 21 4 32 13 74 16 107 7 101 -6 -3 -13 -33 -17 -66 -4 -33
-11 -63 -16 -66 -5 -3 -43 0 -85 7 -69 11 -75 14 -70 33 3 12 8 45 12 74 l7
54 56 -7 c31 -3 73 -6 93 -7 l38 -1 2 -521 c2 -339 6 -521 13 -521 14 -1 52
-24 40 -25 -6 0 -17 6 -24 13 -11 9 -12 9 -7 0 4 -7 29 -23 57 -34 45 -20 109
-77 109 -99 0 -4 3 -15 6 -23 4 -12 0 -14 -15 -10 -12 3 -21 10 -21 15 0 5 5
6 11 2 19 -11 -7 29 -35 55 -14 13 -35 24 -48 25 -13 1 -23 7 -23 16 0 8 -8
15 -17 15 -21 0 -58 34 -58 52 0 8 -5 13 -12 11 -28 -10 -15 -29 44 -69 34
-24 73 -54 85 -67 21 -23 33 -19 16 4 -5 5 0 1 10 -9 9 -11 17 -24 16 -31 0
-7 -2 -6 -6 2 -2 6 -9 10 -14 6 -5 -3 -28 10 -52 29 -23 19 -49 38 -57 42 -13
8 -13 7 -1 -8 9 -11 10 -17 2 -17 -7 0 -10 -10 -7 -25 9 -50 -44 -18 -78 47
-11 20 -23 35 -26 33 -4 -2 -7 2 -7 10 0 8 3 12 7 10 3 -2 12 5 19 17 7 11 8
17 2 14 -7 -5 -8 -1 -4 10 12 32 -21 9 -42 -29 -20 -37 -20 -37 -87 -37 l-68
0 0 103 0 102 100 0 100 0 0 -61 c0 -66 6 -80 26 -63 9 7 11 17 5 28 -5 9 -8
33 -7 55 1 31 -3 40 -24 50 -30 15 -194 16 -209 1 -5 -5 -11 -41 -12 -80 -3
-84 -14 -104 -95 -174 -57 -49 -62 -55 -52 -77 11 -24 12 -24 170 -24 142 0
158 -2 158 -17 0 -13 3 -14 12 -5 9 9 9 15 0 24 -8 8 -6 18 9 40 l20 28 32
-24 c18 -13 51 -27 73 -31 l42 -6 1 -97 c1 -53 4 -98 6 -100 2 -2 21 7 43 19
40 23 41 23 61 5 28 -26 26 -50 -5 -75 -32 -25 -47 -26 -68 -5 -15 14 -16 14
-16 0 0 -9 8 -16 18 -16 34 -1 -19 -30 -55 -30 -18 0 -33 -5 -33 -10 0 -18 82
-1 147 29 67 32 109 79 139 157 14 37 15 49 4 74 -7 16 -15 30 -19 30 -4 0 -5
15 -3 34 5 45 -30 98 -80 119 -21 10 -43 17 -49 17 -6 0 -42 15 -80 33 l-69
32 0 506 c0 379 -3 508 -12 517 -9 9 -146 12 -555 12 l-543 0 0 -40 c0 -33 4
-40 23 -44 212 -40 305 -84 423 -202 59 -59 86 -94 99 -130 10 -27 21 -52 24
-56 3 -4 4 -94 1 -200 -6 -213 -7 -217 -82 -315 -65 -85 -135 -130 -303 -193
-18 -6 -17 -9 13 -27 19 -12 30 -23 25 -26 -5 -3 -15 -2 -23 4 -21 12 -68 11
-72 -2 -5 -14 -276 -13 -293 1 -7 6 -15 6 -22 -1 -6 -6 -19 -9 -29 -6 -16 4
-15 5 4 6 15 1 22 7 22 20 0 15 5 18 23 14 12 -3 27 -9 32 -13 6 -4 37 -4 70
1 33 4 93 8 134 8 41 0 78 4 83 9 5 5 -65 8 -160 8 -110 -1 -174 3 -183 10 -8
6 -28 11 -44 11 -40 0 -135 44 -197 91 -65 49 -137 142 -155 200 -18 58 -26
294 -12 376 23 136 129 256 305 344 60 30 141 53 237 66 l47 7 0 50 c0 28 -5
49 -11 49 -5 0 -7 -4 -4 -10z m1045 -241 c0 -5 -4 -9 -10 -9 -5 0 -10 -4 -10
-10 0 -5 7 -10 15 -10 8 0 15 -5 15 -11 0 -6 -8 -9 -17 -7 -12 2 -19 14 -21
36 -3 25 0 31 12 26 9 -3 16 -10 16 -15z m-282 -17 c2 -12 -3 -24 -11 -28 -9
-3 -13 -13 -10 -27 4 -15 2 -19 -4 -12 -6 6 -13 29 -16 53 -5 40 -4 43 16 40
14 -2 23 -11 25 -26z m48 0 c1 -23 -20 -30 -31 -12 -10 16 3 42 18 38 6 -3 13
-14 13 -26z m61 3 c2 -11 0 -14 -3 -7 -9 20 -24 14 -24 -10 -1 -21 -2 -21 -11
-5 -6 10 -8 25 -5 33 8 21 40 13 43 -11z m41 13 c-6 -18 -28 -21 -28 -4 0 9 7
16 16 16 9 0 14 -5 12 -12z m57 -23 c0 -30 -39 -27 -43 3 -3 20 0 23 20 20 15
-2 23 -10 23 -23z m-63 -17 c-6 -6 -15 -8 -19 -4 -4 4 -1 11 7 16 19 12 27 3
12 -12z m-269 -233 c42 -41 48 -245 11 -321 -26 -53 -45 -56 -36 -7 9 51 9
281 -1 316 -8 30 3 36 26 12z m669 -626 c11 -6 22 -8 25 -5 3 2 13 -3 23 -12
19 -19 54 -85 39 -77 -5 4 -9 -3 -9 -14 0 -12 -4 -21 -9 -21 -5 0 -7 9 -4 19
6 22 -14 64 -26 57 -5 -3 -17 4 -27 15 -10 12 -27 25 -37 30 -9 6 3 -10 28
-35 46 -46 57 -73 30 -73 -8 0 -13 2 -11 4 15 16 -68 114 -112 132 -18 7 -32
17 -32 22 0 8 79 -19 122 -42z m-464 -5 c14 -10 43 -10 112 0 20 3 30 -3 47
-30 12 -19 18 -34 12 -34 -5 0 -9 -8 -7 -17 3 -16 -9 -18 -137 -19 -77 0 -149
4 -159 9 -17 8 -14 13 30 53 27 24 56 50 64 59 11 12 16 13 19 3 2 -7 11 -18
19 -24z m198 -11 c19 -26 17 -33 -8 -29 -13 1 -23 8 -22 14 3 38 10 41 30 15z
m148 -49 c15 -14 25 -28 21 -32 -4 -4 -10 -1 -12 6 -3 6 -9 12 -14 12 -6 0 -8
-4 -5 -9 4 -5 -3 -7 -13 -4 -27 7 -37 54 -12 53 3 0 19 -12 35 -26z m-1393
-16 c-35 -33 -67 -36 -76 -8 -10 31 1 38 55 37 l51 -1 -30 -28z m1464 -38 c3
-5 18 -10 33 -10 15 0 47 -6 72 -14 56 -16 69 -45 47 -96 l-16 -35 4 45 c5 44
5 45 -5 9 -5 -20 -10 -42 -12 -50 -3 -14 -30 -49 -38 -49 -3 0 -11 13 -18 29
-11 25 -17 28 -45 24 -18 -3 -38 -10 -45 -15 -7 -6 -16 -7 -20 -3 -4 4 -2 10
4 12 8 3 7 20 -2 61 -20 85 -19 102 10 102 14 0 28 -4 31 -10z"/>
<path d="M2150 2436 c0 -9 5 -16 10 -16 6 0 10 4 10 9 0 6 -4 13 -10 16 -5 3
-10 -1 -10 -9z"/>
<path d="M2352 2431 c2 -7 7 -12 11 -12 12 1 9 15 -3 20 -7 2 -11 -2 -8 -8z"/>
<path d="M2560 1496 c0 -2 8 -10 18 -17 15 -13 16 -12 3 4 -13 16 -21 21 -21
13z"/>
<path d="M2634 1398 c3 -13 6 -33 6 -45 0 -13 4 -23 8 -23 5 0 7 18 5 41 -2
28 0 38 9 33 7 -4 8 -3 4 4 -4 7 -14 12 -23 12 -11 0 -14 -6 -9 -22z"/>
<path d="M2677 1374 c-10 -11 -9 -26 2 -20 5 4 14 -6 19 -21 l10 -28 1 25 c1
20 3 22 11 10 8 -13 10 -12 10 3 0 10 -8 17 -19 17 -11 0 -21 5 -23 11 -2 5
-7 7 -11 3z"/>
<path d="M2770 1352 c0 -6 -7 -9 -15 -6 -8 4 -15 2 -15 -4 0 -17 30 -23 37 -6
3 8 3 18 -1 21 -3 4 -6 1 -6 -5z"/>
<path d="M2792 1340 c0 -14 2 -19 5 -12 2 6 2 18 0 25 -3 6 -5 1 -5 -13z"/>
<path d="M2776 1293 c-6 -14 -5 -15 5 -6 7 7 10 15 7 18 -3 3 -9 -2 -12 -12z"/>
<path d="M2400 2610 c0 -5 5 -10 11 -10 5 0 7 5 4 10 -3 6 -8 10 -11 10 -2 0
-4 -4 -4 -10z"/>
<path d="M2360 2580 c6 -11 13 -20 16 -20 2 0 0 9 -6 20 -6 11 -13 20 -16 20
-2 0 0 -9 6 -20z"/>
<path d="M428 2567 c-21 -16 -26 -84 -9 -116 l13 -24 17 22 17 23 46 -31 c51
-35 63 -37 71 -16 4 8 19 14 34 14 15 0 37 0 48 0 11 1 32 1 47 1 15 0 30 -5
33 -10 5 -8 12 -7 22 2 19 16 67 23 58 8 -13 -20 13 -9 27 12 13 19 13 25 -1
49 -15 27 -19 28 -86 27 -38 -1 -86 -1 -105 0 -19 1 -62 2 -94 3 -50 0 -63 4
-82 25 -26 27 -32 28 -56 11z m40 -19 c19 -19 14 -49 -8 -55 -12 -3 -20 -14
-20 -26 0 -33 -13 -10 -15 25 -1 34 10 68 23 68 5 0 13 -5 20 -12z m137 -56
c4 -11 -1 -23 -14 -34 -12 -9 -21 -21 -21 -27 0 -6 -4 -11 -9 -11 -12 0 -11
71 1 87 12 15 34 7 43 -15z m-69 -10 c1 -24 -18 -29 -35 -9 -8 10 -7 17 1 25
17 17 33 9 34 -16z m106 21 c-10 -4 -9 -8 3 -17 15 -11 15 -13 2 -25 -10 -8
-17 -9 -22 -1 -3 5 0 10 7 10 8 0 6 5 -4 11 -25 14 -22 29 5 28 12 0 16 -3 9
-6z m73 -18 c0 -23 -34 -33 -46 -14 -10 17 9 41 30 37 9 -2 16 -12 16 -23z
m59 9 c8 -21 -1 -34 -25 -34 -12 0 -19 7 -19 18 0 34 33 45 44 16z m63 -14 l3
-25 -10 23 c-10 25 -33 21 -23 -3 3 -8 0 -15 -6 -15 -6 0 -11 12 -11 26 0 21
4 25 23 22 15 -2 23 -11 24 -28z"/>
<path d="M440 2526 c0 -14 5 -26 10 -26 6 0 10 9 10 19 0 11 -4 23 -10 26 -6
4 -10 -5 -10 -19z"/>
<path d="M570 2485 c0 -8 5 -15 10 -15 6 0 10 7 10 15 0 8 -4 15 -10 15 -5 0
-10 -7 -10 -15z"/>
<path d="M510 2489 c0 -5 5 -7 10 -4 6 3 10 8 10 11 0 2 -4 4 -10 4 -5 0 -10
-5 -10 -11z"/>
<path d="M685 2489 c-10 -15 3 -25 16 -12 7 7 7 13 1 17 -6 3 -14 1 -17 -5z"/>
<path d="M740 2485 c0 -8 5 -15 10 -15 6 0 10 7 10 15 0 8 -4 15 -10 15 -5 0
-10 -7 -10 -15z"/>
<path d="M102 2503 c-7 -3 -18 -17 -25 -31 -16 -33 -22 -112 -9 -112 5 0 17
-11 25 -24 15 -23 15 -26 -8 -48 -14 -14 -26 -39 -27 -58 -3 -30 0 -34 31 -42
37 -10 49 -5 33 15 -9 10 -9 16 0 25 8 8 5 9 -11 5 -11 -3 -21 -9 -21 -14 0
-5 -4 -9 -10 -9 -17 0 -11 26 11 51 15 17 19 19 15 7 -5 -15 -3 -16 15 -5 17
10 22 9 31 -8 11 -19 11 -19 19 0 6 17 8 16 8 -7 1 -18 -4 -28 -13 -28 -7 0
-16 -9 -19 -19 -4 -15 2 -20 24 -23 36 -6 39 -3 39 37 0 31 -25 65 -48 65 -26
0 -10 19 29 34 l42 17 -8 57 c-4 31 -7 62 -8 69 0 7 -4 10 -8 7 -4 -2 -10 0
-14 6 -3 5 0 10 7 10 7 1 2 7 -12 15 -25 14 -64 18 -88 8z m51 -24 c-34 -10
-42 -22 -21 -35 6 -4 8 -3 4 4 -3 6 3 14 15 17 57 18 85 -93 33 -134 -34 -26
-40 -26 -68 2 -24 24 -26 70 -5 83 5 3 9 10 9 16 0 6 -9 3 -21 -7 -20 -19 -20
-19 -9 10 17 44 29 55 64 54 l31 -1 -32 -9z m-17 -196 c-7 -7 -26 7 -26 19 0
6 6 6 15 -2 9 -7 13 -15 11 -17z"/>
<path d="M112 2401 c4 -13 18 -16 19 -4 0 4 -5 9 -11 12 -7 2 -11 -2 -8 -8z"/>
<path d="M138 2371 c-19 -22 -14 -31 16 -30 21 0 21 1 1 9 -20 9 -20 9 0 10
11 1 14 4 7 7 -6 2 -10 9 -6 14 9 16 -1 10 -18 -10z"/>
<path d="M180 2380 c0 -5 5 -10 10 -10 6 0 10 5 10 10 0 6 -4 10 -10 10 -5 0
-10 -4 -10 -10z"/>
<path d="M2592 2470 c0 -19 2 -27 5 -17 2 9 2 25 0 35 -3 9 -5 1 -5 -18z"/>
<path d="M2769 2474 c5 -3 7 -20 4 -38 -3 -19 -1 -36 3 -39 5 -3 9 13 9 36 0
25 -5 41 -13 43 -7 1 -8 0 -3 -2z"/>
<path d="M2729 2443 c-6 -15 -16 -37 -22 -48 -6 -11 -24 -43 -39 -72 l-29 -52
23 -15 c33 -21 108 -30 143 -16 l30 12 -23 18 c-14 11 -48 22 -84 26 -44 5
-56 9 -44 16 9 5 16 15 16 22 0 8 7 19 15 26 9 7 14 19 11 27 -3 7 -1 13 4 13
6 0 11 15 11 33 l2 32 7 -35 7 -35 2 32 c1 42 -16 51 -30 16z m31 -172 c0 -19
-22 -23 -38 -7 -15 15 -14 16 11 16 15 0 27 -4 27 -9z"/>
<path d="M2040 2431 c0 -16 27 -31 44 -25 13 5 14 9 5 20 -13 15 -49 19 -49 5z"/>
<path d="M1380 2412 c0 -4 -24 -8 -52 -8 -56 0 -158 -29 -158 -45 0 -5 -3 -8
-7 -7 -18 3 -53 -17 -94 -54 -10 -10 -19 -15 -19 -12 0 4 -7 1 -15 -6 -8 -7
-13 -16 -10 -20 2 -4 -6 -16 -19 -27 -70 -62 -97 -225 -56 -347 16 -50 35 -81
76 -125 93 -101 208 -141 397 -142 249 0 392 73 474 240 25 50 28 67 28 161 0
100 -1 108 -34 168 -42 77 -104 135 -185 173 -65 30 -166 54 -197 46 -11 -3
-22 -1 -25 4 -6 11 -104 12 -104 1z m183 -46 c33 -7 53 -26 26 -26 -5 0 -7 -5
-3 -12 4 -6 8 -21 10 -32 1 -12 6 -36 10 -54 4 -18 3 -32 -2 -31 -5 1 -20 -3
-34 -9 -14 -6 -22 -11 -19 -11 4 -1 -9 -18 -27 -38 -19 -20 -34 -47 -34 -59 0
-12 -6 -24 -12 -27 -10 -3 -10 -9 0 -27 8 -12 10 -25 5 -29 -9 -7 -12 -62 -2
-56 3 3 11 -12 17 -31 10 -32 9 -34 -6 -22 -16 12 -16 11 -1 -7 36 -45 32 -60
-15 -55 -12 1 -16 -2 -11 -11 6 -9 1 -11 -19 -7 -14 3 -26 1 -26 -3 0 -5 -14
0 -32 11 -17 10 -35 17 -38 15 -4 -2 -7 2 -7 10 0 8 6 15 13 15 8 0 11 6 7 16
-4 11 1 22 12 30 11 8 13 14 6 14 -9 0 -8 5 3 16 19 19 21 28 4 21 -9 -3 -14
7 -15 27 -2 21 0 27 6 17 6 -10 9 -3 8 22 0 20 -5 33 -11 30 -5 -3 -6 -1 -2 5
9 15 -43 112 -59 112 -7 0 -18 7 -25 15 -14 17 -146 22 -135 5 3 -5 0 -10 -7
-10 -18 -1 -89 -56 -81 -64 3 -3 1 -6 -6 -6 -7 0 -10 -4 -7 -9 4 -5 1 -11 -5
-13 -8 -3 -11 -27 -10 -69 3 -96 7 -118 25 -138 9 -9 16 -22 16 -28 0 -6 18
-23 40 -38 28 -20 48 -26 70 -23 16 3 30 2 30 -2 0 -4 7 -7 15 -7 8 0 15 4 15
9 0 14 14 9 42 -15 14 -12 37 -31 50 -42 12 -10 25 -18 28 -16 3 2 26 0 52 -3
45 -6 98 8 98 26 0 4 3 7 8 7 17 -3 35 1 30 7 -4 3 1 13 10 22 13 13 30 16 69
14 50 -4 113 14 113 30 0 5 5 7 12 6 7 -2 13 2 14 7 6 32 18 54 27 48 5 -3 7
-2 4 3 -11 18 8 32 36 27 25 -5 27 -9 21 -35 -6 -31 -41 -78 -57 -78 -5 0 -41
-15 -80 -34 -40 -18 -94 -39 -122 -46 -71 -18 -307 -23 -318 -7 -6 9 -7 8 -4
-3 4 -18 23 -21 142 -22 130 -1 204 15 332 74 77 35 83 35 52 2 -32 -35 -108
-84 -131 -84 -10 0 -18 -5 -18 -10 0 -6 -3 -9 -7 -9 -5 1 -10 0 -13 -1 -6 -2
-25 -6 -75 -17 -58 -12 -299 -7 -303 6 -2 6 -15 11 -28 11 -13 0 -43 9 -67 19
-23 11 -51 22 -63 25 -11 4 -30 20 -42 36 -21 27 -21 30 -5 31 12 0 10 4 -8
10 -24 9 -55 53 -51 72 1 4 -3 7 -9 7 -5 0 -7 5 -4 10 3 6 1 10 -4 10 -6 0
-11 14 -11 31 0 17 -4 28 -10 24 -6 -3 -11 6 -12 22 -3 52 3 118 12 123 5 3
12 19 16 35 4 17 14 41 23 55 22 37 110 120 127 120 8 0 14 4 14 9 0 11 81 41
149 55 63 13 217 14 274 2z m137 -43 c25 -9 60 -27 78 -41 78 -57 141 -204
128 -297 -7 -44 -9 -46 -33 -40 -77 19 -77 19 -98 -27 -50 -108 -183 -117
-245 -16 -24 40 -27 151 -6 203 15 35 67 75 99 75 10 0 17 7 17 18 0 17 -16
90 -26 125 -7 22 25 23 86 0z m-413 -163 c47 -28 63 -67 63 -155 0 -61 -4 -82
-22 -110 -44 -67 -126 -84 -191 -40 -51 35 -67 71 -67 150 0 76 15 112 62 149
41 32 108 35 155 6z m78 -360 c22 -11 51 -20 65 -20 14 0 43 9 65 20 44 22 55
24 55 10 0 -18 -79 -50 -122 -50 -44 0 -109 27 -116 48 -5 17 8 15 53 -8z"/>
<path d="M1115 1770 c3 -5 8 -10 11 -10 2 0 4 5 4 10 0 6 -5 10 -11 10 -5 0
-7 -4 -4 -10z"/>
<path d="M1089 1738 c15 -21 31 -23 31 -6 0 6 -3 8 -7 5 -3 -4 -13 -1 -22 6
-14 11 -14 10 -2 -5z"/>
<path d="M1155 1740 c3 -5 8 -10 11 -10 2 0 4 5 4 10 0 6 -5 10 -11 10 -5 0
-7 -4 -4 -10z"/>
<path d="M1235 1720 c-3 -5 -1 -10 4 -10 6 0 11 5 11 10 0 6 -2 10 -4 10 -3 0
-8 -4 -11 -10z"/>
<path d="M1694 2180 c70 -36 90 -64 105 -152 l9 -53 -2 55 c-1 30 -9 66 -16
80 -8 14 -13 32 -12 40 1 9 -1 10 -4 3 -4 -10 -8 -10 -19 0 -7 7 -10 17 -7 22
3 6 2 7 -3 3 -4 -4 -15 -2 -23 4 -8 7 -26 14 -41 15 -22 3 -21 0 13 -17z"/>
<path d="M1618 2138 c3 -15 6 -15 18 -3 18 18 18 21 -5 21 -12 0 -17 -6 -13
-18z"/>
<path d="M1581 2136 c-7 -8 -8 -17 -3 -20 6 -3 15 1 21 8 7 8 8 17 3 20 -6 3
-15 -1 -21 -8z"/>
<path d="M1605 2085 c-21 -20 -25 -34 -25 -80 0 -46 4 -60 25 -80 29 -30 55
-32 86 -6 18 14 23 29 24 72 2 65 -3 82 -22 75 -8 -3 -18 4 -25 19 -14 32 -32
32 -63 0z m76 -46 c15 -29 -12 -59 -39 -43 -22 14 -28 44 -10 55 22 14 37 10
49 -12z m27 -4 c-3 -3 -9 2 -12 12 -6 14 -5 15 5 6 7 -7 10 -15 7 -18z"/>
<path d="M1548 2073 c7 -3 16 -2 19 1 4 3 -2 6 -13 5 -11 0 -14 -3 -6 -6z"/>
<path d="M1530 1959 c0 -5 5 -7 10 -4 6 3 10 8 10 11 0 2 -4 4 -10 4 -5 0 -10
-5 -10 -11z"/>
<path d="M1760 1959 c0 -5 5 -7 10 -4 6 3 10 8 10 11 0 2 -4 4 -10 4 -5 0 -10
-5 -10 -11z"/>
<path d="M1733 1915 c0 -8 4 -12 9 -9 5 3 6 10 3 15 -9 13 -12 11 -12 -6z"/>
<path d="M1665 1890 c-16 -7 -17 -9 -3 -9 9 -1 20 4 23 9 7 11 7 11 -20 0z"/>
<path d="M1215 2150 c-3 -6 1 -7 9 -4 18 7 21 14 7 14 -6 0 -13 -4 -16 -10z"/>
<path d="M1245 2141 c-3 -5 -2 -12 3 -15 5 -3 9 1 9 9 0 17 -3 19 -12 6z"/>
<path d="M1273 2126 c0 -8 4 -13 8 -10 4 2 15 -6 23 -18 9 -12 16 -18 16 -12
0 6 -10 20 -23 32 -18 17 -24 19 -24 8z"/>
<path d="M1163 2084 c-23 -23 -25 -31 -21 -85 3 -37 11 -66 21 -76 23 -23 84
-21 102 3 14 19 16 28 19 89 5 84 -66 124 -121 69z m75 -53 c5 -30 -10 -45
-37 -36 -21 6 -29 43 -14 59 15 15 48 1 51 -23z"/>
<path d="M1095 2070 c-4 -6 3 -10 14 -10 25 0 27 6 6 13 -8 4 -17 2 -20 -3z"/>
<path d="M1313 1990 c0 -25 2 -35 4 -22 2 12 2 32 0 45 -2 12 -4 2 -4 -23z"/>
<path d="M1126 1902 c-3 -6 1 -15 8 -21 8 -7 17 -8 20 -3 3 6 -1 15 -8 21 -8
7 -17 8 -20 3z"/>
<path d="M1250 1888 c0 -4 4 -8 9 -8 6 0 12 4 15 8 3 5 -1 9 -9 9 -8 0 -15 -4
-15 -9z"/>
<path d="M1222 1874 c-7 -8 -8 -14 -3 -14 10 0 25 19 20 25 -2 1 -10 -3 -17
-11z"/>
<path d="M655 2401 c7 -13 -32 -25 -72 -22 -18 1 -38 -6 -48 -16 -22 -21 -42
-25 -48 -8 -5 12 -48 29 -44 16 1 -3 -8 -17 -20 -31 -22 -23 -29 -40 -18 -40
3 0 17 12 30 28 l23 27 26 -24 25 -24 26 32 c15 17 32 28 38 24 5 -3 24 -10
41 -14 27 -8 26 -8 -11 -5 -34 3 -45 0 -62 -20 -25 -29 -45 -30 -64 -4 -14 20
-14 19 -37 -5 l-23 -24 119 -4 119 -3 -127 0 c-103 1 -125 -1 -115 -12 14 -13
227 -19 248 -6 6 3 9 15 6 25 -3 10 -2 18 2 17 20 -2 29 5 33 27 4 18 0 26
-14 31 -11 3 -22 3 -25 0 -4 -3 0 -6 8 -6 11 0 11 -2 -1 -10 -13 -8 -12 -10 3
-10 9 0 17 -5 17 -11 0 -25 -35 -2 -38 25 -3 26 -1 28 23 24 31 -6 29 11 -4
23 -13 5 -20 5 -16 0z"/>
<path d="M2590 2323 c-3 -40 -1 -68 3 -64 4 4 7 37 5 72 l-3 64 -5 -72z"/>
<path d="M2800 2344 c0 -10 5 -26 10 -34 8 -11 9 -7 4 15 -8 37 -14 45 -14 19z"/>
<path d="M746 2311 c-4 -5 -13 -8 -20 -5 -18 7 -31 -15 -17 -29 7 -7 16 -5 31
8 11 10 20 13 20 8 0 -6 -7 -16 -15 -23 -12 -10 -13 -16 -4 -27 7 -7 10 -16 7
-18 -3 -3 -11 1 -18 10 -12 14 -15 14 -31 -1 -11 -10 -19 -12 -19 -6 0 6 8 15
18 21 12 7 14 13 6 21 -8 8 -14 7 -23 -4 -17 -20 -10 -62 9 -58 36 8 90 11 93
4 8 -15 -49 -107 -68 -110 -26 -5 -45 -21 -45 -38 0 -8 -4 -14 -10 -14 -8 0
-16 54 -11 82 0 4 -10 15 -24 24 -28 18 -49 9 -60 -27 -4 -11 -12 -18 -19 -17
-6 2 -13 -1 -14 -6 -4 -17 30 -15 57 2 l26 16 -24 -27 c-14 -15 -33 -27 -43
-27 -11 0 -16 -5 -13 -11 4 -5 21 -9 38 -7 29 3 32 0 35 -26 5 -43 -6 -76 -26
-76 -16 1 -16 1 1 11 11 6 17 22 17 44 0 31 -3 35 -25 35 -19 0 -25 -5 -25
-22 0 -21 1 -21 13 -3 13 17 14 17 20 -4 4 -16 1 -21 -14 -21 -14 0 -19 -7
-19 -26 0 -23 3 -25 33 -22 l32 3 3 88 c3 82 1 89 -18 94 -11 3 -20 10 -20 15
0 6 7 7 16 4 9 -3 20 -6 25 -6 6 0 9 -42 7 -102 l-3 -103 -39 -3 c-46 -4 -56
7 -52 63 2 24 -3 47 -11 57 -14 15 -17 14 -44 -15 -15 -18 -29 -27 -29 -21 0
6 11 21 25 34 l25 23 -22 19 c-28 24 -32 23 -24 -12 5 -25 2 -30 -14 -30 -18
0 -20 7 -20 56 l0 55 38 -3 c34 -3 37 -5 35 -32 -2 -31 11 -56 30 -56 7 0 7 4
-1 12 -22 22 -14 48 16 48 23 1 25 2 9 11 -9 5 -22 7 -27 4 -6 -3 -10 1 -10
10 0 9 -4 13 -10 10 -5 -3 -10 -2 -10 2 0 5 -15 10 -34 11 -41 3 -71 -29 -56
-58 6 -11 5 -21 -3 -30 -9 -10 -9 -11 1 -5 9 4 12 2 11 -6 -2 -8 2 -24 9 -36
7 -13 9 -23 5 -23 -5 0 -14 -9 -21 -21 -12 -18 -11 -20 6 -17 11 2 30 -6 43
-17 l24 -20 -24 28 c-14 15 -22 29 -19 32 2 3 13 -4 22 -14 11 -12 24 -17 34
-13 12 4 11 -2 -6 -25 -32 -45 -26 -54 10 -13 17 19 28 30 25 24 -13 -23 19
-48 64 -49 54 -1 68 15 69 73 0 35 4 45 20 49 11 3 20 14 20 24 0 11 4 19 9
19 5 0 16 3 25 6 9 3 16 1 16 -5 0 -6 -10 -11 -22 -11 -19 0 -20 -2 -8 -10 13
-9 13 -10 0 -11 -10 0 -8 -3 5 -9 17 -7 17 -9 3 -9 -10 -1 -18 -5 -18 -11 0
-5 7 -7 15 -4 8 4 15 1 15 -5 0 -6 -9 -11 -20 -11 -11 0 -20 7 -20 15 0 8 -7
15 -15 15 -33 0 2 -45 40 -52 13 -2 21 -12 22 -28 4 -46 9 -65 26 -96 9 -17
13 -35 9 -39 -4 -5 -2 -5 5 -1 6 3 14 2 18 -4 3 -5 12 -10 18 -10 7 0 4 5 -5
11 -46 26 -68 235 -35 322 10 26 22 47 27 47 13 0 5 33 -9 38 -8 3 -9 8 -2 16
6 7 2 24 -14 49 -12 21 -26 34 -29 28z m34 -67 c0 -8 -5 -12 -10 -9 -6 4 -8
11 -5 16 9 14 15 11 15 -7z m-270 -229 c-13 -14 -28 -25 -33 -25 -6 0 0 11 13
25 13 14 28 25 33 25 6 0 0 -11 -13 -25z"/>
<path d="M2200 2275 c0 -23 -10 -30 -33 -26 -5 1 -6 -3 -2 -9 4 -6 12 -7 24 0
12 6 21 6 28 -1 6 -6 16 -3 27 10 17 19 17 20 -13 36 -31 15 -31 15 -31 -10z
m40 -9 c0 -3 -4 -8 -10 -11 -5 -3 -10 -1 -10 4 0 6 5 11 10 11 6 0 10 -2 10
-4z"/>
<path d="M900 2281 c0 -5 7 -12 16 -15 14 -5 15 -4 4 9 -14 17 -20 19 -20 6z"/>
<path d="M2165 2280 c-3 -5 1 -10 10 -10 9 0 13 5 10 10 -3 6 -8 10 -10 10 -2
0 -7 -4 -10 -10z"/>
<path d="M954 2229 c-67 -107 -77 -257 -25 -384 21 -50 121 -164 146 -165 5 0
-12 21 -38 46 -86 82 -127 174 -127 283 0 87 34 194 78 244 9 10 11 17 4 17
-7 0 -23 -19 -38 -41z"/>
<path d="M892 2235 c-6 -14 -8 -25 -3 -25 8 0 23 41 17 47 -1 2 -8 -8 -14 -22z"/>
<path d="M2294 2241 c7 -10 31 -9 42 2 4 4 -5 7 -20 7 -15 0 -25 -4 -22 -9z"/>
<path d="M2168 2182 c-27 -5 -34 -49 -31 -191 2 -101 6 -138 17 -149 18 -18
291 -19 312 -1 20 16 17 297 -3 321 -15 17 -48 14 -37 -3 3 -5 2 -14 -1 -19
-6 -10 -65 18 -65 31 0 4 -9 9 -20 12 -13 3 -38 -7 -70 -29 -28 -19 -50 -31
-50 -27 0 4 -7 -2 -15 -13 -13 -17 -14 -17 -15 -1 0 15 11 22 33 18 9 -1 9 31
-1 44 -8 11 -27 13 -54 7z m52 -24 c0 -6 -11 -8 -25 -6 l-25 5 0 -148 0 -149
134 0 c119 0 134 2 138 18 2 9 4 79 3 155 -1 75 3 133 7 129 5 -5 7 -76 6
-158 l-3 -149 -147 -3 c-136 -2 -148 -1 -149 15 -1 33 -1 187 0 244 1 55 1 56
31 57 17 0 30 -4 30 -10z m164 -27 l51 -40 -3 -80 -4 -81 -66 0 c-67 0 -132
-25 -132 -50 0 -14 -23 -8 -37 10 -17 22 -4 34 17 15 16 -14 18 -14 24 0 3 10
-1 18 -12 22 -9 4 -20 11 -25 17 -8 12 -7 139 1 131 3 -3 5 -32 4 -65 0 -35 3
-60 9 -60 6 0 9 28 8 72 l-2 72 96 -3 c54 -1 97 -1 97 1 0 3 -19 18 -43 35
l-43 31 -34 -29 c-19 -16 -39 -29 -45 -29 -12 0 66 69 79 70 5 0 32 -18 60
-39z m-34 -17 c0 -2 -7 -4 -15 -4 -8 0 -15 4 -15 10 0 5 7 7 15 4 8 -4 15 -8
15 -10z m74 -220 c3 -8 2 -14 -2 -15 -4 0 -15 -2 -24 -4 -10 -2 -20 0 -23 4
-2 5 -27 6 -55 3 -31 -3 -50 -1 -50 6 0 15 25 20 92 19 38 0 59 -4 62 -13z"/>
<path d="M2230 2040 c0 -37 2 -39 19 -29 25 16 51 4 51 -24 0 -17 -6 -23 -26
-25 -19 -1 -25 2 -22 16 2 9 11 16 21 16 9 -1 14 2 11 7 -14 23 -53 -6 -51
-37 3 -29 19 -43 39 -33 9 5 44 9 78 9 38 0 59 4 55 10 -3 6 0 10 7 10 9 0 9
3 -2 10 -10 6 -11 10 -2 10 8 0 12 17 12 50 0 47 -2 50 -25 50 -33 0 -35 -36
-2 -43 15 -4 12 -5 -8 -4 -24 2 -30 6 -29 25 0 17 -5 22 -23 22 -18 0 -23 -5
-23 -25 0 -22 -4 -25 -37 -24 -31 2 -33 3 -10 6 40 6 38 43 -3 43 -28 0 -30
-2 -30 -40z m110 -15 c0 -19 -5 -35 -10 -35 -6 0 -10 16 -8 35 1 19 6 35 10
35 4 0 8 -16 8 -35z m70 -24 c0 -5 -10 -7 -22 -3 -22 5 -22 4 -5 -15 18 -21
14 -35 -9 -26 -8 3 -14 16 -14 29 0 19 5 24 25 24 14 0 25 -4 25 -9z m-83 -43
c-3 -8 -6 -5 -6 6 -1 11 2 17 5 13 3 -3 4 -12 1 -19z"/>
<path d="M430 2105 c0 -25 5 -45 11 -45 5 0 7 5 4 11 -4 5 -4 22 -1 35 6 21 9
24 21 14 12 -10 15 -9 15 9 0 16 -6 21 -25 21 -23 0 -25 -4 -25 -45z"/>
<path d="M2655 2121 c-3 -2 -4 -38 -3 -80 l2 -76 5 74 6 74 90 0 c50 -1 81 1
70 3 -34 6 -166 10 -170 5z"/>
<path d="M2858 2113 c6 -2 18 -2 25 0 6 3 1 5 -13 5 -14 0 -19 -2 -12 -5z"/>
<path d="M2881 2084 c0 -11 3 -14 6 -6 3 7 2 16 -1 19 -3 4 -6 -2 -5 -13z"/>
<path d="M66 2040 c-8 -31 -6 -115 3 -102 6 11 9 9 13 -6 5 -17 -1 -21 -28
-27 l-34 -6 0 -129 0 -130 110 0 110 0 0 130 c0 107 -3 130 -14 130 -23 0 -30
21 -31 89 l0 65 -63 0 c-47 1 -63 -3 -66 -14z m114 -10 c0 -5 -8 -10 -17 -11
-15 0 -15 -2 2 -9 15 -6 8 -9 -28 -9 -34 -1 -47 -5 -45 -13 3 -8 19 -12 41
-10 30 3 36 1 31 -12 -4 -10 -1 -16 7 -16 9 0 10 -3 2 -11 -6 -6 -25 -9 -43
-7 -27 2 -34 9 -45 41 -12 35 -12 37 9 38 17 1 17 2 4 6 -36 9 -17 23 32 23
28 0 50 -4 50 -10z m-25 -118 c-29 -6 -29 -6 10 -11 35 -5 41 -10 51 -41 9
-26 9 -37 0 -42 -8 -6 -8 -8 0 -8 13 0 10 -128 -3 -141 -4 -4 -40 -9 -78 -10
-116 -3 -105 -15 -105 119 0 64 4 113 8 107 12 -17 42 -18 36 0 -4 11 0 15 16
15 11 0 18 5 15 10 -4 6 10 9 37 9 37 -2 39 -3 13 -7z"/>
<path d="M50 1800 c0 -5 7 -10 15 -10 8 0 15 5 15 10 0 6 -7 10 -15 10 -8 0
-15 -4 -15 -10z"/>
<path d="M188 1793 c7 -3 16 -2 19 1 4 3 -2 6 -13 5 -11 0 -14 -3 -6 -6z"/>
<path d="M53 1745 c0 -8 6 -15 14 -15 7 0 13 7 13 15 0 8 -6 15 -13 15 -8 0
-14 -7 -14 -15z"/>
<path d="M108 1733 c7 -3 16 -2 19 1 4 3 -2 6 -13 5 -11 0 -14 -3 -6 -6z"/>
<path d="M52 1684 c4 -21 22 -23 26 -1 2 10 -3 17 -13 17 -10 0 -15 -6 -13
-16z"/>
<path d="M103 1673 c9 -2 23 -2 30 0 6 3 -1 5 -18 5 -16 0 -22 -2 -12 -5z"/>
<path d="M2767 2053 c74 -3 82 -6 80 -23 -1 -18 -9 -20 -73 -20 -60 0 -73 3
-78 18 -3 10 -4 8 -3 -7 2 -23 5 -24 85 -25 l82 -1 0 33 0 32 -87 -2 -88 -2
82 -3z"/>
<path d="M2883 2025 c0 -22 2 -30 4 -17 2 12 2 30 0 40 -3 9 -5 -1 -4 -23z"/>
<path d="M2884 1890 c0 -52 1 -74 3 -47 2 26 2 68 0 95 -2 26 -3 4 -3 -48z"/>
<path d="M415 1943 c22 -22 31 -26 33 -15 2 8 -4 22 -13 31 -15 15 -16 15 -9
-4 7 -20 7 -20 -17 -1 -15 12 -12 8 6 -11z"/>
<path d="M2808 1943 c6 -2 18 -2 25 0 6 3 1 5 -13 5 -14 0 -19 -2 -12 -5z"/>
<path d="M2593 1865 c0 -38 2 -53 4 -32 2 20 2 52 0 70 -2 17 -4 1 -4 -38z"/>
<path d="M2656 1893 c-8 -52 -8 -93 2 -93 4 0 8 29 9 65 1 36 0 65 -1 65 -2 0
-6 -17 -10 -37z"/>
<path d="M2788 1923 c12 -2 32 -2 45 0 12 2 2 4 -23 4 -25 0 -35 -2 -22 -4z"/>
<path d="M2803 1873 c9 -2 25 -2 35 0 9 3 1 5 -18 5 -19 0 -27 -2 -17 -5z"/>
<path d="M531 1838 c-39 -14 -60 -48 -54 -88 7 -47 27 -67 65 -68 60 -2 145
61 133 99 -4 12 -2 19 7 19 7 0 -5 12 -27 25 -39 24 -82 29 -124 13z m89 -10
c0 -4 3 -7 8 -7 23 4 32 -4 32 -28 0 -34 -6 -43 -47 -71 -60 -42 -148 -17
-105 31 15 17 15 17 -2 11 -14 -5 -17 -3 -15 12 6 32 129 81 129 52z"/>
<path d="M534 1805 c-17 -13 -16 -14 14 -5 22 6 30 5 26 -2 -4 -6 -1 -9 6 -6
8 2 15 9 17 14 5 16 -42 15 -63 -1z"/>
<path d="M620 1800 c0 -5 5 -10 11 -10 8 0 8 -4 0 -14 -8 -9 -8 -16 -2 -20 11
-7 25 29 16 44 -8 13 -25 13 -25 0z"/>
<path d="M545 1760 c18 -8 17 -9 -7 -9 -38 -1 -36 -21 2 -21 23 0 30 4 30 20
0 14 -6 20 -22 19 -22 0 -22 -1 -3 -9z"/>
<path d="M596 1751 c-4 -5 -2 -12 3 -15 5 -4 12 -2 15 3 4 5 2 12 -3 15 -5 4
-12 2 -15 -3z"/>
<path d="M533 1713 c9 -2 25 -2 35 0 9 3 1 5 -18 5 -19 0 -27 -2 -17 -5z"/>
<path d="M2698 1823 c7 -3 16 -2 19 1 4 3 -2 6 -13 5 -11 0 -14 -3 -6 -6z"/>
<path d="M2798 1823 c7 -3 16 -2 19 1 4 3 -2 6 -13 5 -11 0 -14 -3 -6 -6z"/>
<path d="M2738 1793 c12 -2 32 -2 45 0 12 2 2 4 -23 4 -25 0 -35 -2 -22 -4z"/>
<path d="M2285 1730 c-3 -6 1 -7 9 -4 18 7 21 14 7 14 -6 0 -13 -4 -16 -10z"/>
<path d="M2426 1727 c3 -10 9 -15 12 -12 3 3 0 11 -7 18 -10 9 -11 8 -5 -6z"/>
<path d="M2332 1723 c-17 -7 -36 -43 -22 -43 5 0 10 6 10 14 0 18 33 29 63 21
17 -5 19 -4 7 4 -16 11 -37 13 -58 4z"/>
<path d="M2382 1689 c21 -12 12 -48 -16 -60 -19 -8 -19 -9 -1 -6 11 1 25 13
32 27 7 14 13 19 13 11 0 -8 3 -11 6 -8 4 4 2 13 -4 20 -7 8 -10 16 -7 18 2 3
-6 6 -18 6 -19 2 -19 0 -5 -8z"/>
<path d="M2431 1674 c0 -11 3 -14 6 -6 3 7 2 16 -1 19 -3 4 -6 -2 -5 -13z"/>
<path d="M2346 1655 c4 -8 8 -15 10 -15 2 0 4 7 4 15 0 8 -4 15 -10 15 -5 0
-7 -7 -4 -15z"/>
<path d="M1150 1640 c19 -11 42 -19 50 -19 8 0 -5 8 -29 19 -55 25 -67 25 -21
0z"/>
<path d="M2281 1619 c-1 -42 10 -50 67 -47 36 1 36 1 -8 7 -42 6 -45 8 -51 41
l-6 35 -2 -36z"/>
<path d="M412 1622 c-16 -11 -1 -94 22 -117 9 -9 14 -21 11 -26 -4 -5 1 -9 9
-9 9 0 16 2 16 5 0 12 -24 55 -32 55 -20 0 -5 19 22 29 17 5 30 15 30 20 0 11
-27 4 -47 -12 -13 -10 -18 6 -14 46 2 19 1 20 -17 9z"/>
<path d="M360 1611 c0 -5 7 -14 15 -21 16 -14 18 -10 9 14 -6 17 -24 22 -24 7z"/>
<path d="M1238 1613 c7 -3 16 -2 19 1 4 3 -2 6 -13 5 -11 0 -14 -3 -6 -6z"/>
<path d="M1278 1603 c7 -3 16 -2 19 1 4 3 -2 6 -13 5 -11 0 -14 -3 -6 -6z"/>
<path d="M2350 1600 c0 -5 7 -7 15 -4 8 4 15 8 15 10 0 2 -7 4 -15 4 -8 0 -15
-4 -15 -10z"/>
<path d="M1383 1593 c9 -2 23 -2 30 0 6 3 -1 5 -18 5 -16 0 -22 -2 -12 -5z"/>
<path d="M2466 1592 c-3 -5 1 -9 9 -9 8 0 12 4 9 9 -3 4 -7 8 -9 8 -2 0 -6 -4
-9 -8z"/>
<path d="M264 1555 c-15 -11 -35 -59 -40 -94 -3 -28 -14 -41 -14 -18 0 9 -4
18 -9 22 -6 3 -8 -25 -6 -68 2 -58 11 -92 40 -161 21 -48 36 -89 34 -91 -3 -2
-20 30 -38 71 -30 66 -51 93 -51 64 0 -5 5 -10 11 -10 5 0 7 -4 4 -10 -3 -5
-1 -10 4 -10 6 0 11 -7 11 -15 0 -9 7 -27 16 -40 20 -30 47 -118 34 -110 -6 4
-10 -1 -10 -9 0 -29 -16 -16 -28 21 -12 38 -6 65 9 42 5 -8 9 -9 9 -3 0 5 -6
18 -13 29 -11 14 -16 15 -22 5 -6 -9 -4 -11 5 -5 8 5 11 3 8 -6 -9 -26 -35
-14 -73 31 -57 67 -78 122 -73 187 4 42 11 60 33 83 37 38 46 31 12 -10 -37
-43 -44 -106 -19 -164 21 -46 92 -147 92 -129 0 5 -12 25 -26 44 -70 93 -82
181 -34 248 18 24 35 39 42 35 7 -4 8 -3 4 4 -13 22 -45 12 -81 -23 -38 -38
-47 -34 -15 8 11 13 32 28 46 31 15 4 24 10 21 13 -3 3 -21 0 -39 -6 -30 -10
-31 -9 -14 4 28 21 72 19 96 -5 10 -10 22 -16 24 -11 10 15 -41 52 -73 53 -61
2 -101 -62 -101 -161 0 -77 33 -153 94 -219 39 -42 94 -138 84 -147 -1 -2 -20
-5 -42 -8 -21 -3 -43 -10 -49 -16 -14 -14 8 -162 33 -216 10 -22 25 -66 34
-97 9 -31 21 -60 26 -63 15 -9 12 -35 -4 -35 -24 0 -34 -23 -80 -194 -51 -184
-52 -196 -32 -196 16 0 28 37 75 224 16 64 32 120 36 126 6 10 35 15 35 6 0
-12 -41 -206 -50 -236 -10 -34 -1 -58 18 -46 5 3 15 36 22 73 7 38 19 98 27
135 l15 68 115 0 c106 0 115 -1 108 -17 -3 -10 -9 -31 -12 -48 -4 -16 -12 -39
-18 -50 -7 -11 -18 -39 -25 -62 -11 -37 -11 -45 4 -67 9 -14 27 -28 41 -32 19
-5 25 -13 27 -35 0 -16 1 -34 2 -41 1 -7 -10 -15 -23 -18 -38 -9 -38 -30 -1
-30 19 0 29 4 25 10 -4 7 2 9 17 6 49 -11 73 -11 73 1 0 7 7 21 16 31 9 11 13
25 9 32 -5 8 -9 7 -14 -5 -3 -9 -10 -13 -16 -10 -6 3 -7 -1 -4 -9 5 -12 -1
-16 -26 -16 -17 0 -29 4 -26 9 8 13 -15 121 -26 121 -5 0 -8 -6 -6 -13 6 -24
-13 -17 -40 15 -19 22 -22 30 -10 25 19 -7 34 8 19 18 -12 7 -10 45 2 45 4 0
5 5 2 10 -3 6 2 10 12 10 11 0 14 3 7 8 -7 5 -6 22 4 57 12 41 16 46 23 30 17
-43 7 -121 -13 -109 -7 4 -8 -5 -3 -25 4 -19 3 -31 -4 -31 -6 0 -8 -7 -5 -15
4 -8 13 -15 21 -15 10 0 13 9 9 38 -5 31 -4 33 4 12 8 -22 9 -20 5 12 -2 21 0
38 4 38 4 0 6 17 5 37 -10 110 -10 272 0 306 10 34 14 37 46 37 23 0 30 3 22
9 -9 5 -3 8 17 7 17 -1 31 -4 31 -8 0 -5 14 -8 31 -8 21 0 28 4 23 13 -5 7 0
6 11 -3 11 -9 16 -10 11 -2 -5 8 -1 12 13 12 10 0 21 -6 24 -12 3 -10 9 -10
24 -1 11 6 40 13 64 14 34 3 44 0 47 -13 2 -9 -5 -21 -16 -27 -18 -10 -18 -13
-1 -148 10 -76 21 -179 25 -230 3 -50 10 -97 14 -103 13 -21 41 -3 36 22 -3
13 -8 73 -11 133 -3 61 -8 142 -12 180 -3 39 -6 105 -7 148 -1 76 0 78 31 103
18 14 33 31 33 37 0 18 -71 13 -85 -6 -9 -12 -44 -18 -161 -26 l-149 -10 150
6 c83 3 158 5 168 5 9 -1 15 2 13 6 -3 4 4 8 14 8 18 0 18 -2 -3 -24 -12 -13
-30 -28 -40 -34 -20 -10 -339 -12 -394 -2 -37 7 -46 27 -10 22 13 -1 36 5 51
15 15 10 44 21 64 24 20 4 42 13 49 22 7 10 41 21 90 28 l78 12 -69 -3 c-60
-3 -69 -2 -73 15 -6 22 -39 25 -78 7 -19 -8 -24 -17 -20 -32 5 -19 5 -19 -5
-3 -11 18 -50 24 -50 8 0 -5 9 -7 20 -4 11 3 20 1 20 -5 0 -6 2 -17 5 -24 6
-16 -78 -47 -157 -58 l-46 -6 -11 40 c-20 82 -23 132 -6 146 8 7 24 10 35 7
11 -3 18 -1 14 4 -8 13 3 11 36 -6 17 -9 30 -23 31 -33 0 -9 2 -27 5 -39 2
-12 -2 -23 -11 -27 -17 -6 -20 -1 -30 41 -11 53 -25 49 -19 -4 8 -60 13 -65
51 -57 30 6 31 8 25 47 -4 30 -2 38 7 32 10 -6 11 -3 1 16 -7 13 -17 27 -22
30 -19 12 24 39 63 39 54 0 75 13 99 60 24 46 26 89 5 116 -18 23 -19 56 -3
72 7 7 44 12 94 12 75 0 85 -3 114 -27 22 -18 47 -28 81 -31 48 -4 49 -4 60
27 12 35 41 41 71 14 17 -15 18 -15 18 5 0 21 -4 22 -147 25 -82 1 -182 2
-224 1 -75 -1 -76 -1 -71 24 3 14 -1 28 -8 32 -8 5 -15 16 -16 26 -4 23 -23
34 -59 33 l-30 -1 33 -8 c19 -4 38 -12 43 -17 10 -10 2 -10 -89 -4 -13 0 -20
6 -17 11 3 6 1 10 -5 10 -13 0 -9 32 5 42 5 4 1 7 -10 6 -11 0 -27 1 -35 3 -9
3 -13 -2 -11 -11 13 -46 10 -81 -9 -133 -12 -32 -24 -57 -26 -54 -2 2 3 20 11
40 21 51 17 70 -5 23 -11 -24 -20 -33 -23 -25 -4 8 -4 2 -1 -12 5 -26 -31
-117 -43 -106 -2 3 5 43 16 88 12 46 21 101 20 123 -1 38 -1 37 -14 -21 -7
-34 -18 -70 -24 -81 -6 -12 -16 -33 -21 -48 -10 -25 -9 -26 6 -13 16 13 16 12
6 -8 -12 -21 -45 -22 -57 -2 -3 4 -13 5 -21 2 -11 -4 -12 -8 -4 -13 9 -6 8
-15 -3 -36 l-16 -29 -20 47 c-12 25 -24 68 -27 95 -6 44 -5 47 9 28 8 -11 13
-23 11 -27 -3 -5 0 -8 6 -8 6 0 9 -4 5 -9 -3 -6 4 -15 16 -21 24 -13 22 -9
-13 42 -10 14 -18 36 -18 47 0 21 1 21 30 6 24 -13 29 -13 24 -1 -3 8 -15 16
-26 19 -28 8 -19 27 25 56 20 13 35 26 33 29 -3 2 -20 -6 -38 -18 l-33 -22 35
31 c19 17 40 31 47 31 7 0 13 5 13 10 0 13 -58 9 -76 -5z m241 -35 c3 -5 1
-10 -4 -10 -6 0 -11 5 -11 10 0 6 2 10 4 10 3 0 8 -4 11 -10z m45 -65 c64 -17
81 -19 60 -5 -8 5 -10 10 -4 10 12 0 34 -20 34 -32 0 -4 -7 -8 -15 -8 -8 0
-15 -4 -15 -9 0 -5 8 -8 17 -7 12 1 19 -7 21 -24 2 -14 1 -22 -4 -18 -4 4 -13
3 -20 -3 -17 -14 -2 -64 20 -63 20 2 27 -25 22 -84 -4 -55 -22 -73 -82 -79
-59 -5 -94 -21 -94 -42 0 -21 -69 46 -86 84 -7 17 -13 24 -14 18 0 -20 -58
-15 -80 7 -47 47 1 95 54 55 27 -21 36 -19 36 8 0 13 9 32 21 43 27 25 56 80
64 127 4 20 8 37 9 37 0 0 26 -7 56 -15z m440 -105 c11 -7 2 -10 -32 -10 -26
0 -50 5 -53 10 -8 13 65 13 85 0z m-646 -180 c13 0 38 -13 56 -30 l32 -30 -36
-20 c-32 -20 -77 -94 -124 -210 -9 -22 -11 -18 -11 28 -1 29 -5 62 -11 72 -7
13 -4 25 13 46 18 23 22 41 22 94 0 36 -4 74 -9 85 -6 15 -2 13 18 -7 15 -16
37 -28 50 -28z m26 -185 c0 -5 -5 -3 -10 5 -5 8 -10 20 -10 25 0 6 5 3 10 -5
5 -8 10 -19 10 -25z m-157 11 c11 -9 20 -32 22 -62 3 -27 8 -70 11 -96 4 -32
3 -48 -4 -48 -17 0 -22 15 -36 103 -7 45 -16 90 -21 100 -9 20 3 22 28 3z
m-37 -8 c10 -17 32 -178 23 -172 -4 2 -10 34 -14 71 -4 37 -14 77 -22 90 -9
13 -11 23 -5 23 6 0 14 -5 18 -12z m508 6 c9 -3 16 -11 16 -17 0 -20 -33 -47
-57 -47 -21 0 -23 3 -17 22 4 13 14 28 23 35 19 15 16 14 35 7z m-324 -96 c0
-59 8 -68 37 -41 7 6 29 11 48 11 28 0 35 -3 31 -15 -3 -8 -6 -21 -6 -29 0 -8
-10 -14 -22 -15 -13 0 -32 -5 -43 -10 -16 -8 -14 -9 10 -5 17 3 37 1 44 -4 10
-5 -16 -22 -82 -54 -54 -25 -99 -46 -102 -46 -3 0 -5 31 -5 69 0 59 6 82 35
148 41 89 55 86 55 -9z m-202 45 c5 -10 12 -44 16 -77 9 -77 19 -95 51 -89 24
5 25 3 25 -41 0 -26 5 -57 11 -68 9 -16 8 -23 -2 -29 -8 -5 50 -9 138 -9 127
0 151 -2 147 -14 -4 -12 -32 -14 -139 -13 -155 2 -158 4 -180 87 -8 29 -23 62
-35 75 -13 13 -26 50 -35 99 -8 43 -18 82 -21 87 -3 5 -1 9 5 9 6 0 14 -8 19
-17z m392 -138 c0 -30 -3 -35 -22 -35 -35 0 -47 12 -41 43 4 22 11 27 34 27
26 0 29 -3 29 -35z m414 -375 c5 -98 1 -81 -20 107 -15 123 -23 231 -19 240 9
21 30 -170 39 -347z m-482 318 c-7 -7 -12 -19 -12 -27 0 -12 3 -11 13 3 7 10
22 17 33 15 15 -3 20 -14 22 -47 l3 -42 -53 0 c-29 1 -75 -1 -103 -3 -62 -6
-105 2 -105 18 0 14 165 94 195 95 15 0 16 -3 7 -12z m-69 -163 c115 0 127 -2
127 -18 0 -14 -4 -16 -19 -8 -10 6 -82 11 -160 12 -122 1 -140 3 -130 15 8 10
19 12 33 7 12 -5 78 -8 149 -8z m-266 -247 c-3 -8 -6 -5 -6 6 -1 11 2 17 5 13
3 -3 4 -12 1 -19z"/>
<path d="M530 1399 c0 -5 -4 -8 -9 -5 -8 5 -30 -15 -47 -44 -6 -11 -2 -11 16
3 14 9 35 22 48 27 25 11 30 30 7 30 -8 0 -15 -5 -15 -11z"/>
<path d="M490 1310 c-24 -24 -25 -30 -4 -56 15 -18 15 -18 5 3 -9 17 -7 26 9
45 l19 23 1 -27 c0 -31 17 -45 33 -29 14 14 -7 61 -28 61 -8 0 -24 -9 -35 -20z"/>
<path d="M618 1263 c-10 -2 -18 -11 -18 -19 0 -17 36 -19 46 -2 5 7 3 8 -6 3
-10 -6 -12 -4 -7 8 3 10 5 16 4 16 -1 -1 -10 -3 -19 -6z"/>
<path d="M341 1240 c1 -33 14 -49 29 -40 13 8 12 13 -7 32 -16 16 -23 18 -22
8z"/>
<path d="M410 1219 c0 -5 5 -7 10 -4 6 3 10 8 10 11 0 2 -4 4 -10 4 -5 0 -10
-5 -10 -11z"/>
<path d="M640 1210 c-9 -6 -10 -10 -3 -10 6 0 15 5 18 10 8 12 4 12 -15 0z"/>
<path d="M435 1185 c11 -8 26 -19 33 -25 9 -8 12 -7 12 2 0 8 -15 19 -32 26
-30 10 -31 10 -13 -3z"/>
<path d="M580 1192 c0 -16 40 -26 53 -13 8 8 7 11 -5 11 -9 0 -23 3 -32 6 -9
3 -16 1 -16 -4z"/>
<path d="M2470 1567 c0 -2 13 -21 29 -41 19 -24 31 -32 34 -23 3 8 -10 26 -29
41 -19 15 -34 25 -34 23z"/>
<path d="M508 1553 c6 -2 18 -2 25 0 6 3 1 5 -13 5 -14 0 -19 -2 -12 -5z"/>
<path d="M568 1553 c7 -3 16 -2 19 1 4 3 -2 6 -13 5 -11 0 -14 -3 -6 -6z"/>
<path d="M338 1533 c7 -3 16 -2 19 1 4 3 -2 6 -13 5 -11 0 -14 -3 -6 -6z"/>
<path d="M546 1531 c-4 -5 3 -7 14 -4 23 6 26 13 6 13 -8 0 -17 -4 -20 -9z"/>
<path d="M350 1514 l-25 -15 25 6 c24 6 25 6 5 -10 -11 -9 -30 -18 -42 -22
-13 -3 -23 -9 -23 -14 0 -5 12 -4 26 1 31 12 34 12 34 2 0 -5 -10 -14 -22 -21
-14 -7 -15 -9 -5 -6 14 4 17 1 13 -13 -11 -39 -18 -87 -12 -81 9 9 37 121 32
126 -3 3 4 14 15 26 34 36 23 48 -21 21z"/>
<path d="M597 1519 c7 -7 15 -10 18 -7 3 3 -2 9 -12 12 -14 6 -15 5 -6 -5z"/>
<path d="M295 1490 c-3 -6 1 -7 9 -4 18 7 21 14 7 14 -6 0 -13 -4 -16 -10z"/>
<path d="M800 1450 c0 -5 7 -7 15 -4 8 4 15 8 15 10 0 2 -7 4 -15 4 -8 0 -15
-4 -15 -10z"/>
<path d="M2015 1430 c10 -11 20 -20 22 -20 2 0 -2 9 -9 20 -7 11 -17 20 -22
20 -5 0 -1 -9 9 -20z"/>
<path d="M152 1423 c-6 -10 -15 -37 -21 -60 -11 -39 -9 -48 14 -98 15 -30 36
-60 48 -66 20 -9 21 -9 4 4 -10 8 -20 28 -23 43 -3 16 -9 33 -15 39 -12 13
-11 102 2 127 6 11 8 22 6 25 -3 2 -10 -4 -15 -14z"/>
<path d="M1671 1413 c19 -48 80 -152 103 -177 l28 -31 -17 30 -17 30 20 -25
c11 -13 18 -28 15 -33 -8 -14 38 -57 62 -57 25 0 45 18 45 41 0 28 42 122 73
162 16 20 26 44 23 52 -8 21 -28 19 -24 -2 1 -10 -4 -27 -12 -38 -12 -16 -21
-19 -45 -14 -16 4 -22 7 -12 8 22 1 47 24 47 43 0 10 -3 9 -10 -2 -13 -21
-217 -22 -225 -1 -3 8 -8 11 -12 8 -3 -4 -15 -2 -25 4 -11 6 -19 7 -17 2z m43
-24 c-2 -4 0 -9 6 -11 5 -1 6 -9 1 -16 -5 -9 -10 -6 -18 11 -9 19 -8 24 3 24
7 0 11 -4 8 -8z m170 -34 c3 -8 16 -15 29 -15 13 0 26 -2 29 -5 3 -3 -10 -35
-29 -70 -19 -36 -29 -65 -23 -65 6 0 8 -4 5 -10 -11 -17 -24 -11 -20 10 2 11
15 42 29 70 14 27 22 50 18 50 -4 0 -18 -23 -31 -50 -13 -28 -27 -50 -33 -50
-5 0 -7 -4 -4 -9 3 -5 -2 -15 -11 -22 -15 -12 -16 -12 -10 3 4 12 -10 39 -44
84 -29 37 -48 72 -45 80 8 21 132 20 140 -1z m-116 -91 c-4 -3 -12 5 -18 18
-12 22 -12 22 6 6 10 -10 15 -20 12 -24z"/>
<path d="M1124 1386 c-3 -14 -3 -29 0 -35 3 -5 1 -11 -4 -13 -6 -2 -24 -43
-40 -92 -17 -49 -37 -97 -45 -106 -17 -18 -12 -45 10 -53 7 -3 16 -26 19 -51
5 -33 11 -44 22 -39 9 3 14 -2 14 -15 0 -12 9 -23 20 -27 24 -8 26 -23 5 -31
-22 -9 -47 15 -40 37 11 33 -11 20 -28 -16 -15 -31 -15 -39 -3 -63 21 -40 46
-59 89 -67 32 -6 42 -4 63 16 l26 24 -59 5 c-51 4 -58 8 -61 28 -2 14 2 22 11
22 8 0 21 7 28 16 11 14 10 18 -5 30 -10 7 -23 15 -28 16 -4 2 -14 31 -20 66
-9 48 -9 65 0 74 9 9 12 8 12 -6 0 -30 67 -147 125 -219 l55 -67 0 -88 c0 -54
-5 -93 -12 -100 -9 -9 -9 -18 0 -37 13 -27 16 -115 6 -151 -4 -14 -17 -24 -36
-28 -59 -12 -113 -94 -72 -110 28 -11 182 -6 209 6 36 16 34 62 -5 96 -16 15
-30 32 -30 39 0 7 -4 13 -10 13 -6 0 -10 26 -10 59 0 33 5 63 10 66 6 3 10 17
10 30 0 13 -4 27 -10 30 -5 3 -10 46 -10 94 l0 89 103 1 103 2 -4 -88 c-2 -48
-8 -92 -13 -97 -12 -13 -11 -53 1 -61 14 -9 12 -111 -2 -137 -7 -12 -23 -31
-36 -42 -12 -12 -25 -36 -28 -53 -6 -29 -3 -34 20 -43 42 -16 189 -13 212 4
18 14 18 17 4 43 -8 15 -36 38 -62 51 -54 27 -65 55 -54 139 7 53 7 51 0 183
l-5 95 69 77 c103 116 152 237 124 308 -8 21 -10 17 -9 -25 2 -49 1 -50 -38
-70 -49 -24 -135 -26 -223 -5 -52 12 -71 12 -120 1 -100 -23 -153 -24 -207 -4
-41 16 -51 24 -56 48 -5 24 -7 25 -8 8 0 -13 -5 -23 -10 -23 -10 0 -9 4 28
122 13 40 19 78 15 93 -4 15 -1 32 6 40 8 10 9 15 1 15 -6 0 -13 -11 -17 -24z
m-15 -115 c-6 -18 -13 -30 -15 -28 -2 2 1 18 7 36 6 18 13 30 15 28 2 -2 -1
-18 -7 -36z m-25 -80 c-4 -17 -9 -30 -11 -27 -3 2 -2 19 2 36 4 17 9 30 11 27
2 -2 1 -18 -2 -36z m-14 -73 c0 -19 -2 -20 -10 -8 -13 19 -13 30 0 30 6 0 10
-10 10 -22z m198 -35 c26 3 77 11 114 18 58 11 74 11 127 -4 76 -21 124 -21
185 -1 26 9 49 14 52 11 6 -6 -27 -77 -43 -95 -7 -7 -13 -17 -13 -21 0 -12
-99 -111 -113 -112 -7 -1 -28 -3 -47 -5 -71 -5 -120 -16 -120 -25 0 -5 -9 -9
-20 -9 -11 0 -20 6 -20 13 0 9 -2 9 -9 -1 -4 -8 -11 -13 -15 -13 -30 4 -31 0
-25 -111 3 -62 2 -117 -3 -122 -11 -13 -22 0 -13 14 12 20 5 198 -9 225 -7 14
-15 23 -17 20 -3 -2 -13 11 -24 30 -10 19 -22 35 -26 35 -11 0 -87 124 -95
154 l-6 25 46 -15 c28 -10 65 -14 94 -11z m-168 -203 c0 -9 5 -21 12 -28 9 -9
8 -12 -5 -12 -10 0 -19 11 -23 28 -3 15 -8 36 -10 47 -5 20 -5 20 10 1 9 -11
16 -27 16 -36z m479 -28 c-20 -15 -36 -17 -94 -12 -61 5 -66 7 -35 13 19 4 53
8 75 10 22 2 48 4 59 5 16 2 15 -1 -5 -16z m-414 -13 c10 -14 1 -21 -19 -13
-9 3 -13 10 -10 15 7 12 21 11 29 -2z m398 -231 c-2 -5 -11 -8 -18 -8 -11 0
-12 6 -5 26 6 14 11 49 11 77 2 50 2 49 9 -18 4 -38 6 -73 3 -77z m-225 -166
c9 -14 27 -36 39 -49 28 -27 29 -49 4 -63 -25 -13 -188 -13 -196 0 -12 19 16
50 64 71 55 23 60 33 63 124 l2 60 3 -59 c2 -32 12 -70 21 -84z m228 10 c4
-28 13 -36 48 -52 50 -21 83 -59 63 -72 -18 -11 -175 -10 -198 2 -18 10 -18
13 -4 40 8 16 24 34 34 40 20 10 24 23 38 120 l8 55 2 -50 c2 -27 6 -65 9 -83z"/>
<path d="M2080 1389 c-8 -10 -24 -21 -35 -22 -30 -6 -55 -18 -55 -27 0 -11 60
6 74 20 6 6 76 10 173 10 148 0 163 -2 164 -17 2 -33 -3 -47 -22 -61 -12 -8
-19 -25 -19 -46 0 -29 3 -32 35 -34 19 -2 35 2 35 8 0 5 -11 10 -25 10 -28 0
-34 17 -9 27 13 5 13 7 2 15 -10 7 -10 11 4 22 11 8 17 25 16 48 -2 45 -13 48
-188 48 -71 0 -130 4 -132 9 -1 5 -10 0 -18 -10z"/>
<path d="M164 1375 c-3 -13 -1 -37 4 -52 9 -25 10 -23 11 25 1 56 -5 67 -15
27z"/>
<path d="M2480 1393 c1 -11 71 -55 77 -49 8 7 -48 56 -63 56 -8 0 -14 -3 -14
-7z"/>
<path d="M282 1351 c13 -16 30 -32 38 -36 8 -3 -1 10 -19 29 -42 44 -51 46
-19 7z"/>
<path d="M1375 1323 c-31 -34 -32 -55 -2 -87 23 -25 76 -48 63 -27 -4 6 -1 9
7 5 18 -7 57 41 57 71 0 29 -40 65 -73 65 -16 0 -36 -11 -52 -27z m20 -14
c-15 -29 -15 -32 2 -51 12 -14 25 -18 45 -14 41 8 34 -1 -9 -13 -40 -11 -68 1
-59 25 3 7 1 14 -4 16 -5 2 0 18 11 36 26 41 35 42 14 1z m73 -1 c32 -32 -11
-69 -52 -46 -29 16 -11 58 24 58 9 0 21 -5 28 -12z"/>
<path d="M1385 1240 c3 -5 11 -10 16 -10 6 0 7 5 4 10 -3 6 -11 10 -16 10 -6
0 -7 -4 -4 -10z"/>
<path d="M1415 1300 c-8 -13 3 -30 20 -30 14 0 27 24 18 34 -10 9 -31 7 -38
-4z m35 -4 c0 -3 -4 -8 -10 -11 -5 -3 -10 -1 -10 4 0 6 5 11 10 11 6 0 10 -2
10 -4z"/>
<path d="M2466 1311 c-14 -26 -14 -30 1 -35 20 -8 35 12 29 37 -5 22 13 18 28
-6 8 -12 7 -23 -2 -38 -12 -19 -11 -19 8 -9 25 13 26 42 2 63 -27 25 -50 21
-66 -12z"/>
<path d="M1166 1251 c-9 -39 -16 -77 -16 -85 0 -19 16 -21 26 -4 4 7 3 8 -4 4
-8 -5 -12 0 -12 13 0 12 6 20 13 19 8 -2 13 11 14 37 1 22 5 50 9 63 4 13 2
22 -4 22 -6 0 -18 -31 -26 -69z"/>
<path d="M2020 1291 c0 -6 5 -13 10 -16 6 -3 10 1 10 9 0 9 -4 16 -10 16 -5 0
-10 -4 -10 -9z"/>
<path d="M2073 1253 c-58 -4 -62 -8 -88 -77 -13 -36 -15 -51 -7 -54 7 -2 12
-12 12 -23 0 -12 10 -23 26 -30 30 -11 24 -24 -9 -24 -20 0 -22 -4 -19 -55 l3
-55 -65 0 c-35 0 -62 3 -59 8 6 10 -9 9 -27 -3 -17 -10 -17 -10 32 -32 45 -21
47 -35 31 -208 -22 -242 -27 -379 -13 -404 9 -18 10 -36 2 -70 -8 -41 -7 -48
8 -56 13 -7 21 -5 30 5 11 13 10 14 -3 10 -8 -4 -18 -2 -22 4 -3 6 1 11 9 11
12 0 14 5 7 23 -5 12 -8 58 -6 102 2 77 5 100 26 263 5 40 12 103 15 140 4 37
8 68 9 70 1 1 31 -8 66 -22 35 -13 70 -21 78 -18 10 3 12 -3 7 -24 -6 -30 -10
-79 -22 -227 -6 -86 -7 -88 -27 -74 -21 14 -39 46 -18 33 7 -5 9 -1 4 10 -4
11 -2 15 4 11 6 -4 13 0 17 8 11 31 -25 12 -43 -22 -10 -20 -8 -25 25 -45 l36
-23 -6 -77 c-6 -75 -1 -128 13 -128 20 1 30 23 34 85 l6 70 -11 -52 c-15 -71
-30 -68 -23 5 9 94 25 372 25 439 0 35 -4 63 -10 63 -5 0 -10 -6 -10 -14 0
-24 -13 -25 -60 -4 -24 11 -58 22 -75 23 -25 2 -31 7 -33 30 -4 28 0 28 56 8
22 -9 13 7 -10 18 -20 8 -19 9 7 4 17 -4 38 -16 47 -28 18 -24 29 -25 183 -31
148 -5 142 -3 153 -33 l10 -28 2 25 c1 14 1 33 0 44 -1 16 3 18 37 11 21 -4
39 -8 40 -8 1 -1 -2 -18 -6 -37 -5 -28 -13 -36 -39 -44 -31 -9 -32 -11 -32
-62 l0 -54 68 0 c37 0 74 5 82 10 17 11 0 13 -82 10 -47 -1 -48 -1 -48 29 0
28 3 31 33 32 60 2 72 -2 107 -41 31 -35 41 -39 90 -42 32 -2 55 1 56 7 0 6 4
26 7 45 4 19 9 51 12 70 2 19 4 36 4 38 1 1 10 -2 21 -8 19 -10 19 -13 5 -40
-8 -16 -15 -36 -15 -45 0 -9 -6 -28 -14 -44 -19 -36 -4 -66 18 -36 18 24 46
101 46 126 0 10 6 22 14 26 8 4 17 19 20 33 2 14 10 48 16 75 18 86 19 109 3
128 -16 17 -59 25 -49 8 13 -20 -100 25 -120 48 -22 26 -51 25 -89 -3 -17 -12
-20 -26 -20 -83 0 -64 -1 -68 -24 -71 -13 -2 -27 0 -32 5 -14 14 1 44 19 41 8
-2 17 2 19 9 3 7 -3 9 -18 6 -19 -5 -21 -3 -16 18 4 13 7 27 7 30 0 4 10 10
23 13 21 7 21 7 2 16 -11 5 -15 9 -9 9 5 1 19 8 30 17 16 13 17 15 1 10 -14
-4 -16 -1 -11 19 5 21 2 25 -14 25 -12 0 -23 4 -27 9 -3 5 -30 17 -59 25 -39
12 -55 22 -59 37 -3 12 -10 18 -15 15 -15 -9 -2 -46 22 -61 11 -7 38 -17 59
-20 23 -5 44 -16 53 -30 13 -20 12 -27 -5 -68 -11 -26 -25 -65 -31 -87 -6 -22
-16 -40 -22 -40 -6 0 -30 10 -52 23 -23 13 -60 29 -83 37 -38 12 -44 11 -73
-10 -17 -12 -29 -25 -26 -28 4 -3 16 4 29 16 13 12 29 22 36 22 7 0 3 -8 -9
-18 -13 -11 -20 -24 -16 -30 11 -18 29 -14 22 3 -3 10 -1 15 7 13 6 -1 22 2
35 6 16 5 34 1 60 -14 39 -23 158 -49 228 -50 25 0 47 -6 54 -16 40 -47 -103
-69 -172 -26 -33 21 -48 22 -232 22 -115 0 -196 4 -196 9 0 6 -38 21 -85 36
-90 27 -110 41 -47 31 32 -5 184 -10 220 -7 6 1 12 6 12 12 0 6 -7 9 -15 5 -8
-3 -15 -1 -15 4 0 6 -7 10 -15 10 -8 0 -15 -7 -15 -15 0 -8 -6 -12 -13 -9 -8
3 -13 19 -12 39 0 27 -3 35 -17 35 -11 0 -18 -7 -18 -20 0 -11 7 -20 15 -20 8
0 15 -4 15 -10 0 -5 -9 -10 -20 -10 -18 0 -20 6 -19 50 1 28 7 50 13 51 6 0
34 0 63 -1 76 -2 103 19 103 81 0 26 -5 51 -11 55 -6 3 -8 17 -5 29 7 29 -17
56 -47 53 -12 -1 -45 -3 -74 -5z m102 -19 c11 -12 13 -20 5 -29 -7 -9 -6 -16
5 -25 9 -8 15 -29 15 -57 0 -36 -4 -46 -20 -50 -11 -3 -17 -10 -13 -15 4 -7
-14 -8 -52 -3 -72 9 -85 13 -85 31 0 8 -5 14 -11 14 -8 0 -9 11 -4 33 4 17 8
48 9 67 1 33 3 35 39 38 37 3 38 2 35 -25 -2 -20 2 -29 15 -31 14 -3 17 4 17
32 0 40 17 47 45 20z m490 -190 c37 -40 41 -77 19 -169 -4 -16 -3 -17 5 -5 15
22 25 -12 17 -58 -4 -20 -9 -53 -12 -72 -14 -104 -11 -99 -57 -98 -34 0 -47 7
-72 33 -16 18 -43 40 -60 49 l-30 17 30 -7 c17 -4 41 -7 55 -7 14 1 31 -4 39
-10 11 -10 13 -9 9 3 -3 10 -28 18 -71 25 -67 10 -71 15 -42 53 1 1 15 -3 31
-9 40 -15 92 -13 110 6 9 8 19 15 24 15 12 0 20 28 14 45 -7 17 -48 31 -77 26
-17 -2 -18 4 -15 68 2 41 -1 73 -7 75 -13 6 33 46 52 46 7 0 25 -12 38 -26z
m-645 -57 c0 -18 -5 -39 -10 -47 -7 -11 -10 0 -10 38 0 33 4 51 10 47 6 -3 10
-21 10 -38z m809 -36 c0 -11 -3 -10 -8 4 -7 17 -9 15 -19 -15 -6 -19 -14 -55
-17 -80 -13 -81 -39 -93 -48 -22 -4 26 -10 68 -15 93 -8 43 -7 46 12 45 12 -1
24 3 27 8 4 5 5 -13 3 -40 -3 -45 -3 -46 5 -12 4 20 14 44 21 53 13 16 15 15
27 -1 7 -10 13 -25 12 -33z m-19 -108 c-6 -29 -16 -56 -22 -59 -7 -5 -9 -2 -5
8 3 9 11 45 18 79 7 35 15 55 17 44 2 -10 -1 -43 -8 -72z m-855 39 c-3 -3 -11
0 -18 7 -9 10 -8 11 6 5 10 -3 15 -9 12 -12z m322 -58 c-3 -3 -12 -4 -19 -1
-8 3 -5 6 6 6 11 1 17 -2 13 -5z"/>
<path d="M2140 1232 c0 -4 6 -14 13 -21 10 -11 10 -13 0 -7 -7 4 -13 2 -13 -3
0 -15 15 -14 29 3 10 12 8 17 -8 26 -12 6 -21 7 -21 2z"/>
<path d="M2037 1223 c-15 -14 -6 -24 20 -21 26 3 46 28 23 28 -6 0 -8 -6 -4
-12 6 -10 4 -10 -7 0 -15 14 -23 15 -32 5z"/>
<path d="M2064 1156 c-9 -24 3 -47 21 -40 18 7 16 45 -2 52 -7 2 -16 -3 -19
-12z"/>
<path d="M2142 1158 c-16 -16 -15 -35 1 -40 32 -12 50 19 24 41 -10 8 -17 7
-25 -1z"/>
<path d="M2110 1110 c0 -5 5 -10 11 -10 5 0 7 5 4 10 -3 6 -8 10 -11 10 -2 0
-4 -4 -4 -10z"/>
<path d="M2075 1080 c5 -9 74 -5 84 5 2 3 -17 5 -43 5 -27 0 -45 -4 -41 -10z"/>
<path d="M2743 920 c0 -25 2 -35 4 -22 2 12 2 32 0 45 -2 12 -4 2 -4 -23z"/>
<path d="M2703 1225 c7 -13 14 -20 15 -14 5 14 -6 39 -17 39 -5 0 -4 -11 2
-25z"/>
<path d="M2662 1227 c-14 -17 2 -42 22 -34 20 8 20 21 2 36 -10 8 -16 8 -24
-2z"/>
<path d="M2450 1210 c0 -13 5 -18 15 -14 8 4 15 10 15 14 0 4 -7 10 -15 14
-10 4 -15 -1 -15 -14z"/>
<path d="M681 1104 c2 -11 0 -25 -4 -31 -5 -9 -3 -13 7 -13 18 0 22 45 5 56
-6 4 -9 -1 -8 -12z"/>
<path d="M2620 1100 c0 -5 5 -10 11 -10 5 0 7 5 4 10 -3 6 -8 10 -11 10 -2 0
-4 -4 -4 -10z"/>
<path d="M2201 1042 c-1 -10 -19 -13 -76 -10 -41 2 -75 0 -75 -4 0 -4 33 -8
73 -10 67 -3 72 -5 75 -26 2 -13 -4 -34 -12 -48 -13 -18 -13 -24 -3 -24 20 0
35 53 27 96 -4 22 -8 33 -9 26z"/>
<path d="M2227 1015 c7 -49 13 -58 13 -19 0 16 -5 36 -10 44 -6 10 -7 2 -3
-25z"/>
<path d="M2145 990 c-8 -14 3 -30 21 -30 8 0 14 9 14 20 0 21 -24 28 -35 10z"/>
<path d="M873 983 c9 -2 25 -2 35 0 9 3 1 5 -18 5 -19 0 -27 -2 -17 -5z"/>
<path d="M930 965 c0 -15 4 -24 10 -20 6 3 10 12 10 20 0 8 -4 17 -10 20 -6 4
-10 -5 -10 -20z"/>
<path d="M2110 976 c0 -9 5 -16 10 -16 6 0 10 4 10 9 0 6 -4 13 -10 16 -5 3
-10 -1 -10 -9z"/>
<path d="M2313 918 c-33 -16 -28 -25 15 -31 20 -3 53 -8 72 -11 l35 -6 -35 14
c-19 8 -48 15 -64 15 -28 1 -29 2 -10 16 22 17 18 18 -13 3z"/>
<path d="M2203 903 c9 -2 23 -2 30 0 6 3 -1 5 -18 5 -16 0 -22 -2 -12 -5z"/>
<path d="M2108 893 c12 -2 32 -2 45 0 12 2 2 4 -23 4 -25 0 -35 -2 -22 -4z"/>
<path d="M645 873 c121 -7 243 -7 238 0 -2 4 -68 6 -146 5 -78 -1 -119 -3 -92
-5z"/>
<path d="M2138 873 c39 -2 105 -2 145 0 39 1 7 3 -73 3 -80 0 -112 -2 -72 -3z"/>
<path d="M632 769 c-14 -5 -17 -19 -17 -83 0 -42 3 -69 7 -59 6 16 7 16 7 -3
1 -11 -3 -24 -8 -30 -5 -5 -12 -45 -15 -89 -7 -93 7 -73 18 25 4 36 12 70 18
77 7 9 7 23 -1 44 -12 35 -9 45 9 34 8 -5 10 -26 6 -64 -3 -31 -5 -66 -6 -79
0 -13 -4 -21 -8 -18 -5 3 -6 -8 -4 -25 2 -16 -1 -36 -8 -44 -7 -9 -10 -18 -7
-21 5 -5 30 31 32 46 1 3 7 36 14 74 13 65 15 87 12 128 0 10 -15 25 -32 33
-44 23 -32 36 36 39 62 3 88 -1 81 -13 -5 -7 16 -289 30 -417 6 -50 7 -52 38
-52 17 0 36 -1 41 -3 6 -1 17 1 25 4 8 3 24 8 35 10 11 3 -8 4 -43 3 -76 -1
-81 5 -83 94 0 36 -2 72 -3 80 -2 8 -6 51 -10 95 -14 179 -18 204 -35 211 -21
9 -106 11 -129 3z"/>
<path d="M843 773 c-13 -2 -23 -9 -23 -14 0 -13 43 -5 48 9 2 7 2 11 0 11 -1
-1 -13 -4 -25 -6z"/>
<path d="M2191 770 c-9 -5 -19 -55 -26 -135 -3 -27 -7 -70 -10 -95 -4 -43 -4
-43 5 -10 5 19 12 62 15 95 3 33 7 76 11 95 l5 35 65 1 c54 1 64 -1 64 -15 0
-10 -13 -21 -32 -26 -27 -8 -36 -18 -48 -55 -9 -25 -30 -75 -48 -113 -17 -37
-32 -69 -32 -72 0 -9 41 -5 61 5 15 8 23 7 34 -3 8 -8 11 -17 8 -21 -4 -3 3
-6 15 -6 30 0 28 18 -3 32 -18 8 -25 19 -25 39 0 15 -6 29 -12 32 -10 3 -9 13
5 41 9 20 17 43 17 50 0 19 37 63 45 54 9 -8 -35 -118 -47 -118 -4 0 -8 -4 -8
-10 0 -5 6 -10 13 -10 12 0 29 32 54 100 l12 35 0 -55 c1 -39 -2 -51 -9 -40
-7 11 -10 7 -10 -17 0 -18 -5 -33 -11 -33 -6 0 -1 -9 12 -20 l24 -19 -33 3
c-38 4 -31 -9 11 -19 24 -6 27 -4 27 18 0 14 -5 29 -10 32 -7 4 -6 14 2 28 11
21 12 176 1 187 -7 7 -133 16 -142 10z m43 -239 c3 -5 -1 -14 -9 -21 -13 -10
-15 -9 -15 9 0 21 14 28 24 12z"/>
<path d="M821 709 c0 -19 4 -52 9 -74 7 -31 7 -24 3 30 -6 74 -13 101 -12 44z"/>
<path d="M2364 584 c-11 -33 -10 -35 15 -40 116 -28 126 -32 123 -50 -2 -13 0
-15 5 -7 5 7 49 17 98 23 116 13 120 14 123 23 6 20 -6 22 -98 13 -81 -7 -100
-12 -100 -25 -1 -11 -5 -8 -15 9 -7 14 -11 35 -8 47 4 19 0 22 -44 28 -26 3
-57 8 -68 10 -16 3 -23 -3 -31 -31z m120 -5 c14 -12 7 -16 -44 -23 -31 -4 -39
-3 -25 3 17 8 15 10 -14 10 -28 1 -32 3 -21 16 9 11 23 13 54 9 22 -4 45 -10
50 -15z"/>
<path d="M2533 613 c9 -2 23 -2 30 0 6 3 -1 5 -18 5 -16 0 -22 -2 -12 -5z"/>
<path d="M2745 591 c6 -11 3 -13 -13 -9 -12 4 -24 3 -27 -2 -3 -4 6 -11 19
-14 23 -6 32 -19 40 -63 2 -10 14 -52 25 -93 12 -41 28 -101 37 -132 10 -36
21 -58 30 -58 17 0 18 12 2 29 -11 11 -10 12 2 6 12 -7 13 -6 4 6 -6 8 -12 22
-13 32 -3 39 -5 46 -12 41 -11 -6 -23 42 -15 61 4 10 2 14 -5 9 -8 -4 -9 1 -4
15 3 12 2 21 -4 21 -13 0 -34 77 -28 101 3 11 2 17 -3 14 -8 -5 -38 25 -32 32
2 3 0 8 -4 11 -4 4 -4 1 1 -7z"/>
<path d="M834 450 c0 -80 2 -112 3 -72 2 39 2 105 0 145 -1 39 -3 7 -3 -73z"/>
<path d="M2603 563 c9 -2 23 -2 30 0 6 3 -1 5 -18 5 -16 0 -22 -2 -12 -5z"/>
<path d="M2533 553 c9 -2 25 -2 35 0 9 3 1 5 -18 5 -19 0 -27 -2 -17 -5z"/>
<path d="M2736 495 c-6 -25 -6 -25 -129 -25 -67 1 -152 7 -189 14 -38 7 -68
10 -68 6 0 -18 115 -34 250 -35 l145 0 2 33 c3 38 -2 42 -11 7z"/>
<path d="M2797 489 c4 -13 8 -18 11 -10 2 7 -1 18 -6 23 -8 8 -9 4 -5 -13z"/>
<path d="M2318 473 c7 -3 16 -2 19 1 4 3 -2 6 -13 5 -11 0 -14 -3 -6 -6z"/>
<path d="M2230 456 c0 -8 5 -18 10 -21 6 -3 10 1 10 9 0 8 -4 18 -10 21 -5 3
-10 -1 -10 -9z"/>
<path d="M2365 460 c11 -5 29 -8 40 -8 16 0 15 2 -5 8 -34 11 -60 11 -35 0z"/>
<path d="M660 448 c0 -6 3 -9 6 -5 3 3 15 -3 27 -14 30 -28 45 -23 17 6 -25
26 -50 33 -50 13z"/>
<path d="M2181 447 c-8 -10 -7 -14 2 -14 8 0 14 6 14 14 0 7 -1 13 -2 13 -2 0
-8 -6 -14 -13z"/>
<path d="M2216 439 c5 -23 2 -26 -18 -24 -36 4 -36 4 -41 23 -4 13 -5 11 -6
-6 -1 -16 11 -30 46 -52 26 -17 53 -30 60 -30 16 0 17 22 1 38 -9 9 -9 12 1
12 7 0 11 6 8 14 -3 8 -2 17 4 20 5 2 4 3 -3 2 -7 -2 -12 -8 -11 -14 4 -19
-24 -2 -35 21 -11 21 -11 21 -6 -4z"/>
<path d="M2436 416 c6 -41 9 -41 -98 -10 -40 11 -48 11 -48 0 0 -27 89 -41
250 -39 85 1 165 5 176 8 15 3 24 -1 29 -12 3 -10 1 -19 -4 -21 -6 -2 -11 -10
-11 -18 0 -11 -16 -14 -67 -14 -38 0 -125 -3 -194 -7 l-127 -6 5 25 c4 19 -1
30 -18 42 -13 9 -28 16 -33 16 -6 0 0 -7 12 -16 12 -8 22 -24 22 -35 0 -23 -7
-22 -105 17 -76 30 -83 24 -11 -9 54 -25 55 -26 49 -61 -5 -33 -3 -36 43 -65
l48 -31 180 6 c149 5 184 9 198 23 14 13 18 37 20 115 2 72 -1 101 -10 104 -6
2 -12 -3 -12 -12 0 -23 -10 -25 -121 -31 -57 -3 -117 -8 -133 -11 -27 -6 -28
-5 -22 23 5 21 2 34 -9 43 -14 11 -15 8 -9 -24z m-101 -141 c22 -21 35 -65 19
-65 -23 0 -63 37 -66 62 -6 36 14 37 47 3z m403 8 c2 -7 -4 -13 -13 -13 -11 0
-15 -6 -10 -19 3 -10 0 -23 -7 -28 -7 -6 -86 -13 -175 -15 l-163 -5 0 27 c0
14 -5 31 -12 38 -9 9 -5 12 17 13 17 1 84 5 150 9 160 9 208 8 213 -7z"/>
<path d="M2670 266 c0 -2 6 -9 13 -15 10 -8 14 -7 14 4 0 8 -6 15 -14 15 -7 0
-13 -2 -13 -4z"/>
<path d="M2515 250 c-26 -7 -24 -8 17 -7 26 0 53 4 60 8 16 11 -35 10 -77 -1z"/>
<path d="M2380 246 c0 -8 48 -12 66 -6 13 5 5 8 -23 8 -24 0 -43 -1 -43 -2z"/>
<path d="M644 403 c-3 -16 -10 -41 -15 -56 -5 -18 -5 -36 1 -47 6 -10 8 -25 7
-32 -2 -7 -2 -10 0 -5 9 14 25 7 19 -9 -4 -10 -2 -14 6 -11 7 2 12 10 11 16
-2 6 6 11 17 11 24 0 80 27 80 39 0 11 -41 47 -62 54 -11 4 -18 17 -19 34 -1
26 -2 25 -9 -7 -5 -19 -7 -37 -4 -39 2 -2 4 1 4 7 0 13 52 -11 70 -33 10 -12
9 -16 -1 -20 -8 -2 -26 -9 -41 -14 -25 -9 -28 -8 -29 12 -1 12 -1 26 0 30 1 5
-3 6 -7 3 -5 -3 -7 -17 -4 -31 6 -33 -14 -32 -22 1 -8 29 1 65 18 76 8 5 7 8
-2 8 -10 0 -10 5 -2 20 7 13 7 20 1 20 -6 0 -13 -12 -17 -27z"/>
<path d="M573 375 c0 -27 2 -38 4 -22 2 15 2 37 0 50 -2 12 -4 0 -4 -28z"/>
<path d="M607 413 c-10 -10 -8 -83 2 -83 10 0 21 34 21 68 0 22 -10 29 -23 15z
m10 -35 c-3 -8 -6 -5 -6 6 -1 11 2 17 5 13 3 -3 4 -12 1 -19z"/>
<path d="M495 330 c3 -5 8 -10 11 -10 2 0 4 5 4 10 0 6 -5 10 -11 10 -5 0 -7
-4 -4 -10z"/>
<path d="M1940 296 c0 -22 6 -26 45 -32 54 -8 75 -1 75 24 0 20 -34 32 -91 32
-24 0 -29 -4 -29 -24z m95 -6 c3 -5 1 -10 -4 -10 -6 0 -11 5 -11 10 0 6 2 10
4 10 3 0 8 -4 11 -10z"/>
<path d="M1003 293 c9 -2 25 -2 35 0 9 3 1 5 -18 5 -19 0 -27 -2 -17 -5z"/>
<path d="M1070 283 c8 -3 32 -14 53 -25 20 -10 37 -16 37 -13 0 7 -78 45 -92
44 -9 0 -8 -2 2 -6z"/>
<path d="M925 245 c17 -13 34 -24 38 -25 5 0 -5 11 -21 25 -17 14 -34 25 -38
25 -5 0 5 -11 21 -25z"/>
<path d="M740 253 c0 -6 -2 -18 -5 -25 -4 -9 10 -23 35 -37 l42 -23 171 17
c192 18 222 23 213 33 -9 9 -139 3 -177 -8 -19 -6 -29 -5 -29 2 0 7 -4 7 -12
1 -7 -6 -44 -13 -82 -16 -60 -6 -73 -4 -100 15 -17 12 -37 28 -43 36 -7 9 -13
11 -13 5z"/>
<path d="M1760 255 c0 -3 5 -15 10 -25 8 -15 6 -21 -7 -30 -14 -8 -8 -10 27
-8 43 3 45 4 45 33 0 27 -3 30 -37 33 -21 2 -38 0 -38 -3z m70 -10 c0 -3 -9
-15 -20 -27 -11 -12 -20 -17 -20 -11 0 6 -3 18 -6 27 -5 12 0 16 20 16 14 0
26 -2 26 -5z"/>
<path d="M1682 220 l-32 -30 35 0 c19 0 38 -1 43 -2 14 -5 13 39 -1 50 -11 10
-21 6 -45 -18z m48 -11 c0 -5 -4 -9 -10 -9 -5 0 -10 7 -10 16 0 8 5 12 10 9 6
-3 10 -10 10 -16z"/>
</g>
</svg>
