<?xml version="1.0" encoding="UTF-8"?>
<!DOCTYPE svg PUBLIC "-//W3C//DTD SVG 1.1//EN" "http://www.w3.org/Graphics/SVG/1.1/DTD/svg11.dtd">
<svg xmlns="http://www.w3.org/2000/svg" version="1.1" width="860px" height="1071px" style="shape-rendering:geometricPrecision; text-rendering:geometricPrecision; image-rendering:optimizeQuality; fill-rule:evenodd; clip-rule:evenodd" xmlns:xlink="http://www.w3.org/1999/xlink">
<g><path style="opacity:1" fill="#fefefd" d="M -0.5,-0.5 C 12.8333,-0.5 26.1667,-0.5 39.5,-0.5C 30.9642,30.9689 21.7975,62.3022 12,93.5C 8.34954,111.37 5.51621,129.37 3.5,147.5C 1.57352,158.271 0.573524,169.271 0.5,180.5C 0.737305,181.791 0.403972,182.791 -0.5,183.5C -0.5,122.167 -0.5,60.8333 -0.5,-0.5 Z"/></g>
<g><path style="opacity:1" fill="#5db47c" d="M 39.5,-0.5 C 312.833,-0.5 586.167,-0.5 859.5,-0.5C 859.5,342.833 859.5,686.167 859.5,1029.5C 836.983,1039.92 814.317,1050.09 791.5,1060C 778.231,1064.21 764.898,1067.71 751.5,1070.5C 743.5,1070.5 735.5,1070.5 727.5,1070.5C 714.09,1068.39 701.09,1064.56 688.5,1059C 663.279,1046.11 639.946,1030.44 618.5,1012C 583.056,978.89 548.556,944.723 515,909.5C 498.355,885.863 481.355,862.53 464,839.5C 452.108,817.387 440.442,795.054 429,772.5C 404.758,740.246 377.592,710.413 347.5,683C 301.356,644.246 252.023,609.913 199.5,580C 177.896,565.397 156.562,550.397 135.5,535C 97.4056,503.916 66.239,467.082 42,424.5C 26.2007,392.435 15.2007,358.768 9,323.5C 7.16409,308.813 5.16409,294.146 3,279.5C 2.13858,265.987 0.971915,252.654 -0.5,239.5C -0.5,220.833 -0.5,202.167 -0.5,183.5C 0.403972,182.791 0.737305,181.791 0.5,180.5C 1.78991,181.058 2.62325,182.058 3,183.5C 3.16667,183 3.33333,182.5 3.5,182C 3.02061,170.449 3.02061,158.949 3.5,147.5C 5.51621,129.37 8.34954,111.37 12,93.5C 21.7975,62.3022 30.9642,30.9689 39.5,-0.5 Z"/></g>
<g><path style="opacity:1" fill="#79b67a" d="M 3.5,147.5 C 3.02061,158.949 3.02061,170.449 3.5,182C 3.33333,182.5 3.16667,183 3,183.5C 2.62325,182.058 1.78991,181.058 0.5,180.5C 0.573524,169.271 1.57352,158.271 3.5,147.5 Z"/></g>
<g><path style="opacity:1" fill="#fefefe" d="M -0.5,239.5 C 0.971915,252.654 2.13858,265.987 3,279.5C 5.16409,294.146 7.16409,308.813 9,323.5C 15.2007,358.768 26.2007,392.435 42,424.5C 66.239,467.082 97.4056,503.916 135.5,535C 156.562,550.397 177.896,565.397 199.5,580C 252.023,609.913 301.356,644.246 347.5,683C 377.592,710.413 404.758,740.246 429,772.5C 440.442,795.054 452.108,817.387 464,839.5C 481.355,862.53 498.355,885.863 515,909.5C 548.556,944.723 583.056,978.89 618.5,1012C 639.946,1030.44 663.279,1046.11 688.5,1059C 701.09,1064.56 714.09,1068.39 727.5,1070.5C 484.833,1070.5 242.167,1070.5 -0.5,1070.5C -0.5,793.5 -0.5,516.5 -0.5,239.5 Z"/></g>
<g><path style="opacity:1" fill="#fdfefd" d="M 859.5,1029.5 C 859.5,1043.17 859.5,1056.83 859.5,1070.5C 823.5,1070.5 787.5,1070.5 751.5,1070.5C 764.898,1067.71 778.231,1064.21 791.5,1060C 814.317,1050.09 836.983,1039.92 859.5,1029.5 Z"/></g>
</svg>
