<svg width="1138" height="883" viewBox="0 0 1138 883" fill="none" xmlns="http://www.w3.org/2000/svg">
<path d="M86.3313 305.541C86.3313 305.541 72.8194 293.443 70.9231 297.516C64.4463 311.224 57.2426 326.48 51.4015 338.817C48.9137 344.109 54.1116 346.03 59.8547 343.236C69.313 338.653 72.6397 334.542 72.6397 334.542L86.3203 305.579L86.3313 305.541Z" fill="#18406F"/>
<path d="M141.1 397.767C141.1 397.767 131.946 413.763 136.056 415.086C149.974 419.564 165.477 424.552 177.989 428.578C183.361 430.306 184.312 424.603 180.748 419.104C174.906 410.054 170.51 407.272 170.51 407.272L141.089 397.805L141.1 397.767Z" fill="#F6A62E"/>
<path d="M130.266 269.775C123.1 277.997 113.971 288.489 109.185 293.953C100.613 303.754 85.8516 304.475 85.8516 304.475L68.9901 342.736C68.9901 342.736 85.4954 350.243 100.035 353.802C114.564 357.399 143.897 342.259 143.897 342.259L135.484 397.951L177.741 411.547L218.253 324.984L130.183 269.79L130.266 269.775Z" fill="#875923"/>
<rect width="526" height="344" rx="16" transform="matrix(1 0 0.0871557 0.996195 99 226)" fill="#74828D"/>
<rect width="96" height="80" transform="matrix(1 0 -0.258819 0.965926 358.602 554)" fill="#74828D"/>
<rect width="196" height="35" rx="8" transform="matrix(1 0 0.0697565 0.997564 297 631)" fill="#74828D"/>
<rect width="205" height="35" rx="8" transform="matrix(1 0 0.0697565 0.997564 390 631)" fill="#A3BACA"/>
<rect x="8.69725" y="7.96956" width="510" height="328" rx="8" transform="matrix(1 0 0.0871557 0.996195 122.305 226.03)" fill="#F5F5F5" stroke="#A3BACA" stroke-width="16"/>
<g clip-path="url(#clip0_2404_28222)">
<path d="M320.273 232.556C319.868 204.026 224.873 211.226 224.873 211.226V256.271C224.873 256.271 320.903 275.846 320.273 232.556Z" fill="#145AAD"/>
<path d="M157.194 214.196C166.042 214.196 173.214 207.023 173.214 198.176C173.214 189.328 166.042 182.156 157.194 182.156C148.346 182.156 141.174 189.328 141.174 198.176C141.174 207.023 148.346 214.196 157.194 214.196Z" fill="#FACCBA"/>
<path d="M227.124 228.596C265.745 228.596 297.054 197.287 297.054 158.666C297.054 120.044 265.745 88.7354 227.124 88.7354C188.502 88.7354 157.193 120.044 157.193 158.666C157.193 197.287 188.502 228.596 227.124 228.596Z" fill="#FACCBA"/>
<mask id="mask0_2404_28222" style="mask-type:luminance" maskUnits="userSpaceOnUse" x="157" y="88" width="141" height="141">
<path d="M227.122 228.596C265.743 228.596 297.052 197.287 297.052 158.666C297.052 120.044 265.743 88.7354 227.122 88.7354C188.5 88.7354 157.191 120.044 157.191 158.666C157.191 197.287 188.5 228.596 227.122 228.596Z" fill="white"/>
</mask>
<g mask="url(#mask0_2404_28222)">
<path d="M288.771 183.101C296.824 183.101 303.351 176.573 303.351 168.52C303.351 160.468 296.824 153.94 288.771 153.94C280.719 153.94 274.191 160.468 274.191 168.52C274.191 176.573 280.719 183.101 288.771 183.101Z" fill="#F2B1B1"/>
</g>
<path d="M219.923 180.715C223.899 180.715 227.123 177.491 227.123 173.515C227.123 169.539 223.899 166.315 219.923 166.315C215.946 166.315 212.723 169.539 212.723 173.515C212.723 177.491 215.946 180.715 219.923 180.715Z" fill="#18171B"/>
<path d="M205.209 212.755C213.261 212.755 219.789 206.228 219.789 198.175C219.789 190.123 213.261 183.595 205.209 183.595C197.157 183.595 190.629 190.123 190.629 198.175C190.629 206.228 197.157 212.755 205.209 212.755Z" fill="#F2B1B1"/>
<path d="M265.329 164.245C269.305 164.245 272.529 161.022 272.529 157.045C272.529 153.069 269.305 149.845 265.329 149.845C261.352 149.845 258.129 153.069 258.129 157.045C258.129 161.022 261.352 164.245 265.329 164.245Z" fill="#18171B"/>
<path d="M247.193 169.195C251.468 173.695 252.458 174.505 252.323 175.99C252.143 178.195 248.948 180.76 248.948 180.76" stroke="#18171B" stroke-width="3.60001" stroke-miterlimit="10" stroke-linecap="round"/>
<path d="M258.354 191.605C256.869 195.115 253.629 197.545 249.849 198.085C244.494 198.805 239.364 195.34 238.014 190.12" stroke="#18171B" stroke-width="3.60001" stroke-miterlimit="10" stroke-linecap="round"/>
<path d="M283.239 93.5055C283.239 93.5055 304.974 107.861 293.904 123.341C282.834 138.821 257.049 128.876 253.719 120.371C256.194 126.401 259.614 135.491 249.309 145.076C239.094 154.571 220.914 148.766 217.989 145.076C222.759 151.196 214.614 165.236 205.479 167.576C197.019 169.736 186.039 167.171 184.554 161.276C186.354 166.181 180.954 188.141 166.194 189.086C147.339 190.301 146.304 176.801 147.519 169.016C133.974 172.481 124.389 165.596 121.464 157.136C118.538 148.676 121.419 132.161 130.599 130.316C122.499 131.801 113.273 101.92 127.629 86.8454C141.984 71.7254 157.464 76.1804 162.639 86.8454C158.049 77.1704 158.949 50.7103 182.169 49.2703C205.389 47.7853 204.669 59.2154 204.669 61.7804C203.499 53.0953 216.189 38.9653 235.719 40.0453C255.249 41.1253 252.459 55.9303 251.559 58.4504C251.289 52.5553 271.449 40.0003 288.144 59.9354C306.954 82.3904 283.239 93.4605 283.239 93.4605V93.5055Z" fill="#E4A11A"/>
<path d="M240.534 228.596C240.534 228.596 264.249 234.131 262.404 240.701C260.559 247.271 246.069 240.701 246.069 240.701C246.069 240.701 264.699 244.391 262.494 250.961C260.289 257.531 247.194 250.961 247.194 250.961C247.194 250.961 261.594 254.561 260.784 260.636C259.974 266.711 247.194 259.466 247.194 259.466C247.194 259.466 263.169 265.451 259.749 272.021C256.329 278.591 238.059 266.756 238.059 266.756L240.534 228.551V228.596Z" fill="#FACCBA"/>
<path d="M141.354 226.166C156.834 195.926 243.189 226.166 243.189 226.166V274.946C243.189 274.946 116.334 274.946 141.354 226.166Z" fill="#145AAD"/>
</g>
<g clip-path="url(#clip1_2404_28222)">
<rect width="617" height="56" transform="translate(336 75)" fill="#656D84"/>
<rect x="360" y="91" width="24" height="24" rx="12" fill="#D9D9D9"/>
<rect x="400" y="91" width="24" height="24" rx="12" fill="#D9D9D9"/>
<rect x="440" y="91" width="24" height="24" rx="12" fill="#D9D9D9"/>
<rect width="617" height="375" transform="translate(336 131)" fill="white"/>
<g clip-path="url(#clip2_2404_28222)">
<rect x="707.4" y="347.8" width="38.4" height="38.4" rx="19.2" fill="#246CAE"/>
<path d="M546.6 248.2C546.6 242.898 550.898 238.6 556.2 238.6H585V370.6H556.2C550.898 370.6 546.6 366.302 546.6 361V248.2Z" fill="#C5C7DD"/>
<rect x="556.199" y="277" width="2.4" height="2.83636" rx="1.2" fill="#EBEBF3"/>
<rect x="556.199" y="282.236" width="2.4" height="2.83636" rx="1.2" fill="#EBEBF3"/>
<rect x="556.199" y="287.473" width="2.4" height="2.83636" rx="1.2" fill="#EBEBF3"/>
<rect x="556.199" y="292.709" width="2.4" height="2.83636" rx="1.2" fill="#EBEBF3"/>
<rect x="556.199" y="297.945" width="2.4" height="2.83636" rx="1.2" fill="#EBEBF3"/>
<rect x="556.199" y="303.182" width="2.4" height="2.83636" rx="1.2" fill="#EBEBF3"/>
<rect x="556.199" y="308.418" width="2.4" height="2.83636" rx="1.2" fill="#EBEBF3"/>
<rect x="556.199" y="313.655" width="2.4" height="2.83636" rx="1.2" fill="#EBEBF3"/>
<rect x="556.199" y="318.891" width="2.4" height="2.83636" rx="1.2" fill="#EBEBF3"/>
<rect x="556.199" y="324.127" width="2.4" height="2.83636" rx="1.2" fill="#EBEBF3"/>
<rect x="556.199" y="329.364" width="2.4" height="2.83636" rx="1.2" fill="#EBEBF3"/>
<rect x="561" y="277" width="2.4" height="2.4" rx="1.2" fill="#EBEBF3"/>
<rect x="561" y="281.8" width="2.4" height="2.4" rx="1.2" fill="#EBEBF3"/>
<rect x="561" y="286.6" width="2.4" height="2.4" rx="1.2" fill="#EBEBF3"/>
<rect x="561" y="291.4" width="2.4" height="2.4" rx="1.2" fill="#EBEBF3"/>
<rect x="561" y="296.2" width="2.4" height="2.4" rx="1.2" fill="#EBEBF3"/>
<rect x="561" y="301" width="2.4" height="2.4" rx="1.2" fill="#EBEBF3"/>
<rect x="561" y="305.8" width="2.4" height="2.4" rx="1.2" fill="#EBEBF3"/>
<rect x="561" y="310.6" width="2.4" height="2.4" rx="1.2" fill="#EBEBF3"/>
<rect x="561" y="315.4" width="2.4" height="2.4" rx="1.2" fill="#EBEBF3"/>
<rect x="561" y="320.2" width="2.4" height="2.4" rx="1.2" fill="#EBEBF3"/>
<rect x="561" y="325" width="2.4" height="2.4" rx="1.2" fill="#EBEBF3"/>
<rect x="561" y="329.8" width="2.4" height="2.4" rx="1.2" fill="#EBEBF3"/>
<rect x="565.799" y="277" width="2.4" height="2.83636" rx="1.2" fill="#EBEBF3"/>
<rect x="565.799" y="282.236" width="2.4" height="2.83636" rx="1.2" fill="#EBEBF3"/>
<rect x="565.799" y="287.473" width="2.4" height="2.83636" rx="1.2" fill="#EBEBF3"/>
<rect x="565.799" y="292.709" width="2.4" height="2.83636" rx="1.2" fill="#EBEBF3"/>
<rect x="565.799" y="297.945" width="2.4" height="2.83636" rx="1.2" fill="#EBEBF3"/>
<rect x="565.799" y="303.182" width="2.4" height="2.83636" rx="1.2" fill="#EBEBF3"/>
<rect x="565.799" y="308.418" width="2.4" height="2.83636" rx="1.2" fill="#EBEBF3"/>
<rect x="565.799" y="313.655" width="2.4" height="2.83636" rx="1.2" fill="#EBEBF3"/>
<rect x="565.799" y="318.891" width="2.4" height="2.83636" rx="1.2" fill="#EBEBF3"/>
<rect x="565.799" y="324.127" width="2.4" height="2.83636" rx="1.2" fill="#EBEBF3"/>
<rect x="565.799" y="329.364" width="2.4" height="2.83636" rx="1.2" fill="#EBEBF3"/>
<path d="M575.4 248.2C575.4 242.898 579.698 238.6 585 238.6H724.2C729.502 238.6 733.8 242.898 733.8 248.2V361C733.8 366.302 729.502 370.6 724.2 370.6H585C579.698 370.6 575.4 366.302 575.4 361V248.2Z" fill="#EBEBF3"/>
<g clip-path="url(#clip3_2404_28222)">
<rect x="592.201" y="248.2" width="132" height="105.6" rx="9.6" fill="#C5C7DD"/>
<rect x="592.201" y="248.2" width="124.8" height="105.6" rx="9.6" fill="#272A49"/>
<g filter="url(#filter0_d_2404_28222)">
<circle cx="7.2" cy="7.2" r="7.2" transform="matrix(-1 0 0 1 697.801 296.2)" fill="#10DDFF"/>
<circle cx="7.2" cy="7.2" r="7.2" transform="matrix(-1 0 0 1 635.4 296.2)" fill="#10DDFF"/>
<path d="M670.2 308.2C669.612 309.615 668.751 310.901 667.666 311.984C666.58 313.067 665.291 313.926 663.873 314.512C662.455 315.099 660.935 315.4 659.4 315.4C657.864 315.4 656.344 315.099 654.926 314.512C653.508 313.926 652.219 313.067 651.134 311.984C650.048 310.901 649.187 309.615 648.6 308.2" stroke="#10DDFF" stroke-width="4.8" stroke-linecap="round"/>
</g>
<path d="M681.002 253H702.602C707.904 253 712.202 257.299 712.202 262.6V284.2L681.002 253Z" fill="white" fill-opacity="0.12"/>
</g>
<rect x="592.201" y="358.6" width="4.8" height="4.8" rx="2.4" fill="#C5C7DD"/>
<rect x="601.801" y="358.6" width="4.8" height="4.8" rx="2.4" fill="#C5C7DD"/>
<rect x="611.4" y="358.6" width="4.8" height="4.8" rx="2.4" fill="#C5C7DD"/>
<rect x="676.201" y="359.8" width="48" height="2.4" rx="1.2" fill="#C5C7DD"/>
<path d="M663 394.84C663 390.068 666.868 386.2 671.64 386.2H689.133C698.559 386.2 706.2 393.841 706.2 403.267V403.267C706.2 404.445 705.245 405.4 704.067 405.4H667.8C665.149 405.4 663 403.251 663 400.6V394.84Z" fill="#C5C7DD"/>
<path fill-rule="evenodd" clip-rule="evenodd" d="M680.117 405.4H704.117C705.295 405.4 706.251 404.445 706.251 403.267C706.251 393.841 698.61 386.2 689.184 386.2H671.691C670.75 386.2 669.845 386.35 668.998 386.628C676.588 388.361 682.251 395.152 682.251 403.267C682.251 404.445 681.295 405.4 680.117 405.4Z" fill="#EBEBF3"/>
<path d="M597 394.84C597 390.068 600.868 386.2 605.64 386.2H623.133C632.559 386.2 640.2 393.841 640.2 403.267V403.267C640.2 404.445 639.245 405.4 638.067 405.4H601.8C599.149 405.4 597 403.251 597 400.6V394.84Z" fill="#C5C7DD"/>
<path fill-rule="evenodd" clip-rule="evenodd" d="M614.117 405.4H638.117C639.295 405.4 640.251 404.445 640.251 403.267C640.251 393.841 632.61 386.2 623.184 386.2H605.691C604.75 386.2 603.845 386.35 602.998 386.628C610.588 388.361 616.251 395.152 616.251 403.267C616.251 404.445 615.295 405.4 614.117 405.4Z" fill="#EBEBF3"/>
<rect x="544.199" y="347.8" width="38.4" height="38.4" rx="19.2" fill="#246CAE"/>
</g>
</g>
<rect x="335" y="74" width="619" height="433" rx="25" stroke="#D9D9D9" stroke-width="2"/>
<path d="M1065.7 730.1C1065.7 730.1 1087.3 720.75 1088.2 726.4C1091.35 745.45 1094.85 766.65 1097.7 783.8C1098.9 791.15 1091.6 791.45 1085.35 785.85C1075.05 776.65 1072.35 770.4 1072.35 770.4L1065.7 730.15V730.1Z" fill="#F6A62E"/>
<path d="M962.199 820.1C962.199 820.1 967.899 842.95 962.199 842.95C942.899 842.95 921.399 842.95 904.049 842.95C896.599 842.95 897.499 835.7 904.049 830.45C914.799 821.8 921.399 820.15 921.399 820.15H962.199V820.1Z" fill="#F6A62E"/>
<path d="M1023.2 669.9C1029.25 682.6 1036.95 698.8 1041 707.25C1048.25 722.4 1066.7 729 1066.7 729L1073.95 781.7C1073.95 781.7 1050.25 784.35 1030.5 783C1010.75 781.7 979.149 752.05 979.149 752.05L969.249 822.5H910.649L891.249 702.35L1023.3 669.95L1023.2 669.9Z" fill="#238766"/>
<path d="M835.949 616.6C835.949 616.6 836.949 606.1 831.799 605.95C826.649 605.8 826.399 615.75 826.399 615.75C826.399 615.75 815.549 608.6 812.949 612.4C810.299 616.2 819.549 622.95 819.549 622.95C819.549 622.95 809.449 621.05 808.149 623.95C806.849 626.85 816.349 630.7 816.349 630.7C816.349 630.7 808.299 633.2 809.449 636.7C810.599 640.2 824.099 643.45 824.099 643.45" fill="#FACDBB"/>
<path d="M1045.9 584.35C1045.9 584.35 1058.8 579.75 1054.7 575.8C1050.6 571.85 1043.6 575.8 1043.6 575.8C1043.6 575.8 1051.35 566.15 1046.1 563.5C1040.85 560.85 1036 570.65 1036 570.65C1036 570.65 1041 560.1 1034.85 557.75C1028.7 555.4 1026.5 564.65 1026.5 564.65C1026.5 564.65 1025.05 552.5 1020.5 554.25C1015.95 556 1016.4 568.3 1016.4 568.3L1045.95 584.3L1045.9 584.35Z" fill="#FACDBB"/>
<path d="M836.849 614.7L888.149 632.3L967.899 618.6L1016.55 563.05L1048.2 586.25L1014.65 651.95C1014.65 651.95 1021.3 666 1028.3 680.6L894.449 722.55L888.149 683.55L821.049 647.55L836.849 614.7Z" fill="#4BB1DD"/>
<path d="M920.748 639.3C892.148 639.3 878.848 629 872.648 615.05C872.648 615.05 879.748 611.75 882.398 600.65C876.848 602.65 866.898 603.55 866.898 603.55C866.898 603.55 866.448 601.8 866.698 595.55C866.898 589.35 854.298 586 860.048 581.15C868.698 580.7 868.448 572.95 868.898 560.85C869.348 548.75 874.648 530.4 878.848 525.55H878.898C890.748 514.3 906.798 507.35 924.498 507.35C960.948 507.35 990.498 536.9 990.498 573.35C990.498 609.8 960.948 639.35 924.498 639.35C888.048 639.35 921.998 639.35 920.748 639.25" fill="#FACCBA"/>
<path d="M888.148 587.15C883.73 587.15 880.148 583.569 880.148 579.15C880.148 574.732 883.73 571.15 888.148 571.15C892.567 571.15 896.148 574.732 896.148 579.15C896.148 583.569 892.567 587.15 888.148 587.15Z" fill="#18171B"/>
<path d="M914.15 618.6C905.203 618.6 897.95 611.347 897.95 602.4C897.95 593.453 905.203 586.2 914.15 586.2C923.097 586.2 930.35 593.453 930.35 602.4C930.35 611.347 923.097 618.6 914.15 618.6Z" fill="#F2B1B1"/>
<path d="M861.299 543.35C869.999 512.55 898.299 490 931.849 490C965.399 490 1005.2 522.85 1005.2 563.35C1005.2 603.85 990.899 613.45 969.549 626.3L966.599 606L979.349 602.45C948.599 589.3 939.799 561.95 946.849 541.3C930.399 560.6 876.249 548.4 861.299 543.35Z" fill="#6B3424"/>
<path d="M964.598 614.75C954.768 614.75 946.798 606.781 946.798 596.95C946.798 587.12 954.768 579.15 964.598 579.15C974.429 579.15 982.398 587.12 982.398 596.95C982.398 606.781 974.429 614.75 964.598 614.75Z" fill="#FACCBA"/>
<g clip-path="url(#clip4_2404_28222)">
<path d="M371.6 743.9C371.6 743.9 398.6 739.6 396.9 734.85C391.2 718.9 384.9 701.05 379.75 686.65C377.55 680.5 369.8 684.1 365.85 691.6C359.4 703.95 362.55 718.65 362.55 718.65L371.5 743.85L371.6 743.9Z" fill="#EDCD2F"/>
<path d="M336.449 764.65L379.449 737.55L369.049 719.25L321.849 737.7L336.449 764.65Z" fill="#FACCBA"/>
<path d="M330.949 697.6C330.949 697.6 353.499 690.7 351.499 686.85C344.749 673.95 337.199 659.5 331.099 647.85C328.499 642.85 322.299 646.85 319.849 653.75C315.849 665.05 320.299 677.2 320.299 677.2L330.949 697.6Z" fill="#EDCD2F"/>
<path d="M305.75 713.2L338.25 692.45L326.25 677.05L292 693.9L305.75 713.2Z" fill="#FACCBA"/>
<path d="M295.65 660.6L349.15 761.65C349.15 761.65 315.1 797 248.4 787.35C201.5 780.55 204.3 740.8 205.6 725C206.9 709.2 226.7 652.55 226.7 652.55L295.65 660.6Z" fill="#DD5143"/>
<path d="M326.25 709.55C326.25 709.55 328.25 699.55 332.55 701.45C336.85 703.35 332.45 711.8 332.45 711.8C332.45 711.8 337.95 705.95 340.75 708.7C343.55 711.45 334.85 719.2 334.85 719.2C334.85 719.2 340.15 714 342.4 718.2C344.65 722.4 335.75 724.6 335.75 724.6C335.75 724.6 341.9 721.35 343.55 725.3C345.2 729.25 331.9 731 331.9 731L326.3 709.5L326.25 709.55Z" fill="#FACCBA"/>
<path d="M281.099 671.65L252.449 697.6L333.699 733.05L326.499 703.3L281.099 671.65Z" fill="#2E7ACB"/>
<path d="M293.1 661.5C320.05 651.9 329.15 637.8 330.3 622.55C330.3 622.55 322.5 621.8 316.3 612.25C322.2 612.25 331.9 609.75 331.9 609.75C331.9 609.75 331.7 607.95 329.45 602.15C327.15 596.4 337.95 589 330.9 586.35C322.6 588.85 320.2 581.45 315.75 570.2C311.3 558.95 300.1 543.45 294.5 540.25V540.35C279.5 533.65 262.05 532.5 245.4 538.4C211.05 550.6 193.1 588.35 205.3 622.7C217.5 657.05 255.25 675 289.6 662.8C290.8 662.4 291.95 661.95 293.1 661.45" fill="#FACCBA"/>
<path d="M303.699 601.95C299.281 601.95 295.699 598.368 295.699 593.95C295.699 589.532 299.281 585.95 303.699 585.95C308.117 585.95 311.699 589.532 311.699 593.95C311.699 598.368 308.117 601.95 303.699 601.95Z" fill="#18171B"/>
<path d="M286.948 640.8C278.001 640.8 270.748 633.547 270.748 624.6C270.748 615.653 278.001 608.4 286.948 608.4C295.895 608.4 303.148 615.653 303.148 624.6C303.148 633.547 295.895 640.8 286.948 640.8Z" fill="#F2B1B1"/>
<path d="M237.599 618.5C245.999 631.55 311.849 582.25 303.149 549.05C291.099 503.1 200.549 506.75 183.899 558.8C171.349 597.95 169.649 621.35 163.049 646.4C174.449 677.15 226.699 690.3 242.499 681.1C242.499 681.1 226.199 644.05 237.599 618.55V618.5Z" fill="#6B3424"/>
<path d="M220.773 642.377C217.475 633.116 222.309 622.935 231.571 619.637C240.832 616.339 251.013 621.173 254.31 630.435C257.608 639.696 252.774 649.876 243.513 653.174C234.252 656.472 224.071 651.638 220.773 642.377Z" fill="#FACCBA"/>
</g>
<defs>
<filter id="filter0_d_2404_28222" x="592.2" y="238.6" width="134.4" height="124.8" filterUnits="userSpaceOnUse" color-interpolation-filters="sRGB">
<feFlood flood-opacity="0" result="BackgroundImageFix"/>
<feColorMatrix in="SourceAlpha" type="matrix" values="0 0 0 0 0 0 0 0 0 0 0 0 0 0 0 0 0 0 127 0" result="hardAlpha"/>
<feOffset/>
<feGaussianBlur stdDeviation="9.6"/>
<feColorMatrix type="matrix" values="0 0 0 0 1 0 0 0 0 1 0 0 0 0 1 0 0 0 0.2 0"/>
<feBlend mode="normal" in2="BackgroundImageFix" result="effect1_dropShadow_2404_28222"/>
<feBlend mode="normal" in="SourceGraphic" in2="effect1_dropShadow_2404_28222" result="shape"/>
</filter>
<clipPath id="clip0_2404_28222">
<rect width="200.071" height="234.946" fill="white" transform="translate(120.203 40)"/>
</clipPath>
<clipPath id="clip1_2404_28222">
<rect x="336" y="75" width="617" height="431" rx="24" fill="white"/>
</clipPath>
<clipPath id="clip2_2404_28222">
<rect width="240" height="240" fill="white" transform="translate(525 199)"/>
</clipPath>
<clipPath id="clip3_2404_28222">
<rect x="592.201" y="248.2" width="132" height="105.6" rx="9.6" fill="white"/>
</clipPath>
<clipPath id="clip4_2404_28222">
<rect width="234" height="271.95" fill="white" transform="matrix(-1 0 0 1 397 517)"/>
</clipPath>
</defs>
</svg>
