<?xml version="1.0" encoding="UTF-8"?>
<!DOCTYPE svg PUBLIC "-//W3C//DTD SVG 1.1//EN" "http://www.w3.org/Graphics/SVG/1.1/DTD/svg11.dtd">
<svg xmlns="http://www.w3.org/2000/svg" version="1.1" width="470px" height="171px" style="shape-rendering:geometricPrecision; text-rendering:geometricPrecision; image-rendering:optimizeQuality; fill-rule:evenodd; clip-rule:evenodd" xmlns:xlink="http://www.w3.org/1999/xlink">
<g><path style="opacity:1" fill="#fefefe" d="M -0.5,-0.5 C 156.167,-0.5 312.833,-0.5 469.5,-0.5C 469.5,56.5 469.5,113.5 469.5,170.5C 312.833,170.5 156.167,170.5 -0.5,170.5C -0.5,113.5 -0.5,56.5 -0.5,-0.5 Z"/></g>
<g><path style="opacity:1" fill="#afebce" d="M 133.5,18.5 C 143.987,17.5056 154.654,17.1722 165.5,17.5C 165.737,18.791 165.404,19.791 164.5,20.5C 154.554,18.5247 144.221,17.8581 133.5,18.5 Z"/></g>
<g><path style="opacity:1" fill="#12c066" d="M 133.5,18.5 C 144.221,17.8581 154.554,18.5247 164.5,20.5C 162.914,30.2555 160.914,39.9222 158.5,49.5C 147.854,50.4987 137.187,50.832 126.5,50.5C 128.233,39.5832 130.566,28.9166 133.5,18.5 Z"/></g>
<g><path style="opacity:1" fill="#1bc26a" d="M 184.5,60.5 C 181.833,59.8333 179.167,59.1667 176.5,58.5C 178.91,45.4504 181.577,32.4504 184.5,19.5C 205.203,19.0854 225.869,19.5854 246.5,21C 258.132,23.9638 265.966,31.1305 270,42.5C 272.642,53.8469 271.642,64.8469 267,75.5C 265.207,78.2953 263.04,80.7953 260.5,83C 271.667,90.6716 276.667,101.338 275.5,115C 276.543,132.257 269.543,144.924 254.5,153C 250.814,153.559 247.147,154.226 243.5,155C 223.836,155.5 204.169,155.667 184.5,155.5C 184.5,123.833 184.5,92.1667 184.5,60.5 Z"/></g>
<g><path style="opacity:1" fill="#09bf64" d="M 32.5,22.5 C 51.9015,21.8533 71.0681,22.52 90,24.5C 100.045,67.0656 110.212,109.566 120.5,152C 107.171,152.5 93.8375,152.667 80.5,152.5C 79.6806,145.403 78.3472,138.403 76.5,131.5C 68.1932,130.502 59.8599,130.169 51.5,130.5C 50.6806,137.597 49.3472,144.597 47.5,151.5C 34.8508,152.499 22.1842,152.832 9.5,152.5C 16.8509,121.096 24.5175,89.7631 32.5,58.5C 30.2573,57.5258 27.924,57.1924 25.5,57.5C 27.3569,45.7389 29.6902,34.0722 32.5,22.5 Z"/></g>
<g><path style="opacity:1" fill="#b3ecd0" d="M 236.5,25.5 C 220.422,25.1825 204.422,25.5159 188.5,26.5C 196.138,25.1689 204.138,24.5022 212.5,24.5C 220.674,24.5003 228.674,24.8336 236.5,25.5 Z"/></g>
<g><path style="opacity:1" fill="#fdfefe" d="M 236.5,25.5 C 256.3,25.6338 265.966,35.6338 265.5,55.5C 266.405,68.0979 261.405,77.5979 250.5,84C 264.736,89.099 271.069,99.2657 269.5,114.5C 270.529,125.915 267.195,135.749 259.5,144C 257.112,145.861 254.446,147.194 251.5,148C 230.879,149.441 210.212,149.941 189.5,149.5C 189.5,117.833 189.5,86.1667 189.5,54.5C 187.143,54.6633 184.81,54.4966 182.5,54C 184.765,44.9167 186.765,35.75 188.5,26.5C 204.422,25.5159 220.422,25.1825 236.5,25.5 Z"/></g>
<g><path style="opacity:1" fill="#14c067" d="M 219.5,51.5 C 234.146,50.4173 239.646,57.084 236,71.5C 234.749,74.3807 232.583,76.214 229.5,77C 226.183,77.4983 222.85,77.665 219.5,77.5C 219.5,68.8333 219.5,60.1667 219.5,51.5 Z"/></g>
<g><path style="opacity:1" fill="#20c26c" d="M 364.5,89.5 C 364.232,91.099 364.566,92.4324 365.5,93.5C 368.692,114.598 363.026,132.765 348.5,148C 327.168,162.333 307.668,160.167 290,141.5C 279.235,125.078 276.068,107.245 280.5,88C 287.653,63.2729 303.986,51.6063 329.5,53C 348.456,58.1233 360.122,70.29 364.5,89.5 Z"/></g>
<g><path style="opacity:1" fill="#24c36d" d="M 415.5,118.5 C 416.497,97.6733 416.831,76.6733 416.5,55.5C 428.5,55.5 440.5,55.5 452.5,55.5C 452.169,76.6733 452.503,97.6733 453.5,118.5C 455.833,118.5 458.167,118.5 460.5,118.5C 458.259,130.621 455.592,142.621 452.5,154.5C 440.5,154.5 428.5,154.5 416.5,154.5C 416.629,147.325 415.962,146.991 414.5,153.5C 411.742,154.818 408.576,155.485 405,155.5C 387.703,156.866 377.036,149.2 373,132.5C 372.5,119.171 372.333,105.837 372.5,92.5C 369.841,92.0826 367.508,91.0826 365.5,89.5C 367.706,77.8026 370.039,66.1359 372.5,54.5C 385.167,54.5 397.833,54.5 410.5,54.5C 410.333,75.1694 410.5,95.836 411,116.5C 412.11,118.037 413.61,118.703 415.5,118.5 Z"/></g>
<g><path style="opacity:1" fill="#4fd291" d="M 453.5,118.5 C 452.503,97.6733 452.169,76.6733 452.5,55.5C 440.5,55.5 428.5,55.5 416.5,55.5C 416.831,76.6733 416.497,97.6733 415.5,118.5C 415.5,97.1667 415.5,75.8333 415.5,54.5C 428.167,54.5 440.833,54.5 453.5,54.5C 453.5,75.8333 453.5,97.1667 453.5,118.5 Z"/></g>
<g><path style="opacity:1" fill="#0abf64" d="M 159.5,57.5 C 159.5,78.8333 159.5,100.167 159.5,121.5C 161.833,121.5 164.167,121.5 166.5,121.5C 164.656,131.874 162.656,142.207 160.5,152.5C 149.5,152.5 138.5,152.5 127.5,152.5C 127.5,131.5 127.5,110.5 127.5,89.5C 125.167,89.5 122.833,89.5 120.5,89.5C 122.833,78.8333 125.167,68.1667 127.5,57.5C 138.167,57.5 148.833,57.5 159.5,57.5 Z"/></g>
<g><path style="opacity:1" fill="#7addad" d="M 159.5,57.5 C 160.497,78.3267 160.831,99.3267 160.5,120.5C 162.735,120.205 164.735,120.539 166.5,121.5C 164.167,121.5 161.833,121.5 159.5,121.5C 159.5,100.167 159.5,78.8333 159.5,57.5 Z"/></g>
<g><path style="opacity:1" fill="#aae9ca" d="M 227.5,57.5 C 226.195,59.3972 225.529,61.7305 225.5,64.5C 225.529,67.2695 226.195,69.6028 227.5,71.5C 226.791,72.404 225.791,72.7373 224.5,72.5C 224.5,67.1667 224.5,61.8333 224.5,56.5C 225.791,56.2627 226.791,56.596 227.5,57.5 Z"/></g>
<g><path style="opacity:1" fill="#fcfefd" d="M 227.5,57.5 C 230.586,58.6544 231.919,60.9877 231.5,64.5C 231.919,68.0123 230.586,70.3456 227.5,71.5C 226.195,69.6028 225.529,67.2695 225.5,64.5C 225.529,61.7305 226.195,59.3972 227.5,57.5 Z"/></g>
<g><path style="opacity:1" fill="#fdfefe" d="M 313.5,58.5 C 339.16,56.6595 354.66,68.3262 360,93.5C 361.754,107.896 359.42,121.562 353,134.5C 343.376,148.161 330.209,153.661 313.5,151C 296.995,144.825 287.495,132.992 285,115.5C 281.396,96.3967 286.229,79.8967 299.5,66C 304.101,63.2021 308.768,60.7021 313.5,58.5 Z"/></g>
<g><path style="opacity:1" fill="#83dfb2" d="M 176.5,58.5 C 179.167,59.1667 181.833,59.8333 184.5,60.5C 181.428,60.8174 178.428,60.4841 175.5,59.5C 175.624,58.8933 175.957,58.56 176.5,58.5 Z"/></g>
<g><path style="opacity:1" fill="#fcfefd" d="M 376.5,60.5 C 385.833,60.5 395.167,60.5 404.5,60.5C 404.333,78.8364 404.5,97.1697 405,115.5C 406.425,120.956 409.925,123.623 415.5,123.5C 413.515,132.106 411.848,140.773 410.5,149.5C 404.491,149.666 398.491,149.499 392.5,149C 383.464,145.63 378.631,139.13 378,129.5C 377.5,115.171 377.333,100.837 377.5,86.5C 375.396,86.7989 373.396,86.4656 371.5,85.5C 373.704,77.2785 375.37,68.9452 376.5,60.5 Z"/></g>
<g><path style="opacity:1" fill="#fefefe" d="M 421.5,60.5 C 430.167,60.5 438.833,60.5 447.5,60.5C 447.5,81.5 447.5,102.5 447.5,123.5C 449.924,123.192 452.257,123.526 454.5,124.5C 451.991,132.714 449.991,141.047 448.5,149.5C 439.5,149.5 430.5,149.5 421.5,149.5C 421.5,119.833 421.5,90.1667 421.5,60.5 Z"/></g>
<g><path style="opacity:1" fill="#f9fdfb" d="M 64.5,67.5 C 67.688,78.2353 70.3547,89.2353 72.5,100.5C 67.1667,100.5 61.8333,100.5 56.5,100.5C 58.7656,89.3766 61.4323,78.3766 64.5,67.5 Z"/></g>
<g><path style="opacity:1" fill="#21c26c" d="M 318.5,85.5 C 325.848,84.5849 330.681,87.5849 333,94.5C 335.402,103.741 334.735,112.741 331,121.5C 326.24,127.228 320.907,127.895 315,123.5C 312.854,120.874 311.521,117.874 311,114.5C 310.161,107.433 310.494,100.433 312,93.5C 313.305,90.0386 315.471,87.372 318.5,85.5 Z"/></g>
<g><path style="opacity:1" fill="#f8fdfa" d="M 320.5,90.5 C 324.575,90.3986 327.075,92.3986 328,96.5C 328.667,102.5 328.667,108.5 328,114.5C 326.621,120.729 323.288,122.063 318,118.5C 315.306,110.925 314.972,103.258 317,95.5C 317.997,93.6769 319.164,92.0103 320.5,90.5 Z"/></g>
<g><path style="opacity:1" fill="#78dcac" d="M 364.5,89.5 C 364.833,89.5 365.167,89.5 365.5,89.5C 367.508,91.0826 369.841,92.0826 372.5,92.5C 369.941,92.1984 367.607,92.5318 365.5,93.5C 364.566,92.4324 364.232,91.099 364.5,89.5 Z"/></g>
<g><path style="opacity:1" fill="#16c168" d="M 219.5,94.5 C 235.55,93.577 241.384,100.91 237,116.5C 236.215,118.286 235.049,119.786 233.5,121C 228.964,122.379 224.297,122.879 219.5,122.5C 219.5,113.167 219.5,103.833 219.5,94.5 Z"/></g>
<g><path style="opacity:1" fill="#b8edd4" d="M 226.5,100.5 C 225.511,105.975 225.178,111.642 225.5,117.5C 224.183,111.654 224.183,105.654 225.5,99.5C 226.107,99.6236 226.44,99.9569 226.5,100.5 Z"/></g>
<g><path style="opacity:1" fill="#fafdfc" d="M 226.5,100.5 C 231.809,100.491 233.809,103.158 232.5,108.5C 233.714,114.443 231.381,117.443 225.5,117.5C 225.178,111.642 225.511,105.975 226.5,100.5 Z"/></g>
<g><path style="opacity:1" fill="#49d08d" d="M 452.5,154.5 C 446.509,155.166 440.343,155.5 434,155.5C 427.261,155.46 420.761,154.793 414.5,153.5C 415.962,146.991 416.629,147.325 416.5,154.5C 428.5,154.5 440.5,154.5 452.5,154.5 Z"/></g>
</svg>
