<?xml version="1.0" encoding="iso-8859-1"?>
<!-- Uploaded to: SVG Repo, www.svgrepo.com, Generator: SVG Repo Mixer Tools -->
<svg height="800px" width="800px" version="1.1" id="Layer_1" xmlns="http://www.w3.org/2000/svg" xmlns:xlink="http://www.w3.org/1999/xlink" 
	 viewBox="0 0 512 512" xml:space="preserve">
<path style="fill:#60BFE1;" d="M414.202,512H97.798c-10.685,0-19.348-8.663-19.348-19.348v-61.359
	c0-56.7,27.433-110.455,73.382-143.794c8.745-6.346,21.029-4.297,27.229,4.587L256,402.336l76.939-110.25
	c6.191-8.873,18.464-10.937,27.216-4.596c7.564,5.479,14.763,11.62,21.395,18.253c33.534,33.548,51.998,78.136,51.998,125.551
	v61.359C433.55,503.338,424.888,512,414.202,512z"/>
<path style="fill:#2E9ADA;" d="M381.551,305.743c-6.632-6.633-13.831-12.774-21.395-18.253c-8.761-6.347-21.031-4.267-27.216,4.596
	L256,402.336V512h158.202c10.685,0,19.348-8.663,19.348-19.348v-61.359C433.55,383.879,415.085,339.291,381.551,305.743z"/>
<path style="fill:#C7E5F4;" d="M236.652,442.227V512h38.696v-69.773l99.6-142.72c-33.382-30.135-75.389-45.764-118.948-45.764
	c-44.362,0-86.296,16.223-118.945,45.768L236.652,442.227z"/>
<g>
	<path style="fill:#60BFE1;" d="M360.175,287.503c-0.003-0.001-0.005-0.004-0.008-0.006c-0.003-0.001-0.005-0.004-0.009-0.006
		c0,0-0.001-0.001-0.003-0.001c0-0.001-0.001-0.001-0.001-0.001C329.715,265.411,293.7,253.743,256,253.743V512h19.348v-69.773
		l99.6-142.72C370.226,295.246,365.293,291.212,360.175,287.503z"/>
	<path style="fill:#60BFE1;" d="M275.348,254.805c-6.387-0.689-12.841-1.06-19.348-1.06c-6.507,0-12.961,0.371-19.348,1.06v82.728
		c0,10.685,8.663,19.348,19.348,19.348c10.685,0,19.348-8.663,19.348-19.348V254.805z"/>
</g>
<path style="fill:#FFEAB2;" d="M256,238.484c-65.723,0-119.193-53.47-119.193-119.193S190.278,0.098,256,0.098
	s119.193,53.47,119.193,119.193S321.723,238.484,256,238.484z"/>
<path style="fill:#FFE08C;" d="M256,0.098v238.386c65.723,0,119.193-53.47,119.193-119.193S321.723,0.098,256,0.098z"/>
<path style="fill:#60BFE1;" d="M369.972,84.343C346.468,7.611,255.764-23.559,190.857,19.498
	c-42.477,27.763-61.925,78.117-51.102,126.104c2.626,11.638,15.028,18.096,26.027,13.72c27.024-10.751,50.44-28.911,67.678-52.111
	c7.119,4.446,14.774,8.193,22.895,11.138c35.511,12.874,74.041,8.509,105.689-12.135C369.265,101.506,372.497,92.587,369.972,84.343
	z"/>
<g>
	<path style="fill:#2E9ADA;" d="M256,253.743V356.88c10.685,0,19.348-8.663,19.348-19.348v-82.728
		C268.961,254.116,262.508,253.743,256,253.743z"/>
	<path style="fill:#2E9ADA;" d="M369.972,84.343C353.94,32.003,306.222,0.152,256,0.024v118.193c0.119,0.044,0.235,0.09,0.353,0.134
		c35.517,12.875,74.045,8.507,105.689-12.135C369.265,101.506,372.497,92.587,369.972,84.343z"/>
</g>
</svg>