<?xml version="1.0" standalone="no"?>
<!DOCTYPE svg PUBLIC "-//W3C//DTD SVG 20010904//EN"
 "http://www.w3.org/TR/2001/REC-SVG-20010904/DTD/svg10.dtd">
<svg version="1.0" xmlns="http://www.w3.org/2000/svg"
 width="819.000000pt" height="819.000000pt" viewBox="0 0 819.000000 819.000000"
 preserveAspectRatio="xMidYMid meet">

<g transform="translate(0.000000,819.000000) scale(0.100000,-0.100000)"
fill="#000000" stroke="none">
<path d="M3798 7681 c-37 -30 -50 -91 -31 -147 15 -44 62 -94 89 -94 8 0 14
-6 13 -12 -6 -51 3 -328 11 -328 6 0 10 60 10 160 0 157 0 159 25 184 l26 26
-28 31 c-26 28 -61 113 -62 150 -1 8 -7 23 -14 33 -12 16 -14 16 -39 -3z"/>
<path d="M3740 6590 c-648 -57 -1061 -356 -1191 -858 -26 -101 -35 -275 -20
-383 57 -403 362 -748 766 -867 254 -75 674 -98 957 -53 449 72 743 271 910
618 70 145 99 266 105 433 6 160 -14 276 -70 414 -179 439 -596 674 -1237 699
-69 3 -168 1 -220 -3z m820 -220 c41 -12 121 -43 177 -70 209 -102 365 -305
437 -570 27 -100 34 -247 17 -353 -10 -62 -18 -69 -61 -57 -60 18 -123 30
-187 36 -53 5 -63 3 -64 -10 -1 -9 -2 -19 -4 -23 -1 -5 -7 -29 -15 -55 -7 -27
-17 -48 -22 -48 -5 0 -6 -4 -3 -10 3 -5 -5 -21 -19 -35 -15 -14 -26 -30 -26
-35 0 -15 -62 -70 -71 -64 -5 3 -9 1 -9 -4 0 -12 -83 -48 -131 -58 -122 -25
-263 16 -339 97 -68 73 -97 129 -107 204 -7 53 -7 283 0 325 9 56 37 130 49
130 5 0 7 4 6 8 -5 16 65 93 79 88 8 -3 11 -2 8 4 -9 14 75 58 135 71 30 6 59
15 63 19 18 16 7 131 -22 248 -17 66 -31 135 -31 151 0 28 3 31 33 31 18 0 66
-9 107 -20z m-1165 -425 c62 -12 124 -45 164 -86 53 -54 86 -93 83 -96 -1 -2
5 -17 14 -34 25 -49 27 -64 30 -238 4 -176 -3 -220 -47 -297 -27 -45 -64 -94
-72 -94 -3 0 -18 -11 -33 -25 -15 -14 -59 -35 -99 -48 -138 -43 -278 -13 -385
83 -25 22 -41 40 -36 40 5 0 0 8 -11 18 -11 9 -27 31 -36 48 -15 29 -20 48
-33 114 -9 43 -12 270 -4 270 4 0 7 10 7 23 0 33 14 80 30 96 8 7 12 20 9 28
-3 7 1 16 9 19 8 4 15 11 15 17 0 16 110 117 136 123 14 4 21 11 17 18 -3 6
-3 8 1 4 4 -3 24 -1 44 6 21 7 57 14 82 15 25 2 46 4 48 6 2 2 9 2 15 1 7 -2
30 -6 52 -11z m274 -1008 c83 -60 124 -72 236 -71 86 0 108 4 157 27 32 14 74
38 93 53 29 22 38 24 50 14 26 -21 17 -39 -37 -75 -83 -54 -159 -77 -263 -77
-105 0 -178 21 -262 77 -61 41 -71 74 -24 84 2 1 24 -14 50 -32z m1136 -287
c-3 -5 -16 -15 -28 -21 -19 -9 -19 -8 3 10 28 23 34 26 25 11z m-155 -90 c-8
-5 -19 -10 -25 -10 -5 0 -3 5 5 10 8 5 20 10 25 10 6 0 3 -5 -5 -10z"/>
<path d="M4416 5739 c-44 -24 -66 -43 -66 -58 0 -6 -5 -11 -12 -11 -6 0 -8 -3
-5 -7 4 -3 1 -13 -6 -21 -8 -11 -12 -57 -11 -156 1 -152 7 -191 31 -218 8 -9
12 -21 9 -26 -4 -6 3 -8 16 -4 14 3 19 1 14 -6 -4 -7 3 -14 19 -18 14 -3 25
-10 25 -14 0 -15 146 -5 160 10 3 3 17 13 32 23 15 9 37 36 49 59 20 40 42
148 30 148 -4 0 -13 20 -20 44 -14 50 -74 156 -109 193 -12 13 -29 37 -37 54
-19 36 -61 39 -119 8z m149 -137 c-2 -3 3 -11 12 -17 44 -32 14 -118 -46 -135
-61 -17 -122 36 -107 93 11 46 43 67 97 66 27 -1 47 -4 44 -7z"/>
<path d="M3253 5755 c-13 -5 -23 -13 -23 -18 0 -4 -4 -6 -9 -2 -12 7 -61 -37
-61 -54 0 -7 -5 -9 -10 -6 -6 4 -13 -7 -16 -24 -4 -17 -10 -31 -15 -31 -8 0
-5 -259 3 -290 16 -61 60 -106 123 -124 48 -15 148 -13 153 2 2 6 10 8 18 5 8
-3 14 0 14 7 0 7 7 10 16 6 8 -3 12 -2 9 4 -10 17 6 34 17 19 7 -11 9 -9 7 6
-1 24 11 65 20 65 3 0 7 19 8 43 1 23 3 75 5 115 1 39 1 72 -2 72 -3 0 -6 12
-6 28 0 71 -47 141 -114 170 -41 18 -106 21 -137 7z m67 -146 c0 -5 4 -7 10
-4 16 10 60 -41 60 -69 0 -14 -5 -37 -12 -51 -22 -49 -112 -49 -144 -1 -15 24
-16 76 0 76 5 0 7 3 3 6 -8 8 16 32 45 43 31 13 38 13 38 0z"/>
<path d="M2483 6144 c3 -3 -6 -17 -20 -32 -13 -15 -31 -34 -38 -42 -8 -9 -19
-27 -25 -40 -5 -14 -19 -38 -30 -55 -44 -68 -63 -113 -76 -180 l-14 -70 5 65
c3 36 8 98 12 138 8 101 0 97 -77 -39 -14 -25 -34 -81 -44 -125 -10 -43 -22
-90 -27 -104 -10 -27 -31 -269 -24 -280 2 -3 7 -46 10 -95 3 -48 13 -100 20
-116 8 -15 15 -41 14 -56 0 -25 -1 -26 -9 -8 -6 14 -8 5 -5 -28 5 -59 25 -93
70 -114 19 -9 35 -20 35 -24 0 -4 22 -23 50 -43 29 -21 58 -53 71 -78 27 -54
143 -206 211 -279 84 -90 239 -212 338 -266 30 -17 75 -42 100 -56 67 -38 204
-86 266 -93 31 -4 65 -15 77 -24 20 -16 20 -20 8 -44 -8 -14 -38 -39 -67 -56
-51 -29 -53 -31 -47 -65 5 -31 3 -37 -15 -42 -12 -3 -20 -8 -18 -12 3 -4 -12
-5 -32 -3 -68 8 -142 -56 -142 -124 0 -16 -14 -67 -31 -114 -16 -47 -60 -175
-96 -284 -49 -146 -74 -208 -96 -232 -43 -50 -40 -95 9 -145 23 -24 40 -35 45
-28 10 16 31 -144 25 -188 -4 -30 -4 -33 3 -13 9 24 9 24 10 3 1 -27 27 -31
34 -5 4 16 5 16 6 0 0 -10 7 -18 15 -18 8 0 21 -19 30 -41 23 -56 29 -45 10
18 -8 28 -23 98 -33 157 -18 104 -18 106 2 138 l19 32 19 -38 c10 -20 23 -53
30 -73 40 -123 149 -299 279 -453 26 -30 59 -74 73 -97 15 -23 42 -56 61 -73
l33 -31 7 -122 c4 -67 10 -156 14 -197 l7 -75 5 120 c6 115 6 113 7 -55 1 -96
-1 -170 -3 -163 -3 7 -17 -1 -36 -23 -43 -49 -43 -100 2 -150 28 -32 31 -43
27 -76 -3 -21 -1 -68 3 -106 5 -37 10 -88 11 -114 3 -48 12 -61 22 -33 4 8 9
77 13 155 8 152 24 191 24 58 0 -116 11 -219 22 -212 6 4 8 67 7 153 -2 80 0
151 4 158 8 13 -39 63 -60 63 -11 0 -16 11 -28 72 -1 10 0 17 4 16 3 0 13 0
21 2 11 1 9 4 -5 10 -17 7 -17 9 -3 9 17 1 17 18 13 248 -3 149 -1 238 4 222
5 -15 12 -121 16 -236 4 -116 12 -217 17 -224 6 -9 7 80 4 246 -3 143 -5 262
-5 264 -1 2 -8 0 -17 -3 -10 -4 -13 -2 -8 6 5 7 2 9 -8 5 -9 -3 -21 0 -27 6
-6 6 -11 8 -11 3 0 -22 -31 28 -33 54 -1 21 -7 30 -20 30 -10 0 -20 7 -23 15
-3 8 -14 17 -25 20 -10 4 -18 10 -16 14 3 13 -51 85 -105 141 -27 26 -48 51
-48 53 0 3 -17 23 -38 44 -49 50 -134 184 -127 201 2 7 1 11 -3 8 -14 -8 -53
114 -43 132 6 11 4 20 -7 30 -13 10 -9 9 13 -1 78 -38 281 -87 358 -87 38 0
171 29 164 36 -2 2 -37 -3 -78 -12 -95 -20 -156 -10 -394 63 -96 29 -112 65
-95 210 15 131 57 298 93 371 8 17 8 25 -1 34 -7 7 -12 17 -12 22 0 6 5 3 11
-7 10 -16 18 -7 60 68 27 48 65 107 84 131 30 36 40 42 55 34 18 -10 17 -48
-1 -60 -4 -3 -4 -12 1 -20 8 -12 13 -13 27 -2 10 6 29 17 43 22 14 6 33 15 43
21 27 15 166 29 297 29 78 0 110 3 100 10 -9 6 -11 10 -3 10 7 0 10 6 7 14 -6
15 19 27 66 32 72 8 200 27 235 34 22 5 67 11 100 15 33 3 71 11 85 16 31 12
66 57 53 70 -5 5 -51 5 -113 -1 -139 -13 -502 -14 -619 0 -110 12 -155 22
-235 50 -33 11 -67 20 -76 20 -22 0 -107 37 -115 50 -4 6 -11 7 -17 4 -6 -4
-13 -2 -17 3 -11 18 -104 73 -113 67 -4 -3 -11 1 -14 9 -3 8 -25 22 -50 32
-24 9 -42 20 -39 25 6 9 -85 70 -104 70 -7 0 -10 4 -7 8 3 5 -11 23 -31 41
-28 25 -38 29 -45 19 -6 -8 -7 0 -2 21 6 33 5 34 -11 18 -16 -16 -18 -16 -46
0 -21 12 -29 25 -29 44 0 17 -7 30 -17 34 -10 3 -29 29 -43 56 -13 28 -30 54
-37 56 -7 3 -13 14 -13 24 0 10 -5 19 -11 19 -6 0 -9 10 -7 23 2 12 -4 27 -12
34 -12 9 -13 14 -2 24 10 11 12 10 12 0 0 -8 6 -11 15 -7 8 3 15 1 15 -3 0 -5
7 -12 16 -15 12 -5 15 -2 10 10 -7 17 19 50 29 35 3 -5 1 -12 -5 -16 -5 -3
-10 -10 -10 -16 0 -14 28 -11 33 4 3 7 6 7 6 1 1 -6 -8 -21 -19 -34 -12 -13
-18 -30 -15 -38 3 -7 5 -16 5 -18 0 -2 4 -4 10 -4 5 0 7 7 4 15 -7 16 12 45
28 45 6 0 5 -7 -2 -15 -10 -12 -10 -19 -2 -27 9 -9 12 -8 12 5 0 21 9 21 36 2
12 -8 25 -11 29 -7 5 4 5 -1 2 -11 -4 -10 -3 -16 2 -12 5 3 11 -1 14 -7 3 -10
8 -10 18 1 8 8 9 11 2 7 -7 -3 -14 2 -18 14 -3 11 -11 20 -16 20 -6 0 -8 4 -4
9 3 6 -4 15 -15 21 -11 6 -20 15 -20 21 0 6 -16 29 -35 52 -47 55 -139 244
-165 337 -43 160 -45 390 -5 545 23 86 57 188 68 203 7 9 5 11 -9 6 -16 -6
-17 -5 -6 7 14 15 16 33 3 25 -5 -3 -9 0 -8 7 1 44 -5 77 -14 77 -6 0 -17 7
-25 15 -14 13 -14 15 2 15 22 0 2 26 -27 33 -12 3 -19 3 -16 1z m-206 -491
c-2 -16 -4 -5 -4 22 0 28 2 40 4 28 2 -13 2 -35 0 -50z m173 -657 c0 -2 -7 -7
-16 -10 -8 -3 -12 -2 -9 4 6 10 25 14 25 6z m10 -96 c0 -16 -2 -30 -4 -30 -2
0 -6 14 -8 30 -3 17 -1 30 4 30 4 0 8 -13 8 -30z m82 -42 c-12 -12 -42 -4 -42
12 0 5 5 10 10 10 6 0 10 -4 10 -10 0 -18 20 -11 21 8 0 11 2 13 6 4 3 -8 1
-18 -5 -24z m-42 -40 c0 -10 -6 -18 -13 -18 -14 0 -19 24 -11 50 5 13 6 13 14
0 6 -8 10 -23 10 -32z m37 -14 c-3 -3 -12 -4 -19 -1 -8 3 -5 6 6 6 11 1 17 -2
13 -5z m30 -100 c-9 -9 -28 6 -21 18 4 6 10 6 17 -1 6 -6 8 -13 4 -17z m599
-871 c-22 -16 -47 -46 -57 -68 -11 -23 -19 -32 -19 -21 0 28 38 84 68 101 45
24 49 17 8 -12z m-86 -163 c6 -11 8 -20 6 -20 -3 0 -10 9 -16 20 -6 11 -8 20
-6 20 3 0 10 -9 16 -20z m-84 -269 c-31 -94 -59 -189 -62 -211 -4 -22 -11 -40
-16 -40 -5 0 -7 9 -4 20 3 11 9 30 12 43 15 62 117 367 121 363 2 -2 -21 -81
-51 -175z m7 -183 c-3 -29 -9 -57 -14 -62 -6 -6 -9 -6 -9 2 0 18 21 112 25
112 2 0 1 -24 -2 -52z m-116 -130 c-3 -8 -6 -5 -6 6 -1 11 2 17 5 13 3 -3 4
-12 1 -19z m70 -310 c-3 -7 -5 -2 -5 12 0 14 2 19 5 13 2 -7 2 -19 0 -25z"/>
<path d="M5512 5545 c-3 -218 -19 -421 -42 -537 -26 -124 -26 -123 9 -99 44
32 62 124 65 336 2 94 2 139 0 100 -9 -167 -41 -377 -43 -277 -1 19 4 86 9
150 6 64 9 200 8 302 l-3 185 -3 -160z"/>
<path d="M2592 4788 c6 -18 28 -21 28 -4 0 9 -7 16 -16 16 -9 0 -14 -5 -12
-12z"/>
<path d="M2806 4711 c-4 -6 0 -14 8 -17 9 -3 14 -10 11 -14 -3 -5 4 -8 15 -7
15 1 17 4 8 12 -7 5 -17 16 -24 24 -8 10 -13 11 -18 2z"/>
<path d="M2705 4560 c-3 -5 1 -10 10 -10 9 0 13 5 10 10 -3 6 -8 10 -10 10 -2
0 -7 -4 -10 -10z"/>
<path d="M6908 4483 c-10 -2 -18 -12 -18 -21 0 -13 -2 -14 -9 -4 -8 14 -57 7
-67 -9 -3 -5 -16 -9 -30 -9 -24 0 -24 0 -7 -27 l17 -28 -22 19 c-12 11 -22 25
-22 31 0 24 -47 35 -87 21 -25 -8 -75 -83 -93 -140 -27 -84 -3 -190 55 -246
19 -19 35 -42 35 -52 0 -17 2 -17 23 -3 23 14 23 14 22 -13 -1 -15 -6 -35 -10
-44 -4 -10 -5 -23 -2 -30 2 -7 -2 -26 -10 -41 -13 -26 -15 -27 -36 -12 -30 21
-34 19 -41 -20 -5 -25 -3 -40 8 -50 13 -14 17 -12 31 12 15 27 15 27 9 3 -8
-26 -10 -49 -13 -110 -1 -27 -4 -31 -11 -20 -8 12 -10 12 -11 -5 0 -11 -3 -14
-6 -7 -7 18 -21 15 -33 -9 -16 -28 -29 -118 -19 -125 12 -7 49 56 49 84 0 13
4 21 9 17 5 -3 12 3 15 12 3 10 4 6 2 -9 -2 -16 3 -33 10 -39 8 -6 14 -18 14
-25 0 -8 3 -14 8 -14 9 0 42 -58 42 -75 0 -8 4 -16 9 -19 5 -4 7 4 4 16 -4 20
-3 21 7 6 16 -25 57 -23 74 5 7 12 17 39 20 59 6 30 3 41 -15 59 l-22 22 29
-7 c42 -11 83 -54 98 -106 14 -44 14 -45 21 -17 4 16 3 45 -4 67 -16 52 -14
59 14 72 14 6 25 19 25 30 0 25 -62 92 -121 130 -45 29 -48 33 -36 52 27 40
110 54 246 40 44 -5 61 -11 57 -20 -6 -14 12 -458 19 -491 7 -30 33 -29 96 3
51 25 71 26 52 2 -6 -7 -15 -28 -21 -47 -11 -30 -9 -36 16 -62 29 -32 63 -37
82 -14 12 14 10 44 -5 93 -9 28 8 29 36 1 16 -16 20 -30 17 -61 -3 -34 -2 -37
9 -22 7 10 13 31 13 47 0 39 -57 97 -96 97 -23 0 -26 2 -14 10 23 15 73 12 98
-6 72 -50 66 -164 -12 -225 -40 -31 -153 -40 -191 -15 -14 9 -25 13 -25 8 0
-17 37 -42 61 -42 21 -1 18 -4 -16 -22 -50 -26 -75 -47 -75 -65 0 -19 26 -16
118 10 233 68 427 262 502 502 30 98 16 179 -39 229 -11 10 -18 23 -15 28 3 4
1 7 -4 6 -14 -4 -15 3 -3 35 20 51 5 177 -19 162 -5 -3 -11 1 -13 7 -4 9 -6
10 -6 1 -1 -6 4 -15 9 -18 6 -3 10 -21 9 -38 0 -28 -3 -24 -23 30 -13 34 -31
74 -40 87 -20 32 -21 42 -1 26 13 -11 14 -10 9 4 -3 9 -14 15 -22 14 -11 -2
-17 4 -17 17 0 13 -6 20 -17 19 -10 -1 -16 2 -13 6 12 20 -120 100 -190 115
-19 4 -2 -9 42 -33 87 -47 105 -61 96 -75 -3 -5 -1 -7 4 -4 13 8 36 -17 26
-27 -4 -4 0 -4 8 -1 21 8 71 -57 75 -97 2 -16 7 -34 10 -40 4 -7 2 -8 -4 -4
-7 4 -12 13 -12 20 0 8 -7 19 -15 26 -9 7 -14 18 -12 24 3 7 -4 22 -14 35 -11
13 -19 17 -19 10 0 -7 -11 -3 -27 12 l-28 24 24 -27 c13 -15 26 -26 30 -25 3
1 7 -1 9 -5 1 -4 14 -31 27 -60 31 -66 32 -94 3 -49 -35 51 -97 119 -142 153
-39 30 -39 29 10 -23 70 -73 93 -120 28 -55 -27 27 -83 71 -124 99 -41 27 -79
54 -85 60 -10 10 81 -39 103 -56 17 -13 16 7 -2 22 -7 6 -38 25 -67 41 -30 16
-50 30 -44 30 19 0 95 -33 95 -41 0 -5 5 -9 11 -9 6 0 25 -10 42 -22 16 -12
40 -22 52 -23 22 -1 22 0 -3 27 -14 15 -29 25 -34 22 -4 -3 -14 1 -22 8 -19
19 -52 40 -86 58 -242 123 -279 139 -402 174 -7 2 -21 2 -30 -1z m343 -272
c76 -49 151 -132 135 -148 -3 -3 -6 -1 -6 5 0 7 -5 12 -11 12 -6 0 -26 12 -44
28 -17 15 -42 34 -55 42 -47 31 -80 62 -80 76 0 20 11 18 61 -15z m82 -15 c9
9 92 -52 126 -93 35 -42 42 -66 11 -38 -11 10 -20 14 -20 10 0 -4 -24 14 -52
41 -29 27 -68 61 -85 76 -18 15 -33 30 -33 34 0 4 10 -2 23 -14 13 -12 26 -19
30 -16z m-225 -43 c67 -48 76 -58 37 -43 -49 19 -80 39 -115 76 -30 32 -31 35
-10 24 14 -7 53 -33 88 -57z m97 -23 c3 -6 -1 -7 -9 -4 -18 7 -21 14 -7 14 6
0 13 -4 16 -10z m60 -240 c-16 -4 -38 -11 -48 -15 -13 -6 -16 -3 -11 9 4 11
18 16 48 15 39 -1 40 -1 11 -9z m201 -29 c-3 -5 -15 -7 -26 -4 -28 7 -25 13 6
13 14 0 23 -4 20 -9z m-122 -74 c8 -31 2 -30 -18 3 -13 24 -14 29 -2 24 8 -3
17 -15 20 -27z m45 -3 c12 -27 15 -61 4 -51 -3 4 -14 25 -24 46 -12 28 -14 38
-5 35 7 -3 18 -16 25 -30z m51 16 c25 -25 27 -69 4 -66 -29 4 -61 86 -34 86 6
0 19 -9 30 -20z m60 -20 c5 -10 10 -31 10 -47 0 -26 -1 -26 -13 -8 -7 11 -20
37 -30 58 -17 37 -17 38 3 27 11 -6 24 -19 30 -30z m63 29 c20 8 30 7 42 -5 8
-8 20 -12 26 -8 8 4 9 3 5 -4 -4 -7 0 -22 8 -34 16 -23 22 -78 9 -78 -5 1 -19
23 -32 50 -13 28 -26 49 -27 47 -2 -1 1 -19 5 -39 12 -53 1 -56 -27 -6 l-23
43 5 -37 c7 -52 -7 -47 -27 10 -21 59 -22 79 -3 63 9 -8 21 -8 39 -2z m191
-49 c6 -23 6 -23 -5 -5 -7 11 -17 23 -22 27 -6 3 -12 14 -13 24 -2 15 -1 15
16 -2 10 -10 21 -30 24 -44z m-450 24 c3 -8 2 -12 -4 -9 -6 3 -10 10 -10 16 0
14 7 11 14 -7z m422 -14 c7 -7 14 -27 14 -44 l-1 -31 -25 45 c-14 25 -22 36
-19 25 4 -11 9 -36 11 -55 l5 -35 -15 33 c-9 18 -22 40 -31 48 -8 9 -15 20
-15 25 0 13 57 4 76 -11z"/>
<path d="M1115 4448 c-4 -10 -13 -18 -21 -18 -20 0 -18 -26 12 -167 7 -36 -13
-27 -68 28 -74 74 -142 96 -212 69 -24 -9 -71 -69 -61 -78 2 -2 19 4 39 13 19
9 41 15 48 12 8 -4 7 -6 -4 -6 -29 -2 -136 -70 -158 -101 -11 -16 -30 -51 -42
-77 -28 -64 -42 -77 -61 -58 -13 12 -15 10 -20 -15 -5 -21 -11 -28 -24 -26
-19 4 -21 -6 -23 -86 0 -21 -5 -38 -10 -38 -5 0 -22 -19 -37 -41 -33 -51 -41
-36 -14 26 16 37 17 44 5 37 -9 -5 -27 -7 -40 -4 -19 3 -23 9 -19 23 9 29 -7
23 -37 -13 l-28 -33 21 53 c12 29 35 64 51 77 27 23 28 25 8 25 -12 0 -18 5
-15 10 3 6 20 10 37 10 45 0 25 13 -30 20 l-47 7 34 15 34 16 -36 13 c-20 7
-33 17 -30 22 8 13 120 2 140 -15 15 -12 15 -11 5 9 -26 48 -124 90 -179 77
-148 -36 -243 -204 -243 -429 0 -226 89 -417 307 -661 156 -176 235 -339 173
-359 -11 -3 -20 -10 -20 -14 0 -12 50 -76 60 -77 6 -1 14 -2 19 -3 14 -2 43
-111 37 -135 -3 -12 2 -92 11 -179 13 -123 14 -168 6 -200 -6 -23 -8 -48 -3
-56 4 -8 5 -60 2 -116 -4 -94 -3 -107 22 -169 25 -63 26 -69 11 -86 -15 -16
-14 -18 7 -25 13 -3 120 -10 239 -14 127 -5 223 -12 235 -19 15 -9 -22 -11
-157 -12 -193 0 -309 16 -385 52 -37 19 -47 30 -68 82 -37 90 -53 190 -36 213
8 10 11 15 6 11 -9 -8 -93 92 -105 125 -4 12 -13 56 -20 97 -6 41 -20 130 -31
198 -21 133 -25 146 -43 135 -7 -4 -6 0 2 10 19 24 48 21 65 -5 8 -13 26 -104
41 -203 20 -139 32 -193 53 -235 30 -61 38 -63 106 -35 37 16 38 17 18 30 -32
23 -51 86 -67 223 -23 185 -35 253 -50 287 l-14 30 6 -43 c5 -34 3 -41 -9 -37
-8 3 -22 19 -32 35 -9 17 -26 35 -37 40 -10 6 -19 18 -19 26 0 12 7 15 30 12
39 -6 38 0 -5 18 -47 19 -59 18 -94 -12 -45 -37 -47 -71 -12 -214 16 -69 37
-168 46 -220 18 -102 39 -160 78 -212 17 -22 37 -81 62 -178 28 -112 44 -156
71 -195 19 -28 34 -58 34 -68 0 -12 8 -17 30 -17 16 0 51 -8 77 -19 43 -16 86
-19 393 -23 l345 -5 3 -28 c3 -23 1 -27 -15 -20 -10 4 -164 8 -343 9 -233 2
-339 6 -376 16 -50 13 -104 8 -104 -9 0 -5 10 -11 21 -14 21 -6 21 -10 15 -74
-9 -83 -89 -483 -116 -579 -24 -85 -25 -123 -4 -131 33 -13 47 12 71 128 35
166 49 230 79 364 15 66 30 143 35 170 9 62 17 82 34 89 7 2 145 6 305 7 240
1 294 -1 301 -12 10 -16 11 -12 -32 -159 -47 -163 -46 -149 -8 -157 19 -4 38
-6 42 -5 16 5 37 -27 37 -55 0 -15 4 -44 10 -63 12 -41 5 -70 -17 -70 -11 0
-14 -6 -9 -22 3 -13 6 -29 6 -36 0 -7 10 -17 23 -22 21 -8 21 -9 -5 -9 -18 -1
-29 5 -33 19 -3 11 -10 20 -15 20 -4 0 -11 11 -14 25 -3 13 -15 29 -26 35 -11
6 -20 15 -20 21 0 6 5 7 10 4 6 -3 10 -1 10 5 0 6 -7 13 -15 16 -8 4 -15 11
-15 16 0 6 7 8 15 5 12 -5 12 -2 3 18 -6 13 -20 26 -31 29 -12 3 -18 8 -15 11
3 4 15 2 26 -4 15 -8 23 -7 33 5 13 16 11 19 -34 45 -20 11 -26 0 -47 -91 -7
-30 -21 -72 -31 -92 -21 -42 -24 -113 -6 -144 34 -59 114 -134 159 -151 43
-15 48 -21 53 -52 3 -20 10 -57 16 -83 8 -33 7 -52 -1 -67 -10 -20 -8 -21 37
-21 26 0 59 3 73 7 24 6 23 7 -10 18 -45 15 -54 51 -65 280 -5 95 -1 104 45
106 17 1 8 6 -25 14 l-50 13 42 1 41 1 -5 42 c-2 24 -9 67 -14 97 -5 30 -8 71
-8 90 l2 36 7 -40 c4 -22 6 118 4 310 -3 357 7 587 27 662 9 34 17 44 43 52
36 11 330 31 454 30 102 0 189 17 222 45 14 12 51 34 83 50 31 16 57 33 57 38
0 5 -5 6 -11 3 -13 -8 -994 -7 -1026 1 -13 4 -23 13 -23 22 0 12 -3 13 -11 5
-6 -6 -8 -20 -5 -31 5 -16 16 -19 61 -20 98 -1 99 -1 110 -124 6 -59 4 -68
-13 -77 -20 -11 -125 11 -149 31 -8 6 -13 34 -13 67 0 77 -8 87 -51 63 -81
-45 -229 -82 -229 -56 0 5 19 51 46 112 13 29 24 57 24 62 0 5 13 5 32 -1 43
-12 99 -11 118 2 12 8 9 9 -12 5 -40 -9 -128 13 -153 38 -27 27 -62 131 -70
206 -4 30 -11 77 -16 104 -17 90 -12 144 16 170 49 46 161 48 245 6 33 -16 63
-30 68 -30 14 0 32 48 26 65 -7 18 18 49 61 77 19 13 23 17 9 14 -22 -7 -127
42 -128 59 -1 5 8 11 19 13 41 7 48 11 36 26 -6 8 -13 28 -14 45 -1 17 -7 31
-13 31 -6 0 -23 9 -36 20 -14 10 -28 16 -32 13 -3 -3 -6 -2 -6 4 0 6 -20 31
-45 55 -54 54 -84 118 -85 179 0 40 7 56 59 128 61 84 78 124 106 244 18 81
19 132 1 67 -7 -25 -22 -61 -35 -80 l-22 -35 2 35 c3 56 0 80 -11 80 -5 0 -10
-7 -10 -15 0 -18 -20 -20 -21 -2 0 6 -4 3 -9 -8 -6 -14 -9 -3 -10 40 l-1 60
-14 -38 c-18 -51 -25 -57 -26 -21 0 16 -3 23 -6 16 -12 -31 -23 6 -22 81 1
101 12 141 23 82 l8 -40 19 24 c11 13 22 21 26 17 4 -3 12 -32 19 -64 7 -31
13 -50 13 -41 1 16 31 23 31 7 0 -4 5 -8 10 -8 17 0 11 73 -10 119 -26 56 -25
59 5 31 27 -26 54 -102 56 -159 1 -25 3 -29 6 -13 4 21 8 23 51 17 215 -30
352 -63 352 -86 0 -4 3 -15 7 -25 5 -14 3 -16 -12 -11 -21 9 -65 -17 -65 -38
0 -11 11 -14 47 -12 l47 2 9 -49 c10 -59 3 -84 -17 -66 -21 16 -51 -2 -65 -40
-5 -17 -6 -28 -2 -26 5 3 11 -18 14 -46 7 -54 29 -88 58 -88 18 0 44 34 36 48
-3 4 -7 37 -11 73 -5 60 -3 70 19 103 14 20 28 55 31 76 4 22 12 40 18 40 8 0
7 3 -1 8 -6 4 -14 32 -18 62 -8 76 -24 138 -48 185 -41 82 -178 225 -215 225
-12 -1 -10 -5 7 -14 23 -13 23 -14 5 -18 -15 -4 -12 -7 16 -20 19 -9 44 -23
55 -33 l20 -17 -20 7 c-11 4 -49 9 -85 11 l-65 5 88 -24 c48 -13 95 -31 105
-42 16 -17 16 -17 -3 -10 -47 17 -59 16 -27 -4 35 -22 44 -38 13 -21 -25 13
-44 13 -36 0 4 -6 -8 -10 -27 -11 l-33 -1 35 -8 c91 -19 123 -48 47 -43 -31 3
-68 -2 -92 -11 l-40 -15 36 0 c46 -1 117 -26 149 -52 20 -17 21 -19 5 -13 -11
4 -40 9 -65 11 -48 3 -48 3 30 -30 59 -25 -17 -17 -147 15 l-135 33 33 15 34
15 -40 3 c-40 4 -40 4 -15 17 22 12 22 14 6 15 -16 0 -17 3 -8 12 20 20 14 28
-20 28 l-33 0 25 20 c14 10 23 20 20 22 -3 2 -18 10 -33 18 l-28 14 23 13 c21
13 19 14 -24 10 -26 -3 -50 -2 -52 1 -3 3 16 16 42 29 26 13 37 21 24 19 -19
-4 -21 -2 -11 10 8 10 8 14 0 14 -6 0 -11 7 -11 15 0 18 -12 19 -28 3 -9 -9
-12 -8 -12 8 -1 17 -3 17 -22 -6 -13 -16 -22 -20 -25 -13 -3 8 -12 9 -29 3
-23 -9 -24 -8 -26 38 0 26 -2 52 -3 57 -2 6 -3 18 -4 28 -1 22 -30 22 -38 0
-6 -15 -7 -14 -14 3 -6 18 -7 18 -14 2z m-109 -159 c8 -14 -10 -11 -32 6 -18
13 -18 14 4 8 12 -3 25 -9 28 -14z m52 -44 c12 -14 29 -25 37 -25 8 0 15 -7
15 -15 0 -8 -6 -15 -12 -15 -10 0 -10 -2 -1 -8 16 -10 10 -92 -11 -166 -20
-67 -41 -76 -33 -14 l6 41 -25 -41 c-14 -23 -26 -42 -28 -42 -1 0 -1 17 0 38
2 39 44 145 63 156 16 10 14 29 -3 23 -8 -3 -27 -2 -43 3 -15 4 -22 9 -15 9
26 2 10 21 -18 21 -41 0 -38 16 5 30 19 6 33 16 30 21 -13 20 13 8 33 -16z
m693 -562 c12 -16 12 -17 -1 -7 -8 7 -24 14 -35 17 -19 4 -19 5 1 6 12 0 28
-7 35 -16z m-21 -43 c0 -5 -4 -10 -10 -10 -5 0 -10 5 -10 10 0 6 5 10 10 10 6
0 10 -4 10 -10z m-816 -180 c32 -12 34 -30 4 -30 -17 0 -19 -3 -10 -12 7 -7
12 -23 12 -37 1 -43 44 -117 66 -113 53 9 59 7 62 -20 2 -18 -4 -31 -19 -41
-21 -15 -21 -16 50 -88 87 -87 87 -101 6 -143 -31 -16 -74 -49 -96 -74 -69
-79 -187 -321 -240 -492 -9 -28 -21 -46 -31 -48 -16 -3 -18 8 -18 118 0 79 -6
144 -16 186 l-17 65 31 32 c89 95 125 276 87 443 -9 36 -14 68 -11 71 2 3 13
0 25 -6 20 -11 20 -10 5 26 -28 66 -4 141 51 164 27 11 30 11 59 -1z m86 -765
c0 -5 -5 -3 -10 5 -5 8 -10 20 -10 25 0 6 5 3 10 -5 5 -8 10 -19 10 -25z m120
-555 c-8 -5 -45 -14 -82 -20 -37 -7 -70 -16 -74 -21 -3 -5 -16 -9 -29 -9 -13
0 -25 -6 -27 -12 -3 -7 -7 -2 -10 10 -5 20 -2 22 28 22 19 0 34 4 34 9 0 8 96
27 150 29 19 1 22 -1 10 -8z m-67 -86 c-10 -7 -22 -14 -26 -14 -4 0 -31 -16
-59 -34 -40 -28 -55 -33 -70 -25 -10 6 -16 14 -13 19 3 5 1 11 -5 15 -5 3 -10
10 -10 15 0 15 91 39 148 38 46 -1 50 -2 35 -14z m438 -802 c3 -69 1 -92 -8
-92 -7 0 -13 -8 -14 -17 0 -15 -2 -15 -9 2 -5 12 -9 14 -9 6 -2 -34 -18 10
-20 52 -1 10 -5 16 -10 12 -5 -3 -12 -1 -16 5 -3 5 -1 10 5 10 6 0 10 6 9 13
-5 23 14 81 34 109 19 26 22 27 28 10 4 -10 8 -59 10 -110z m-144 -348 c28
-20 57 -33 62 -29 7 4 11 -4 11 -19 0 -15 -6 -26 -13 -26 -25 0 -97 61 -147
126 -15 18 -14 18 10 1 14 -9 48 -33 77 -53z m-47 -82 c0 -1 -9 2 -20 8 -11 6
-20 15 -20 20 0 6 9 2 20 -7 11 -10 20 -19 20 -21z m35 -32 c3 -5 1 -10 -4
-10 -6 0 -11 5 -11 10 0 6 2 10 4 10 3 0 8 -4 11 -10z"/>
<path d="M944 4419 c-4 -8 -3 -9 4 -5 8 4 12 0 13 -11 0 -19 102 -108 107 -94
1 5 -5 32 -15 62 -18 53 -19 54 -60 57 -24 2 -44 -2 -49 -9z"/>
<path d="M1450 4380 c0 -6 7 -10 15 -10 8 0 15 2 15 4 0 2 -7 6 -15 10 -8 3
-15 1 -15 -4z"/>
<path d="M1558 4193 c6 -2 18 -2 25 0 6 3 1 5 -13 5 -14 0 -19 -2 -12 -5z"/>
<path d="M7500 4166 c0 -2 8 -10 18 -17 15 -13 16 -12 3 4 -13 16 -21 21 -21
13z"/>
<path d="M5580 3956 c0 -2 8 -10 18 -17 15 -13 16 -12 3 4 -13 16 -21 21 -21
13z"/>
<path d="M4638 3875 c-3 -3 12 -23 33 -44 44 -44 51 -88 23 -142 -15 -29 -14
-31 19 -62 19 -18 59 -68 87 -112 116 -176 194 -277 200 -259 4 10 -1 25 -11
35 -20 20 -161 209 -227 304 -44 63 -57 99 -21 55 17 -20 19 -21 13 -5 -4 11
-10 43 -14 70 -8 63 -37 118 -81 152 -9 7 -18 11 -21 8z"/>
<path d="M4556 3862 c-8 -13 -1 -17 50 -31 48 -13 77 -49 78 -98 1 -19 5 -28
10 -23 28 27 -47 140 -93 140 -9 0 -22 5 -28 11 -7 7 -13 7 -17 1z"/>
<path d="M5418 3838 c0 -18 0 -43 1 -56 2 -21 -24 -67 -56 -100 -7 -8 -10 -18
-7 -24 8 -13 134 111 134 132 -1 14 -54 80 -65 80 -3 0 -6 -15 -7 -32z"/>
<path d="M1433 3784 c-65 -35 -76 -36 -45 0 9 11 2 8 -17 -8 -44 -35 -71 -70
-71 -90 0 -23 7 -20 51 18 22 18 67 48 99 65 33 18 60 36 60 42 0 14 -11 11
-77 -27z"/>
<path d="M6596 3762 c-4 -15 -9 -34 -12 -43 -3 -13 1 -15 19 -12 20 4 22 9 19
39 -5 44 -18 52 -26 16z"/>
<path d="M4640 3743 c0 -4 5 -15 10 -23 8 -13 10 -13 10 2 0 9 -4 20 -10 23
-5 3 -10 3 -10 -2z"/>
<path d="M5293 3672 c-1 -9 9 -22 22 -28 l24 -12 -21 29 c-12 16 -22 29 -23
29 0 0 -1 -8 -2 -18z"/>
<path d="M3868 3646 c-21 -8 -38 -12 -38 -9 0 2 -13 -5 -29 -16 -35 -25 -42
-26 -35 -6 9 23 -4 18 -17 -6 -9 -17 -8 -20 2 -14 9 6 10 3 4 -11 -4 -10 -10
-44 -12 -74 -4 -46 -1 -61 19 -89 34 -51 71 -73 127 -79 42 -4 58 0 96 23 61
35 85 76 83 140 l-1 50 -6 -58 c-6 -51 -11 -63 -44 -93 -23 -21 -47 -34 -64
-34 l-28 0 34 18 c22 12 35 27 36 40 2 25 -5 28 -24 10 -10 -11 -11 -9 -5 6 6
15 4 18 -8 14 -11 -5 -14 -1 -10 18 3 19 0 24 -16 24 -26 0 -35 14 -27 40 7
22 35 26 53 8 7 -7 12 -8 12 -2 0 38 -66 45 -98 11 -26 -27 -28 -51 -8 -89 8
-16 10 -28 5 -28 -6 0 -17 16 -25 35 -12 30 -12 40 0 69 26 62 85 83 147 50
30 -15 30 -15 19 5 -25 47 -86 67 -142 47z m-44 -28 c-4 -7 -17 -25 -28 -41
-25 -34 -29 -125 -6 -154 8 -10 5 -8 -7 5 -21 21 -29 56 -23 107 1 11 15 37
32 57 29 37 47 51 32 26z"/>
<path d="M3980 3656 c0 -2 8 -10 18 -17 15 -13 16 -12 3 4 -13 16 -21 21 -21
13z"/>
<path d="M1400 3616 c-41 -14 -87 -69 -96 -116 -8 -44 9 -30 25 21 13 41 34
63 74 78 24 9 27 9 19 -4 -13 -24 2 -122 23 -144 21 -25 43 -27 51 -6 4 8 10
13 14 10 18 -11 20 17 6 71 -23 87 -53 111 -116 90z"/>
<path d="M6615 3600 c-3 -5 -1 -10 4 -10 6 0 11 5 11 10 0 6 -2 10 -4 10 -3 0
-8 -4 -11 -10z"/>
<path d="M3719 3563 c-19 -23 -17 -120 4 -160 23 -44 78 -83 124 -89 37 -5 36
-4 -15 16 -38 16 -60 33 -79 61 -29 44 -40 114 -25 158 12 35 10 38 -9 14z"/>
<path d="M5218 3540 c-9 -22 -15 -40 -13 -40 5 0 45 66 45 74 0 19 -17 1 -32
-34z"/>
<path d="M5281 3566 c-12 -14 -141 -262 -141 -271 0 -18 22 0 34 28 8 17 21
41 30 52 9 11 5 -4 -9 -33 -24 -50 -26 -72 -4 -72 5 0 9 5 9 12 0 6 27 69 60
140 33 70 60 132 60 137 0 15 -28 21 -39 7z m-5 -63 c-8 -15 -15 -25 -16 -21
0 12 23 58 27 54 3 -2 -2 -17 -11 -33z m-36 -83 c-6 -11 -13 -20 -16 -20 -2 0
0 9 6 20 6 11 13 20 16 20 2 0 0 -9 -6 -20z"/>
<path d="M4740 3536 c0 -14 29 -63 46 -77 10 -8 6 4 -11 31 -32 52 -35 56 -35
46z"/>
<path d="M6493 3512 c-21 -13 -43 -79 -42 -124 1 -47 16 -109 18 -73 1 28 19
6 23 -29 4 -34 23 -46 30 -18 4 13 18 21 48 26 46 7 80 22 80 35 0 5 -33 18
-72 31 -40 12 -77 26 -82 31 -12 11 20 59 39 59 8 0 15 5 15 11 0 7 -11 9 -26
6 -24 -4 -26 -2 -20 24 6 32 6 32 -11 21z m42 -152 c3 -5 2 -10 -4 -10 -5 0
-13 5 -16 10 -3 6 -2 10 4 10 5 0 13 -4 16 -10z"/>
<path d="M4896 3439 c61 -88 108 -148 117 -149 9 0 6 4 -76 113 -69 90 -96
113 -41 36z"/>
<path d="M5181 3463 c-10 -26 -10 -27 4 -9 8 11 15 23 15 28 0 15 -7 8 -19
-19z"/>
<path d="M5151 3403 c-10 -26 -10 -27 4 -9 8 11 15 23 15 28 0 15 -7 8 -19
-19z"/>
<path d="M5580 3410 c0 -5 5 -10 10 -10 6 0 10 5 10 10 0 6 -4 10 -10 10 -5 0
-10 -4 -10 -10z"/>
<path d="M5483 3351 c-19 -18 -43 -96 -43 -140 0 -11 7 -21 15 -25 17 -6 22
-106 5 -106 -5 0 -10 22 -10 49 0 62 -14 72 -40 29 -26 -43 -25 -57 5 -98 14
-19 25 -42 25 -52 0 -10 4 -17 9 -15 5 1 17 -7 25 -18 14 -18 15 -14 16 65 1
47 6 110 11 140 17 96 22 171 12 181 -6 6 -17 2 -30 -10z"/>
<path d="M4887 3323 c52 -71 106 -134 110 -129 3 2 -23 37 -56 77 -34 39 -61
76 -61 81 0 4 -5 8 -11 8 -5 0 2 -17 18 -37z"/>
<path d="M5657 3344 c-16 -9 -27 -23 -27 -35 0 -17 5 -20 38 -17 32 3 37 7 40
29 4 33 -15 41 -51 23z m33 -24 c0 -11 -4 -20 -9 -20 -14 0 -23 18 -16 30 10
17 25 11 25 -10z"/>
<path d="M5886 3345 c-12 -13 -14 -21 -5 -36 12 -23 27 -21 43 4 8 12 7 21 -5
33 -15 14 -18 14 -33 -1z"/>
<path d="M5089 3308 c-46 -64 -57 -90 -52 -124 9 -56 80 -67 131 -21 24 22 30
59 10 56 -49 -6 -75 2 -87 27 -10 23 -9 30 7 48 19 21 36 56 27 56 -3 0 -19
-19 -36 -42z m-35 -104 c3 -8 2 -12 -4 -9 -6 3 -10 10 -10 16 0 14 7 11 14 -7z"/>
<path d="M5556 3334 c-12 -32 -6 -44 23 -44 34 0 45 12 36 40 -8 24 -50 27
-59 4z m44 -19 c0 -8 -7 -15 -15 -15 -8 0 -15 7 -15 15 0 8 7 15 15 15 8 0 15
-7 15 -15z"/>
<path d="M6677 3333 c-3 -5 -8 -35 -12 -68 -3 -33 -8 -62 -11 -64 -2 -3 -30
-4 -61 -3 -40 1 -66 8 -85 22 l-28 21 0 -31 c0 -60 93 -117 230 -141 79 -14
102 -25 128 -63 37 -54 42 -86 21 -131 -34 -75 -117 -310 -124 -353 -5 -33
-14 -48 -36 -61 l-30 -18 44 -11 c130 -33 304 -53 397 -46 78 6 90 8 65 16
-16 4 -50 7 -75 6 l-45 -2 -1 154 c-1 170 -15 250 -40 230 -18 -16 -18 -7 1
33 14 29 12 28 -25 -13 -36 -40 -40 -42 -40 -22 0 13 5 33 11 44 10 19 9 20
-14 14 -14 -3 -32 -9 -41 -12 -9 -3 -16 -1 -16 5 0 6 6 11 13 11 6 0 32 17 55
38 41 35 43 39 32 63 -14 31 -2 62 37 92 13 10 21 22 18 26 -2 5 -32 18 -65
30 -34 12 -76 36 -94 52 -19 16 -39 29 -45 29 -7 0 -9 9 -5 24 4 19 -1 29 -25
47 -17 12 -31 30 -31 40 0 27 -90 63 -103 42z"/>
<path d="M5731 3268 c-1 -22 5 -29 24 -34 35 -9 44 3 12 15 -14 5 -27 18 -30
28 -3 12 -5 9 -6 -9z"/>
<path d="M1600 3251 c0 -34 101 -56 128 -29 25 25 14 37 -23 25 -25 -7 -45 -7
-70 0 -19 6 -35 8 -35 4z"/>
<path d="M5624 3145 c-29 -44 -3 -98 47 -98 34 0 69 31 69 62 0 59 -84 85
-116 36z m91 -5 c7 -11 -12 -40 -25 -40 -10 0 -20 37 -12 44 9 10 30 7 37 -4z"/>
<path d="M5835 3146 c-24 -36 -16 -78 16 -90 39 -13 78 0 90 31 23 61 -71 113
-106 59z m75 -16 c0 -11 -7 -20 -15 -20 -8 0 -15 9 -15 20 0 11 7 20 15 20 8
0 15 -9 15 -20z"/>
<path d="M5760 3030 c-9 -16 -8 -22 5 -26 21 -8 39 10 32 30 -9 22 -24 20 -37
-4z"/>
<path d="M3628 2993 c7 -3 16 -2 19 1 4 3 -2 6 -13 5 -11 0 -14 -3 -6 -6z"/>
<path d="M5660 2960 c0 -19 7 -20 96 -20 91 0 134 10 134 30 0 6 -48 10 -115
10 -108 0 -115 -1 -115 -20z"/>
<path d="M1851 2893 c1 -27 4 -39 6 -28 3 11 12 25 21 31 18 13 9 44 -13 44
-11 0 -15 -11 -14 -47z"/>
<path d="M5573 2886 c1 -6 -14 -18 -33 -28 l-35 -18 38 0 c20 0 37 5 37 10 0
6 8 10 18 9 10 0 12 -3 5 -6 -7 -2 -13 -10 -13 -16 0 -15 148 -12 232 4 31 6
61 8 66 5 6 -3 13 -2 17 3 3 5 -16 12 -42 16 -27 3 -79 10 -118 15 -117 16
-174 18 -172 6z"/>
<path d="M5488 2823 c13 -23 17 -208 6 -262 -7 -33 -24 -43 -24 -13 0 11 -7
18 -20 18 -11 0 -20 -5 -20 -11 0 -8 -41 -11 -137 -8 -151 3 -148 -8 8 -27
104 -12 486 -22 419 -11 -25 4 -41 9 -36 9 6 1 0 12 -13 23 -15 14 -19 25 -13
31 13 13 3 130 -13 147 -9 9 -24 11 -48 7 -42 -8 -55 -42 -34 -85 11 -22 11
-29 1 -39 -16 -15 -22 4 -25 76 -3 70 -17 66 -22 -5 -2 -37 -4 -22 -5 43 -2
81 -5 104 -19 115 -15 13 -15 12 -5 -8z"/>
<path d="M5530 2772 c0 -8 5 -10 13 -5 6 4 55 11 107 14 l95 7 -107 -1 c-83
-1 -108 -5 -108 -15z"/>
<path d="M5768 2783 c6 -2 18 -2 25 0 6 3 1 5 -13 5 -14 0 -19 -2 -12 -5z"/>
<path d="M5867 2712 c-22 -25 -21 -55 2 -76 27 -25 72 -17 90 15 15 27 9 79
-10 79 -6 0 -6 -7 1 -21 6 -11 9 -25 6 -32 -2 -7 -5 -6 -5 4 -1 20 -32 49 -53
49 -8 0 -22 -8 -31 -18z"/>
<path d="M5681 2704 c0 -11 3 -14 6 -6 3 7 2 16 -1 19 -3 4 -6 -2 -5 -13z"/>
<path d="M7400 2680 c-10 -6 -21 -48 -33 -122 -21 -139 -25 -164 -33 -205 -3
-17 1 -76 10 -130 8 -54 18 -125 20 -158 13 -170 31 -180 42 -23 5 82 9 98 25
103 30 10 89 -29 89 -59 0 -8 -13 -57 -30 -108 -16 -51 -30 -101 -29 -113 0
-20 0 -20 9 0 4 11 14 42 21 68 6 26 29 76 49 110 21 34 44 87 53 117 22 75
77 375 77 413 l-1 32 -14 -26 c-8 -15 -26 -89 -40 -165 -35 -196 -62 -262
-100 -247 -10 3 -11 11 -5 28 5 13 12 52 15 87 3 34 13 120 22 190 14 121 13
208 -1 103 -17 -118 -45 -275 -41 -225 3 30 8 111 12 179 6 122 6 124 -18 142
-26 20 -75 25 -99 9z"/>
<path d="M1641 2659 c-1 -9 8 -42 19 -74 11 -32 20 -62 20 -66 0 -5 -18 -14
-40 -20 -21 -7 -37 -16 -34 -20 3 -5 17 -3 32 5 15 7 54 17 87 21 l60 8 -45
11 c-41 11 -46 16 -64 61 -33 89 -35 91 -35 74z"/>
<path d="M5999 2628 c-6 -24 -20 -58 -31 -75 l-20 -33 36 0 36 0 0 75 c0 41
-2 75 -5 75 -2 0 -9 -19 -16 -42z"/>
<path d="M6195 2578 c-24 -14 -44 -39 -45 -55 0 -19 35 -16 75 7 19 11 35 15
35 10 0 -14 -55 -40 -87 -40 -27 -1 -27 -1 -9 -15 30 -23 70 -19 81 8 6 12 38
36 75 54 36 18 56 33 45 33 -11 0 -33 -7 -49 -15 -37 -20 -43 -19 -49 5 -6 23
-40 26 -72 8z"/>
<path d="M5012 2542 c3 -23 12 -30 63 -50 94 -35 125 -54 129 -76 26 -136 26
-214 2 -431 -25 -219 -33 -316 -60 -725 -30 -453 -31 -440 22 -453 29 -7 38
11 45 88 3 33 17 150 32 260 14 110 30 241 35 290 6 50 16 133 24 185 8 52 25
195 38 318 26 255 17 241 129 196 137 -56 223 -74 204 -43 -3 5 1 6 10 2 13
-5 14 -7 3 -14 -8 -6 -1 -9 22 -9 19 0 44 -7 54 -15 21 -16 20 -29 -4 -240
-11 -98 -39 -454 -47 -602 -3 -51 -9 -93 -13 -93 -4 0 -39 23 -79 51 -40 28
-76 48 -79 44 -8 -8 61 -69 103 -90 71 -35 66 -16 63 -301 -3 -224 -1 -259 12
-262 13 -2 15 20 15 150 0 166 12 590 20 678 3 30 11 150 20 265 25 348 45
507 67 530 18 19 31 20 340 20 227 0 322 3 325 11 2 6 12 27 22 47 l18 36 -81
4 c-45 2 -218 3 -386 1 -376 -3 -469 2 -464 25 7 29 -9 38 -136 75 -69 21
-203 64 -298 97 l-173 59 3 -28z"/>
<path d="M6056 2553 c-10 -10 -7 -43 4 -43 5 0 14 9 19 19 8 14 7 20 -3 24 -8
3 -17 3 -20 0z"/>
<path d="M5740 2530 c0 -5 5 -10 10 -10 6 0 10 5 10 10 0 6 -4 10 -10 10 -5 0
-10 -4 -10 -10z"/>
<path d="M6290 2488 c-41 -27 -65 -48 -52 -48 11 0 132 60 132 66 0 12 -50 1
-80 -18z"/>
<path d="M3020 2469 c0 -5 5 -7 10 -4 6 3 10 8 10 11 0 2 -4 4 -10 4 -5 0 -10
-5 -10 -11z"/>
<path d="M6080 2476 c0 -2 9 -6 20 -9 11 -3 18 -1 14 4 -5 9 -34 13 -34 5z"/>
<path d="M2398 2463 c18 -2 45 -2 60 0 15 2 0 4 -33 4 -33 0 -45 -2 -27 -4z"/>
<path d="M2187 2453 c18 -2 50 -2 70 0 21 2 7 4 -32 4 -38 0 -55 -2 -38 -4z"/>
<path d="M6315 2450 c-42 -4 -46 -6 -25 -12 14 -4 40 -8 58 -8 18 0 64 -7 103
-16 89 -20 110 -13 39 13 -67 25 -110 30 -175 23z"/>
<path d="M1470 2440 c-8 -5 -10 -10 -5 -10 6 0 17 5 25 10 8 5 11 10 5 10 -5
0 -17 -5 -25 -10z"/>
<path d="M1963 2443 c20 -2 54 -2 75 0 20 2 3 4 -38 4 -41 0 -58 -2 -37 -4z"/>
<path d="M5833 2443 c15 -2 37 -2 50 0 12 2 0 4 -28 4 -27 0 -38 -2 -22 -4z"/>
<path d="M1530 2433 c-8 -3 -26 -10 -40 -15 -23 -9 -24 -10 -7 -20 14 -7 21
-6 30 6 7 8 23 20 37 25 14 5 18 10 10 10 -8 -1 -22 -3 -30 -6z"/>
<path d="M1838 2433 c7 -3 16 -2 19 1 4 3 -2 6 -13 5 -11 0 -14 -3 -6 -6z"/>
<path d="M1428 2423 c7 -3 16 -2 19 1 4 3 -2 6 -13 5 -11 0 -14 -3 -6 -6z"/>
<path d="M7232 2374 c15 -8 34 -27 42 -42 14 -26 15 -26 16 -4 0 21 -50 62
-75 62 -5 -1 2 -7 17 -16z"/>
<path d="M2401 2364 c0 -11 3 -14 6 -6 3 7 2 16 -1 19 -3 4 -6 -2 -5 -13z"/>
<path d="M6648 2289 c95 -25 93 -21 65 -151 l-16 -77 -46 -10 c-25 -5 -63 -13
-83 -16 l-38 -7 0 -161 0 -160 59 6 c32 4 103 9 157 12 54 3 129 13 166 22 64
16 68 16 123 -5 102 -39 102 -29 -5 77 -55 54 -100 103 -100 108 0 14 116 46
150 41 34 -5 37 3 18 63 -11 38 -10 40 20 67 17 16 42 44 55 63 l23 34 -63 -3
c-62 -4 -94 5 -373 95 -25 8 -79 16 -120 19 l-75 3 83 -20z m272 -418 c13 -14
40 -65 40 -75 0 -10 -64 -25 -69 -17 -4 5 -35 14 -71 21 -95 17 -140 30 -140
40 0 17 83 49 135 52 63 4 86 -1 105 -21z"/>
<path d="M4213 2263 c-22 -4 -23 -8 -21 -96 l2 -92 6 90 6 90 2 -95 c3 -147
-10 -380 -21 -380 -16 0 -55 -51 -61 -81 -7 -37 0 -55 41 -103 33 -40 43 -82
22 -103 -7 -7 -8 -36 -4 -89 10 -96 18 -80 37 66 l13 105 6 -135 c4 -74 7
-147 8 -162 0 -16 5 -28 9 -28 5 0 12 73 16 162 5 116 11 169 21 185 19 29 19
47 0 39 -17 -6 -81 28 -88 47 -8 21 5 77 18 77 7 0 13 10 12 23 0 12 3 127 7
255 5 130 5 231 0 231 -5 -1 -19 -4 -31 -6z m-16 -815 c-3 -8 -6 -5 -6 6 -1
11 2 17 5 13 3 -3 4 -12 1 -19z"/>
<path d="M4265 2020 c-4 -138 -5 -254 -1 -257 19 -19 25 35 28 260 2 179 0
247 -8 247 -8 0 -14 -75 -19 -250z"/>
<path d="M2482 2152 c-40 -26 -53 -42 -32 -42 6 0 10 -36 10 -87 0 -47 11
-170 25 -272 25 -189 78 -645 91 -781 7 -85 29 -150 50 -150 11 0 12 4 5 19
-11 20 -29 166 -61 511 -11 118 -27 276 -35 350 -23 202 -31 436 -15 455 22
26 6 25 -38 -3z"/>
<path d="M2085 2028 c3 -18 9 -121 15 -228 6 -107 15 -231 21 -275 5 -44 21
-210 34 -370 34 -398 36 -415 46 -415 12 0 12 1 -11 265 -12 127 -25 275 -29
330 -15 168 -32 382 -44 554 -8 110 -16 166 -24 168 -8 3 -11 -6 -8 -29z"/>
<path d="M6338 2023 c-3 -35 -5 -37 -53 -48 -107 -24 -142 -64 -191 -222 -20
-65 -46 -131 -59 -148 -24 -34 -77 -151 -79 -175 -1 -8 -11 -29 -24 -47 -14
-19 -18 -34 -12 -38 5 -3 10 -11 10 -17 0 -7 -4 -7 -13 0 -9 8 -16 6 -24 -7
-10 -15 -7 -21 14 -32 20 -11 27 -11 30 -2 3 9 11 8 30 -4 15 -10 27 -13 31
-7 4 6 22 11 40 12 29 2 32 0 32 -24 0 -27 0 -27 -21 -8 l-22 19 6 -35 c3 -19
9 -50 13 -69 5 -24 3 -32 -5 -27 -6 4 -11 15 -11 25 0 27 -29 91 -40 91 -6 0
-4 -13 5 -30 21 -40 2 -38 -24 3 -29 46 -26 10 4 -38 27 -45 31 -65 12 -65 -7
0 -23 25 -37 55 -29 63 -42 71 -29 18 14 -60 11 -71 -11 -44 -11 13 -20 29
-20 37 0 7 -4 16 -10 19 -6 4 -10 -13 -10 -44 l0 -50 68 -47 c78 -55 95 -70
70 -61 -34 12 -18 -1 47 -39 54 -32 62 -40 46 -46 -34 -12 -30 -23 20 -52 28
-15 53 -34 56 -42 3 -8 8 -12 12 -9 4 2 4 -17 0 -43 -23 -142 -24 -137 7 -159
16 -11 74 -44 129 -74 l100 -54 95 1 c52 1 275 9 494 18 365 15 402 18 432 36
37 23 44 38 44 86 0 28 -5 36 -26 44 -14 6 -29 8 -34 5 -4 -2 -122 -7 -261
-10 -140 -3 -288 -7 -329 -10 -41 -2 -121 -7 -178 -10 -56 -3 -114 -10 -127
-15 -20 -8 -25 -6 -25 6 0 8 -5 12 -10 9 -6 -4 -8 -11 -5 -16 4 -5 2 -9 -4 -9
-5 0 -15 16 -21 35 -6 18 -22 50 -35 69 l-23 34 101 6 c56 3 242 13 412 21
171 8 359 17 418 21 77 4 112 2 122 -6 10 -8 15 -9 15 -2 0 6 -5 14 -12 18
-15 10 -234 7 -473 -6 -99 -5 -270 -13 -381 -16 l-201 -7 -5 78 c-3 46 -10 81
-17 83 -6 2 -11 10 -11 18 0 7 -10 20 -22 28 -28 17 -174 66 -203 67 -11 0 0
7 25 14 33 11 47 11 55 3 7 -8 5 -9 -7 -5 -10 3 -19 3 -22 -1 -3 -5 55 -20
127 -35 73 -15 171 -36 218 -47 81 -17 97 -18 295 -5 115 8 291 17 392 21 100
4 182 11 182 15 0 4 -30 6 -67 3 -38 -2 -174 -9 -303 -14 -129 -6 -273 -13
-320 -16 -80 -6 -84 -5 -63 10 32 24 47 86 33 137 -20 73 -45 87 -230 133 -50
12 -55 14 -20 10 25 -3 98 -9 163 -14 64 -5 127 -15 140 -22 24 -13 325 -12
562 2 91 6 48 7 -142 4 -149 -3 -287 -2 -306 1 l-34 7 11 46 12 47 123 17 c67
9 177 21 244 27 67 7 140 18 162 26 22 8 34 14 28 15 -19 0 -16 21 5 36 27 21
-49 19 -384 -11 -33 -3 -84 -9 -111 -14 -49 -7 -51 -7 -77 25 -22 28 -24 37
-16 59 25 67 6 89 -92 105 -195 30 -263 42 -270 46 -5 3 -8 1 -8 -5 0 -5 5
-11 11 -13 7 -2 7 -20 2 -53 -7 -40 -13 -50 -32 -55 -22 -5 -22 -6 -7 -19 13
-11 14 -16 5 -22 -28 -17 -34 2 -33 99 1 98 -14 368 -22 410 -3 13 -12 22 -24
22 -14 0 -19 -8 -22 -37z m52 -704 c37 -7 33 -7 -23 -4 -37 2 -75 9 -85 15
-13 9 -8 9 23 4 22 -4 60 -11 85 -15z m-35 -339 c-3 -5 -1 -10 6 -10 7 0 10
-3 6 -6 -9 -9 -28 6 -22 17 4 5 8 9 11 9 3 0 2 -4 -1 -10z"/>
<path d="M1686 1967 c-11 -57 -6 -221 8 -239 7 -10 16 -14 20 -10 10 10 -3
-43 -26 -103 -14 -36 -20 -85 -23 -175 l-4 -125 13 73 c7 41 17 77 22 80 5 4
17 23 28 42 22 41 61 82 70 73 3 -4 6 1 6 11 0 9 5 14 10 11 25 -15 67 166 56
240 -9 55 -52 101 -124 131 l-50 21 -6 -30z"/>
<path d="M7320 1724 c-24 -13 -24 -14 -4 -14 12 0 24 7 28 15 3 8 4 15 3 14
-1 -1 -13 -7 -27 -15z"/>
<path d="M7408 1563 c30 -6 88 -45 112 -76 11 -13 23 -51 29 -83 5 -32 14 -71
20 -86 5 -15 29 -100 51 -190 23 -90 59 -219 80 -288 21 -69 41 -144 45 -167
3 -23 13 -47 21 -54 20 -17 18 -7 -25 142 -22 74 -52 179 -66 234 -29 110 -70
258 -110 405 -29 103 -65 163 -92 153 -9 -4 -14 -2 -10 3 3 6 -12 11 -36 11
-23 0 -32 -1 -19 -4z"/>
<path d="M497 1513 c-8 -16 -36 -109 -62 -208 -25 -99 -55 -209 -65 -245 -53
-187 -121 -464 -116 -476 11 -29 22 -12 32 49 10 61 59 263 74 302 4 11 36
135 70 275 34 140 69 272 76 293 15 43 10 49 -9 10z"/>
<path d="M1651 1274 c0 -11 3 -14 6 -6 3 7 2 16 -1 19 -3 4 -6 -2 -5 -13z"/>
<path d="M1682 1163 c1 -5 -4 -19 -12 -33 -22 -39 -39 -110 -40 -167 0 -56 3
-59 44 -43 20 7 27 20 37 70 6 33 16 63 20 66 15 9 10 -61 -5 -81 -16 -22 -11
-45 10 -45 8 0 14 2 14 5 0 2 12 50 26 105 30 121 29 151 -4 98 -28 -44 -42
-48 -42 -12 0 19 -4 25 -15 20 -9 -3 -15 0 -15 9 0 8 -4 15 -10 15 -5 0 -9 -3
-8 -7z m-2 -128 l-7 -50 -2 60 c0 34 3 55 8 50 4 -6 5 -32 1 -60z"/>
<path d="M1560 1126 c0 -9 -6 -16 -12 -16 -10 0 -9 -3 1 -9 10 -7 13 -30 9
-100 -4 -90 -4 -91 19 -91 22 0 23 4 22 63 -1 91 -12 160 -26 165 -7 2 -13 -3
-13 -12z"/>
<path d="M1360 1021 c0 -6 4 -13 10 -16 6 -3 7 1 4 9 -7 18 -14 21 -14 7z"/>
<path d="M3172 928 c-19 -19 -14 -55 9 -77 15 -14 42 -21 93 -26 153 -14 192
11 59 39 -86 19 -145 45 -139 63 7 16 -6 17 -22 1z"/>
<path d="M3970 917 c1 -19 32 -53 65 -70 17 -8 75 -18 131 -22 83 -6 102 -5
106 7 5 11 -20 19 -116 37 -67 12 -137 31 -154 41 -22 13 -32 16 -32 7z"/>
<path d="M4612 903 c-7 -3 -17 -13 -22 -24 -9 -16 -7 -19 9 -19 11 0 23 9 26
21 8 24 5 28 -13 22z"/>
<path d="M1705 880 c-3 -5 1 -10 9 -10 8 0 18 5 21 10 3 6 -1 10 -9 10 -8 0
-18 -4 -21 -10z"/>
<path d="M5318 861 c-15 -12 -30 -30 -33 -41 -4 -11 -15 -20 -26 -20 -10 0
-19 -4 -19 -10 0 -5 5 -10 12 -10 6 0 34 -11 62 -25 36 -17 82 -28 156 -36
l104 -11 23 26 c27 32 28 47 8 86 -16 32 -28 36 -120 44 -33 3 -78 8 -100 12
-32 5 -45 2 -67 -15z"/>
<path d="M1837 795 c3 -33 6 -61 7 -62 1 -1 15 2 32 6 l29 9 -27 1 c-25 1 -28
5 -29 34 0 17 -4 41 -9 52 -5 12 -6 -4 -3 -40z"/>
<path d="M1995 641 c-26 -29 -6 -53 77 -95 40 -20 89 -45 109 -56 29 -17 42
-19 63 -10 35 13 76 13 76 0 0 -5 14 -10 31 -10 16 0 28 3 25 8 -2 4 12 6 33
4 20 -2 89 4 152 13 62 9 123 17 134 16 36 -1 231 28 256 39 23 10 23 10 -4 5
-19 -4 -26 -2 -22 5 8 14 52 13 61 -1 8 -13 178 -5 229 10 30 9 30 9 -10 12
-31 1 -34 3 -12 6 38 6 34 23 -5 23 -83 0 -321 -22 -395 -36 -76 -15 -84 -15
-99 0 -18 19 -34 13 -34 -13 0 -15 -10 -16 -93 -13 -65 3 -117 -1 -173 -13
-108 -24 -153 -29 -134 -16 8 6 10 11 5 11 -6 0 -35 16 -64 36 -30 19 -59 36
-65 37 -6 1 -16 8 -22 16 -6 7 -22 15 -36 16 -14 2 -35 8 -45 14 -16 8 -24 6
-38 -8z m1122 -67 c-3 -3 -12 -4 -19 -1 -8 3 -5 6 6 6 11 1 17 -2 13 -5z m-60
-10 c-3 -3 -12 -4 -19 -1 -8 3 -5 6 6 6 11 1 17 -2 13 -5z"/>
<path d="M4602 614 c-27 -32 -47 -83 -37 -93 12 -11 97 -12 110 -1 10 9 15 9
15 1 0 -21 39 -11 55 13 15 22 15 27 1 53 -15 27 -15 27 -16 5 0 -21 -20 -52
-34 -52 -3 0 -6 12 -6 26 0 32 -15 61 -40 74 -15 8 -24 4 -48 -26z"/>
<path d="M5197 643 c-2 -5 -2 -27 1 -51 6 -57 26 -49 30 11 2 36 0 47 -12 47
-8 0 -17 -3 -19 -7z"/>
<path d="M4852 580 c-1 -39 2 -49 8 -34 4 11 5 36 0 55 -7 31 -8 29 -8 -21z"/>
</g>
</svg>
